<svg width="349" height="320" viewBox="0 0 349 320" fill="none" xmlns="http://www.w3.org/2000/svg">
<path d="M333.35 184.195L326.647 171.115L307.324 152.3L276.21 131.425L265.368 128.93L246.503 96.6698L241.507 93.3175L239.434 97.3885L231.992 94.7361L228.283 97.319L227.026 101.157L218.087 98.2805L216.824 100.164L211.892 103.096L208.846 100.273L203.041 99.1084L203.827 104.317L205.184 118.882L169.374 117.872L147.718 122.848L139.001 116.999L137.557 119.152L130.289 114.276L129.754 117.037L126.574 114.904L125.672 116.249L120.087 113.282L123.132 124.943L86.3723 116.409L81.9459 106.808L65.3547 91.7754L47.8791 83.9517L45.1552 97.3384L48.8476 104.107L46.9269 113.351L52.6107 119.115L55.7737 130.6L59.6346 133.19L51.6225 136.787L45.6604 143.71L37.2873 147.845L32.1058 158.022L26.097 164.524L24.7584 171.428L49.6806 168.643L77.5193 156.112L113.86 152.017L136.344 167.102L184.054 189.749L240.854 205.23L234.997 216.905L235.195 222.5L227.964 229.351L235.994 231.618L260.612 218.487L273.271 207.474L289.866 209.246L300.19 205.64L323.044 193.666L330.969 191.18L324.61 186.914L333.35 184.195Z" fill="url(#paint0_linear_2145_240)"/>
<path d="M86.3723 116.409L73.7382 135.241L77.5193 156.112M86.3723 116.409L123.132 124.943M86.3723 116.409L81.9459 106.808L65.3547 91.7754L47.8791 83.9517L45.1552 97.3384L48.8477 104.107L46.9269 113.351L52.6107 119.115L55.7737 130.6L59.6346 133.19L51.6225 136.787L45.6604 143.71L37.2873 147.845L32.1058 158.022L26.097 164.524L24.7584 171.428L49.6806 168.643L77.5193 156.112M77.5193 156.112L113.86 152.017L136.344 167.102L184.054 189.749L240.854 205.23M240.854 205.23L249.075 195.922L266.666 197.192L273.271 207.474M240.854 205.23L234.997 216.905L235.195 222.5L227.964 229.351L235.994 231.618L260.612 218.487L273.271 207.474M273.271 207.474L289.866 209.246L300.19 205.64L323.044 193.666L330.969 191.18L324.61 186.914M324.61 186.914L333.35 184.195L326.647 171.115L307.324 152.3L276.21 131.425L265.368 128.93M324.61 186.914L316.9 185.642L306.745 185.071L302.063 180.759L302.176 180.863M265.368 128.93L224 119.412L205.184 118.882M265.368 128.93L246.503 96.6698L241.507 93.3175L239.434 97.3885L231.992 94.7361L228.283 97.319L227.026 101.157L218.087 98.2805L216.824 100.164L211.892 103.096L208.846 100.273L203.041 99.1084L203.827 104.317L205.184 118.882M205.184 118.882L169.374 117.872L147.718 122.848M147.718 122.848L130.826 126.729L123.132 124.943M147.718 122.848L139.001 116.999L137.557 119.152L130.289 114.276L129.754 117.037L126.574 114.904L125.672 116.249L120.087 113.282L123.132 124.943M305.841 171.2L304.6 165.687L299.383 164.137L294.684 169.176L295.471 174.385L303.314 174.967L305.841 171.2Z" stroke="white" stroke-width="3"/>
<path d="M299.735 205.335L285.847 199.528L277.454 182.584L280.58 167.126L291.835 156.733" stroke="white" stroke-width="3"/>
<path d="M266.668 197.192L267.283 176.149L276.604 155.875L282.077 152.135" stroke="white" stroke-width="3"/>
<path d="M275.787 156.107L166.505 143.255L124.177 131.24L96.6917 126.063L79.5499 138.359L83.0332 150.839L88.9381 154.801L90.0737 155.562" stroke="white" stroke-width="3"/>
<path d="M253.872 154.463L241.327 160.367L248.422 170.659L218.174 173.754" stroke="white" stroke-width="3"/>
<path d="M217.45 149.305L201.603 157.679L209.717 167.511L165.656 160.646L188.166 158.343L131.642 147.779" stroke="white" stroke-width="3"/>
<defs>
<linearGradient id="paint0_linear_2145_240" x1="372.598" y1="151.199" x2="50.763" y2="208.299" gradientUnits="userSpaceOnUse">
<stop stop-color="white"/>
<stop offset="0.21" stop-color="#DEC5DC"/>
<stop offset="0.415" stop-color="#B895BF"/>
<stop offset="0.596869" stop-color="#A991BD"/>
<stop offset="0.99" stop-color="#4D4A78"/>
</linearGradient>
</defs>
</svg>
