<svg width="163" height="125" viewBox="0 0 163 125" fill="none" xmlns="http://www.w3.org/2000/svg">
<path d="M135.1 3.89062L146.443 11.075L136.99 10.3188L128.671 12.5875L123 23.5531V34.8969L127.915 45.8625L143.796 49.6438L151.359 45.1063L159.3 32.25L157.409 47.7531L148.712 57.5844L134.343 62.1219L113.546 60.2313L102.581 47.7531L99.1777 34.8969L101.446 19.3938L111.278 7.67188L123.756 2L135.1 3.89062Z" fill="url(#paint0_linear_2145_231)"/>
<path d="M19.6841 112.436L2 100.455L6.13395 88.2574L23.1291 74.099L19.6841 69.9604L10.8421 74.099L12.909 76.0594L6.13395 81.8317L2 74.099V59.6139L12.909 49.3762H34.2678L23.1291 46.1089L29.2152 32.2772L49.5404 23.2376L74.6886 25.5248V18.4455H85.1065L90.4206 7.66337H102.133H111.32L124.181 2L135.435 3.63366L150.363 13.9802L158.86 19.7525L160.812 27.9208L155.645 38.2673L151.511 44.9109L144.277 49.3762L128.315 46.1089L125.674 40.5L123.033 34.8911V24.3267L124.701 21.0594L128.315 13.9802L138.42 9.95049L144.392 11.9653L150.363 13.9802L135.435 3.63366L124.181 2L111.32 7.66337L102.133 19.7525L101.083 25.5248L99.3774 34.8911L102.133 46.1089L94.0952 50.901L85.1065 46.1089L81.8082 59.6139L79.3967 62.2277L81.8082 74.099L79.3967 81.8317L68.258 85.099L63.0906 79.1089V88.2574L59.7604 100.455L44.8323 106.01L34.2678 102.089L41.3873 96.3168V88.2574L38.7462 91.5247L31.2821 100.455L26.1147 112.436H19.6841Z" fill="url(#paint1_linear_2145_231)"/>
<path d="M90.4206 91.5247L81.8082 89.7822L82.7268 81.9406L94.0952 69.9604L110.516 67.6733L123.033 74.099L131.76 88.2574L136.468 98.604L132.794 112.436L123.033 121.584L110.516 123L104.66 119.188L98.2291 116.901L99.3774 109.713L90.4206 116.901L96.3918 118.099L86.5163 123L76.5259 118.099L70.8991 106.554L81.8082 96.3168L90.4206 91.5247Z" fill="url(#paint2_linear_2145_231)"/>
<path d="M34.2678 49.3762H12.909L2 59.6139V74.099L6.13395 81.8317L12.909 76.0594L10.8421 74.099L19.6841 69.9604L23.1291 74.099L6.13395 88.2574L2 100.455L19.6841 112.436H26.1147L31.2821 100.455L38.7462 91.5248L41.3873 88.2574V96.3168L34.2678 102.089L44.8323 106.01L59.7604 100.455L63.0906 88.2574V79.1089M34.2678 49.3762L23.1291 46.1089L29.2152 32.2772L49.5404 23.2376L74.6886 25.5248M34.2678 49.3762L43.0271 53.6238M49.5404 56.7822L63.0906 69.9604V79.1089M49.5404 56.7822L43.0271 53.6238M49.5404 56.7822L55.7413 53.6238H62.0571L72.9661 50.901L81.8082 59.6139M74.6886 25.5248L86.5163 40.3366M74.6886 25.5248V18.4455H85.1065M86.5163 40.3366L71.703 43.7129L59.7604 41.4257L46.2103 46.1089L43.0271 53.6238M86.5163 40.3366L85.1065 46.1089M81.8082 59.6139L79.3967 62.2277L81.8082 74.099L79.3967 81.8317L68.258 85.099L63.0906 79.1089M81.8082 59.6139L85.1065 46.1089M131.76 88.2574L123.033 74.099L110.516 67.6733L94.0952 69.9604L82.7268 81.9406L81.8082 89.7822L90.4206 91.5248L81.8082 96.3168L70.8991 106.554M131.76 88.2574L125.674 104.485L114.191 114.723L104.66 119.188M131.76 88.2574L136.468 98.604L132.794 112.436L123.033 121.584L110.516 123L104.66 119.188M104.66 119.188L98.2291 116.901L99.3774 109.713L90.4206 116.901M90.4206 116.901L96.3918 118.099L86.5163 123L76.5259 118.099L70.8991 106.554M90.4206 116.901L81.8082 113.743L77.5594 107.644L70.8991 106.554M155.645 38.2673L160.812 27.9208L158.86 19.7525L150.363 13.9802M155.645 38.2673H144.277L138.42 33.5842L136.468 23.2376L140.602 16.8119L150.363 13.9802M155.645 38.2673L151.511 44.9109L144.277 49.3762L128.315 46.1089L125.674 40.5M155.645 38.2673L125.674 40.5M150.363 13.9802L135.435 3.63366L124.181 2L111.32 7.66337M150.363 13.9802L144.392 11.9653M158.86 33.5842V44.9109L151.511 55.802L139.798 61.5743L124.181 62.2277L112.009 58.8515L102.133 46.1089M102.133 46.1089L99.3774 34.8911L101.083 25.5248M102.133 46.1089L94.0952 50.901L85.1065 46.1089M111.32 7.66337L102.133 19.7525L101.083 25.5248M111.32 7.66337H102.133H90.4206L85.1065 18.4455M124.701 21.0594L128.315 13.9802L138.42 9.95049L144.392 11.9653M124.701 21.0594L123.033 24.3267V34.8911L125.674 40.5M124.701 21.0594L144.392 11.9653M85.1065 18.4455L86.5163 23.2376L82.7268 24.3267L92.7172 25.5248H101.083M89.3871 85.099L94.0952 81.9406L102.133 82.9208L98.2291 88.2574H94.0952L92.7172 86.6238L89.3871 85.099ZM105.578 101.762L110.516 98.604L112.813 103.396L111.32 108.188L105.578 112.436V108.188L107.416 104.485L105.578 101.762Z" stroke="white" stroke-width="3"/>
<defs>
<linearGradient id="paint0_linear_2145_231" x1="129.239" y1="2" x2="129.239" y2="62.1219" gradientUnits="userSpaceOnUse">
<stop stop-color="white"/>
<stop offset="0.41" stop-color="#C497C1"/>
<stop offset="0.755" stop-color="#A992BE"/>
<stop offset="0.7551" stop-color="#A992BE"/>
<stop offset="1" stop-color="#AA91BD"/>
</linearGradient>
<linearGradient id="paint1_linear_2145_231" x1="81.4062" y1="2" x2="81.4062" y2="123" gradientUnits="userSpaceOnUse">
<stop stop-color="white"/>
<stop offset="0.41" stop-color="#C497C1"/>
<stop offset="0.755" stop-color="#A992BE"/>
<stop offset="0.7551" stop-color="#A992BE"/>
<stop offset="1" stop-color="#AA91BD"/>
</linearGradient>
<linearGradient id="paint2_linear_2145_231" x1="81.4062" y1="2" x2="81.4062" y2="123" gradientUnits="userSpaceOnUse">
<stop stop-color="white"/>
<stop offset="0.41" stop-color="#C497C1"/>
<stop offset="0.755" stop-color="#A992BE"/>
<stop offset="0.7551" stop-color="#A992BE"/>
<stop offset="1" stop-color="#AA91BD"/>
</linearGradient>
</defs>
</svg>
