<svg width="242" height="150" viewBox="0 0 242 150" fill="none" xmlns="http://www.w3.org/2000/svg">
<path d="M8.58333 104.344L2 84.5755L25.4531 57.1876L36.974 22.7983L68.0391 5.29478L112.888 2L148.891 25.6812L166.789 62.7475L188.596 77.9859L201.146 80.8688L211.021 77.9859L223.159 68.7193L239 72.6319L234.062 84.5755L219.25 91.7828L234.062 104.344V116.906H219.25L207.318 108.669L195.797 104.344L188.596 108.669H177.281L164.732 118.965L109.596 148L93.7552 144.705L68.0391 137.498L36.974 131.114L8.58333 104.344Z" fill="url(#paint0_linear_2145_237)"/>
<path d="M68.0391 5.29478L36.974 22.7983L25.4531 57.1876L2 84.5755L8.58333 104.344L36.974 131.114L68.0391 137.498L93.7552 144.705M68.0391 5.29478L84.4974 14.7673L99.1042 54.0987L105.659 62.7475M68.0391 5.29478L112.888 2L148.891 25.6812L166.789 62.7475L188.596 77.9859L201.146 80.8688M93.7552 144.705L112.888 131.114L123.174 113.611L117.208 77.9859L105.659 62.7475M93.7552 144.705L109.596 148L164.732 118.965L177.281 108.669H188.596L195.797 104.344M201.146 80.8688L211.021 77.9859L223.159 68.7193L239 72.6319L234.062 84.5755L219.25 91.7828L234.062 104.344V116.906H219.25L207.318 108.669L195.797 104.344M201.146 80.8688L195.797 104.344M105.659 62.7475L129.964 60.2764L159.794 80.8688" stroke="white" stroke-width="3"/>
<path d="M34.277 54.8402L38.5835 66.9156L62.5772 57.9102H82.2643L86.1607 44.6068L79.5983 24.754L62.5772 18L44.9408 32.3268L34.277 54.8402Z" stroke="white" stroke-width="3"/>
<path d="M73.8562 70.8043L77.3425 89.0198L70.1649 98.4345L55.6047 105.393V121.971L70.1649 132L91.6977 129.749L108.104 115.217L112 95.7738L102.362 66.9156L89.4419 61.5943L73.8562 70.8043Z" stroke="white" stroke-width="3"/>
<path d="M15 76.1257V89.0198L22.1776 100.481L31.2008 115.217L49.2474 124.018V105.393L38.5835 93.1131V80.6284L28.945 66.9156L15 76.1257Z" stroke="white" stroke-width="3"/>
<path d="M56.0148 68.9623L47.1966 76.1257L49.2474 93.1131L59.5011 95.7738L67.4989 84.5171L65.4482 73.8743L56.0148 68.9623Z" stroke="white" stroke-width="3"/>
<defs>
<linearGradient id="paint0_linear_2145_237" x1="120.5" y1="2" x2="120.5" y2="148" gradientUnits="userSpaceOnUse">
<stop stop-color="#E3CBCB"/>
<stop offset="0.445" stop-color="#BB89B8"/>
<stop offset="1" stop-color="#9B99C3"/>
</linearGradient>
</defs>
</svg>
