<svg width="228" height="332" viewBox="0 0 228 332" fill="none" xmlns="http://www.w3.org/2000/svg">
<path d="M23.4084 256.931L14.4507 294.202L86.1127 319.546L66.7042 294.202L102.535 282.275L80.1408 213.697L112.986 240.532V182.39L126.423 237.55L151.803 256.931V315.073L162.254 327L216 294.202V265.876L198.084 282.275V222.642V170.463L177.183 198.789V158.537L216 125.739L151.803 136.174L139.859 170.463L112.986 115.303L132.394 2L80.1408 115.303L66.7042 69.0872V115.303L23.4084 82.5046L66.7042 136.174V170.463L53.2676 149.592L36.8451 198.789V240.532L4 213.697L23.4084 256.931Z" stroke="white" stroke-width="7"/>
</svg>
