<svg width="186" height="260" viewBox="0 0 186 260" fill="none" xmlns="http://www.w3.org/2000/svg">
<path d="M3.26511 196.833L22.6147 147.615L59.2666 106.049L78.9175 73.1352L73.7974 54.0266L57.4738 34.8479L75.7393 4.35297L94.4724 24.9341L77.6675 57.0857M77.6675 57.0857L84.0677 80.9714L128.927 96.6001L185.382 94.7855L95.3166 96.3898L103.253 126.008L94.3387 172.43L129.545 155.828L159.903 147.694M77.6675 57.0857L61.5707 114.648L64.5682 186.551L63.6503 240.046L68.2584 257.244L98.9476 254.141L122.469 224.286L159.903 147.694M159.903 147.694L146.186 217.931L155.131 224.75L170.31 220.683M70.6508 102.999L89.7306 155.232L76.6904 197.639L88.7227 242.544L120.541 171.553" stroke="white" stroke-width="5"/>
</svg>
