<svg width="843" height="123" viewBox="0 0 843 123" fill="none" xmlns="http://www.w3.org/2000/svg">
<g filter="url(#filter0_d_2004_159)">
<rect x="4" width="835" height="115" rx="57.5" fill="url(#paint0_linear_2004_159)"/>
<rect x="4.5" y="0.5" width="834" height="114" rx="57" stroke="black"/>
</g>
<rect x="4.5" y="0.5" width="834" height="114" rx="57" fill="#030303" fill-opacity="0.51"/>
<rect x="4.5" y="0.5" width="834" height="114" rx="57" stroke="black"/>
<path d="M135.22 49.5V67.5H132.97V47.25H153.22V67.5H150.97V49.5H135.22ZM160.177 57.375C160.177 61.74 163.687 65.25 168.052 65.25C172.417 65.25 175.927 61.74 175.927 57.375C175.927 53.01 172.417 49.5 168.052 49.5C163.687 49.5 160.177 53.01 160.177 57.375ZM178.177 57.375C178.177 62.955 173.632 67.5 168.052 67.5C162.472 67.5 157.927 62.955 157.927 57.375C157.927 51.795 162.472 47.25 168.052 47.25C173.632 47.25 178.177 51.795 178.177 57.375ZM187.385 57.375V65.25H203.135V49.5H195.26C190.895 49.5 187.385 53.01 187.385 57.375ZM182.885 67.5V65.25H185.135V57.375C185.135 51.795 189.68 47.25 195.26 47.25H205.385V65.25H207.635V67.5H182.885ZM212.369 49.5V47.25H232.619V49.5H223.619V67.5H221.369V49.5H212.369ZM253.076 51.75C253.076 50.49 252.086 49.5 250.826 49.5H239.576V54H250.826C252.086 54 253.076 53.01 253.076 51.75ZM239.576 56.25V65.25H250.826C253.301 65.25 255.326 63.225 255.326 60.75C255.326 58.275 253.301 56.25 250.826 56.25H239.576ZM237.326 67.5V47.25H250.826C253.301 47.25 255.326 49.275 255.326 51.75C255.326 52.965 254.876 54.045 254.111 54.855C256.181 56.025 257.576 58.185 257.576 60.75C257.576 64.485 254.561 67.5 250.826 67.5H237.326ZM262.284 67.5V47.25H282.534V49.5H264.534V56.25H274.659V58.5H264.534V65.25H282.534V67.5H262.284ZM305.241 54C305.241 51.525 303.216 49.5 300.741 49.5H289.491V58.5H300.741C303.216 58.5 305.241 56.475 305.241 54ZM287.241 67.5V47.25H300.741C304.476 47.25 307.491 50.265 307.491 54C307.491 57.735 304.476 60.75 300.741 60.75H289.491V67.5H287.241ZM332.448 58.5V67.5H330.198V58.5H323.448C318.498 58.5 314.448 62.55 314.448 67.5H312.198C312.198 63.045 314.808 59.22 318.543 57.375C314.808 55.53 312.198 51.705 312.198 47.25H314.448C314.448 52.2 318.498 56.25 323.448 56.25H330.198V47.25H332.448V56.25H339.198C344.148 56.25 348.198 52.2 348.198 47.25H350.448C350.448 51.705 347.838 55.53 344.103 57.375C347.838 59.22 350.448 63.045 350.448 67.5H348.198C348.198 62.55 344.148 58.5 339.198 58.5H332.448ZM359.673 57.375V65.25H375.423V49.5H367.548C363.183 49.5 359.673 53.01 359.673 57.375ZM355.173 67.5V65.25H357.423V57.375C357.423 51.795 361.968 47.25 367.548 47.25H377.673V65.25H379.923V67.5H355.173ZM402.657 58.5V57.375C402.657 53.01 399.147 49.5 394.782 49.5C390.417 49.5 386.907 53.01 386.907 57.375V58.5H402.657ZM384.657 67.5V57.375C384.657 51.795 389.202 47.25 394.782 47.25C400.362 47.25 404.907 51.795 404.907 57.375V67.5H402.657V60.75H386.907V67.5H384.657ZM432.115 57.375C432.115 53.01 428.605 49.5 424.24 49.5C419.875 49.5 416.365 53.01 416.365 57.375C416.365 61.74 419.875 65.25 424.24 65.25C428.605 65.25 432.115 61.74 432.115 57.375ZM409.615 67.5V47.25H411.865V56.25H414.16C414.7 51.21 419.02 47.25 424.24 47.25C429.82 47.25 434.365 51.795 434.365 57.375C434.365 62.955 429.82 67.5 424.24 67.5C419.02 67.5 414.7 63.54 414.16 58.5H411.865V67.5H409.615ZM464.056 67.5V47.25H484.306V49.5H466.306V67.5H464.056ZM491.263 57.375C491.263 61.74 494.773 65.25 499.138 65.25C503.503 65.25 507.013 61.74 507.013 57.375C507.013 53.01 503.503 49.5 499.138 49.5C494.773 49.5 491.263 53.01 491.263 57.375ZM509.263 57.375C509.263 62.955 504.718 67.5 499.138 67.5C493.558 67.5 489.013 62.955 489.013 57.375C489.013 51.795 493.558 47.25 499.138 47.25C504.718 47.25 509.263 51.795 509.263 57.375ZM513.971 49.5V47.25H534.221V49.5H525.221V67.5H522.971V49.5H513.971ZM541.178 57.375C541.178 61.74 544.688 65.25 549.053 65.25C553.418 65.25 556.928 61.74 556.928 57.375C556.928 53.01 553.418 49.5 549.053 49.5C544.688 49.5 541.178 53.01 541.178 57.375ZM559.178 57.375C559.178 62.955 554.633 67.5 549.053 67.5C543.473 67.5 538.928 62.955 538.928 57.375C538.928 51.795 543.473 47.25 549.053 47.25C554.633 47.25 559.178 51.795 559.178 57.375ZM579.635 51.75C579.635 50.49 578.645 49.5 577.385 49.5H566.135V54H577.385C578.645 54 579.635 53.01 579.635 51.75ZM566.135 56.25V65.25H577.385C579.86 65.25 581.885 63.225 581.885 60.75C581.885 58.275 579.86 56.25 577.385 56.25H566.135ZM563.885 67.5V47.25H577.385C579.86 47.25 581.885 49.275 581.885 51.75C581.885 52.965 581.435 54.045 580.67 54.855C582.74 56.025 584.135 58.185 584.135 60.75C584.135 64.485 581.12 67.5 577.385 67.5H563.885ZM606.843 67.5V58.5H591.093V67.5H588.843V47.25H591.093V56.25H606.843V47.25H609.093V67.5H606.843ZM616.05 57.375C616.05 61.74 619.56 65.25 623.925 65.25C628.29 65.25 631.8 61.74 631.8 57.375C631.8 53.01 628.29 49.5 623.925 49.5C619.56 49.5 616.05 53.01 616.05 57.375ZM634.05 57.375C634.05 62.955 629.505 67.5 623.925 67.5C618.345 67.5 613.8 62.955 613.8 57.375C613.8 51.795 618.345 47.25 623.925 47.25C629.505 47.25 634.05 51.795 634.05 57.375ZM641.008 57.375C641.008 61.74 644.518 65.25 648.883 65.25H659.008V67.5H648.883C643.303 67.5 638.758 62.955 638.758 57.375C638.758 51.795 643.303 47.25 648.883 47.25H659.008V49.5H648.883C644.518 49.5 641.008 53.01 641.008 57.375ZM663.715 49.5V47.25H683.965V49.5H674.965V67.5H672.715V49.5H663.715ZM706.673 60.75C706.673 58.275 704.648 56.25 702.173 56.25H690.923V65.25H702.173C704.648 65.25 706.673 63.225 706.673 60.75ZM688.673 67.5V47.25H690.923V54H702.173C705.908 54 708.923 57.015 708.923 60.75C708.923 64.485 705.908 67.5 702.173 67.5H688.673Z" fill="black"/>
<rect x="4.5" y="0.5" width="834" height="114" rx="57" fill="#030303" fill-opacity="0.51"/>
<rect x="4.5" y="0.5" width="834" height="114" rx="57" stroke="black"/>
<path d="M135.22 49.5V67.5H132.97V47.25H153.22V67.5H150.97V49.5H135.22ZM160.177 57.375C160.177 61.74 163.687 65.25 168.052 65.25C172.417 65.25 175.927 61.74 175.927 57.375C175.927 53.01 172.417 49.5 168.052 49.5C163.687 49.5 160.177 53.01 160.177 57.375ZM178.177 57.375C178.177 62.955 173.632 67.5 168.052 67.5C162.472 67.5 157.927 62.955 157.927 57.375C157.927 51.795 162.472 47.25 168.052 47.25C173.632 47.25 178.177 51.795 178.177 57.375ZM187.385 57.375V65.25H203.135V49.5H195.26C190.895 49.5 187.385 53.01 187.385 57.375ZM182.885 67.5V65.25H185.135V57.375C185.135 51.795 189.68 47.25 195.26 47.25H205.385V65.25H207.635V67.5H182.885ZM212.369 49.5V47.25H232.619V49.5H223.619V67.5H221.369V49.5H212.369ZM253.076 51.75C253.076 50.49 252.086 49.5 250.826 49.5H239.576V54H250.826C252.086 54 253.076 53.01 253.076 51.75ZM239.576 56.25V65.25H250.826C253.301 65.25 255.326 63.225 255.326 60.75C255.326 58.275 253.301 56.25 250.826 56.25H239.576ZM237.326 67.5V47.25H250.826C253.301 47.25 255.326 49.275 255.326 51.75C255.326 52.965 254.876 54.045 254.111 54.855C256.181 56.025 257.576 58.185 257.576 60.75C257.576 64.485 254.561 67.5 250.826 67.5H237.326ZM262.284 67.5V47.25H282.534V49.5H264.534V56.25H274.659V58.5H264.534V65.25H282.534V67.5H262.284ZM305.241 54C305.241 51.525 303.216 49.5 300.741 49.5H289.491V58.5H300.741C303.216 58.5 305.241 56.475 305.241 54ZM287.241 67.5V47.25H300.741C304.476 47.25 307.491 50.265 307.491 54C307.491 57.735 304.476 60.75 300.741 60.75H289.491V67.5H287.241ZM332.448 58.5V67.5H330.198V58.5H323.448C318.498 58.5 314.448 62.55 314.448 67.5H312.198C312.198 63.045 314.808 59.22 318.543 57.375C314.808 55.53 312.198 51.705 312.198 47.25H314.448C314.448 52.2 318.498 56.25 323.448 56.25H330.198V47.25H332.448V56.25H339.198C344.148 56.25 348.198 52.2 348.198 47.25H350.448C350.448 51.705 347.838 55.53 344.103 57.375C347.838 59.22 350.448 63.045 350.448 67.5H348.198C348.198 62.55 344.148 58.5 339.198 58.5H332.448ZM359.673 57.375V65.25H375.423V49.5H367.548C363.183 49.5 359.673 53.01 359.673 57.375ZM355.173 67.5V65.25H357.423V57.375C357.423 51.795 361.968 47.25 367.548 47.25H377.673V65.25H379.923V67.5H355.173ZM402.657 58.5V57.375C402.657 53.01 399.147 49.5 394.782 49.5C390.417 49.5 386.907 53.01 386.907 57.375V58.5H402.657ZM384.657 67.5V57.375C384.657 51.795 389.202 47.25 394.782 47.25C400.362 47.25 404.907 51.795 404.907 57.375V67.5H402.657V60.75H386.907V67.5H384.657ZM432.115 57.375C432.115 53.01 428.605 49.5 424.24 49.5C419.875 49.5 416.365 53.01 416.365 57.375C416.365 61.74 419.875 65.25 424.24 65.25C428.605 65.25 432.115 61.74 432.115 57.375ZM409.615 67.5V47.25H411.865V56.25H414.16C414.7 51.21 419.02 47.25 424.24 47.25C429.82 47.25 434.365 51.795 434.365 57.375C434.365 62.955 429.82 67.5 424.24 67.5C419.02 67.5 414.7 63.54 414.16 58.5H411.865V67.5H409.615ZM464.056 67.5V47.25H484.306V49.5H466.306V67.5H464.056ZM491.263 57.375C491.263 61.74 494.773 65.25 499.138 65.25C503.503 65.25 507.013 61.74 507.013 57.375C507.013 53.01 503.503 49.5 499.138 49.5C494.773 49.5 491.263 53.01 491.263 57.375ZM509.263 57.375C509.263 62.955 504.718 67.5 499.138 67.5C493.558 67.5 489.013 62.955 489.013 57.375C489.013 51.795 493.558 47.25 499.138 47.25C504.718 47.25 509.263 51.795 509.263 57.375ZM513.971 49.5V47.25H534.221V49.5H525.221V67.5H522.971V49.5H513.971ZM541.178 57.375C541.178 61.74 544.688 65.25 549.053 65.25C553.418 65.25 556.928 61.74 556.928 57.375C556.928 53.01 553.418 49.5 549.053 49.5C544.688 49.5 541.178 53.01 541.178 57.375ZM559.178 57.375C559.178 62.955 554.633 67.5 549.053 67.5C543.473 67.5 538.928 62.955 538.928 57.375C538.928 51.795 543.473 47.25 549.053 47.25C554.633 47.25 559.178 51.795 559.178 57.375ZM579.635 51.75C579.635 50.49 578.645 49.5 577.385 49.5H566.135V54H577.385C578.645 54 579.635 53.01 579.635 51.75ZM566.135 56.25V65.25H577.385C579.86 65.25 581.885 63.225 581.885 60.75C581.885 58.275 579.86 56.25 577.385 56.25H566.135ZM563.885 67.5V47.25H577.385C579.86 47.25 581.885 49.275 581.885 51.75C581.885 52.965 581.435 54.045 580.67 54.855C582.74 56.025 584.135 58.185 584.135 60.75C584.135 64.485 581.12 67.5 577.385 67.5H563.885ZM606.843 67.5V58.5H591.093V67.5H588.843V47.25H591.093V56.25H606.843V47.25H609.093V67.5H606.843ZM616.05 57.375C616.05 61.74 619.56 65.25 623.925 65.25C628.29 65.25 631.8 61.74 631.8 57.375C631.8 53.01 628.29 49.5 623.925 49.5C619.56 49.5 616.05 53.01 616.05 57.375ZM634.05 57.375C634.05 62.955 629.505 67.5 623.925 67.5C618.345 67.5 613.8 62.955 613.8 57.375C613.8 51.795 618.345 47.25 623.925 47.25C629.505 47.25 634.05 51.795 634.05 57.375ZM641.008 57.375C641.008 61.74 644.518 65.25 648.883 65.25H659.008V67.5H648.883C643.303 67.5 638.758 62.955 638.758 57.375C638.758 51.795 643.303 47.25 648.883 47.25H659.008V49.5H648.883C644.518 49.5 641.008 53.01 641.008 57.375ZM663.715 49.5V47.25H683.965V49.5H674.965V67.5H672.715V49.5H663.715ZM706.673 60.75C706.673 58.275 704.648 56.25 702.173 56.25H690.923V65.25H702.173C704.648 65.25 706.673 63.225 706.673 60.75ZM688.673 67.5V47.25H690.923V54H702.173C705.908 54 708.923 57.015 708.923 60.75C708.923 64.485 705.908 67.5 702.173 67.5H688.673Z" fill="black"/>
<defs>
<filter id="filter0_d_2004_159" x="0" y="0" width="843" height="123" filterUnits="userSpaceOnUse" color-interpolation-filters="sRGB">
<feFlood flood-opacity="0" result="BackgroundImageFix"/>
<feColorMatrix in="SourceAlpha" type="matrix" values="0 0 0 0 0 0 0 0 0 0 0 0 0 0 0 0 0 0 127 0" result="hardAlpha"/>
<feOffset dy="4"/>
<feGaussianBlur stdDeviation="2"/>
<feComposite in2="hardAlpha" operator="out"/>
<feColorMatrix type="matrix" values="0 0 0 0 0 0 0 0 0 0 0 0 0 0 0 0 0 0 0.25 0"/>
<feBlend mode="normal" in2="BackgroundImageFix" result="effect1_dropShadow_2004_159"/>
<feBlend mode="normal" in="SourceGraphic" in2="effect1_dropShadow_2004_159" result="shape"/>
</filter>
<linearGradient id="paint0_linear_2004_159" x1="4" y1="2.95914" x2="814.5" y2="153" gradientUnits="userSpaceOnUse">
<stop stop-color="#7A75C6"/>
<stop offset="0.312136" stop-color="#EFAAEA"/>
<stop offset="0.605" stop-color="#F3CAF0"/>
<stop offset="0.75" stop-color="#FFBFFA"/>
<stop offset="1" stop-color="#7A75C6"/>
</linearGradient>
</defs>
</svg>
