<svg width="276" height="276" viewBox="0 0 276 276" fill="none" xmlns="http://www.w3.org/2000/svg">
<path d="M138 0L257.512 207H18.4885L138 0Z" fill="black"/>
<path d="M21.0866 205.5L138 3.00001L254.913 205.5H21.0866Z" stroke="white" stroke-opacity="0.87" stroke-width="3"/>
<path d="M39.1391 194.5L137 25L234.861 194.5H39.1391Z" fill="black" stroke="url(#paint0_linear_2004_22)" stroke-width="12"/>
<path d="M125.5 91.12C125.22 89.72 124.94 88.18 124.66 86.78C125.5 85.8 126.34 84.68 127.18 83.7C130.68 79.64 132.22 77.4 134.18 76.14C134.88 75.58 135.44 75.44 136.28 75.44C137.26 75.44 137.82 75.58 138.52 76.14C141.46 78.24 145.8 83.84 148.04 86.92C145.66 97.7 142.58 112.26 140.9 122.48C138.8 134.94 138.38 142.22 137.54 147.96C137.4 149.22 136.84 149.5 136.56 149.64C136.42 149.64 136.28 149.64 136.14 149.64C135.58 149.64 134.88 149.5 134.74 146.84C134.6 144.6 132.36 128.22 131.94 125.56C129.84 111 127.74 102.74 125.5 91.12ZM136.42 155.1C142.02 155.1 146.36 159.58 146.36 165.32C146.36 171.06 142.16 175.26 136.42 175.26C130.68 175.26 126.2 170.92 126.2 165.18C126.2 159.58 130.68 155.1 136.42 155.1Z" fill="white" fill-opacity="0.85"/>
<defs>
<linearGradient id="paint0_linear_2004_22" x1="137" y1="13" x2="247.5" y2="177" gradientUnits="userSpaceOnUse">
<stop stop-color="white"/>
<stop offset="0.39" stop-color="#F6A0F0"/>
<stop offset="1" stop-color="#322B7B"/>
</linearGradient>
</defs>
</svg>
