<svg width="427" height="428" viewBox="0 0 427 428" fill="none" xmlns="http://www.w3.org/2000/svg">
<g filter="url(#filter0_dddi_2014_536)">
<path d="M140.122 153.376C140.122 131.936 138.828 120 144.66 120H240.284C246.117 120 246.307 134.862 246.307 156.303V195.782C246.307 217.222 245.333 228 239.501 228H145.568C139.735 228 140.123 216.064 140.123 194.624L140.122 153.376Z" fill="#030303"/>
<path d="M140.122 153.376C140.122 131.936 138.828 120 144.66 120H240.284C246.117 120 246.307 134.862 246.307 156.303V195.782C246.307 217.222 245.333 228 239.501 228H145.568C139.735 228 140.123 216.064 140.123 194.624L140.122 153.376Z" fill="url(#paint0_radial_2014_536)"/>
<path d="M140.122 153.376C140.122 131.936 138.828 120 144.66 120H240.284C246.117 120 246.307 134.862 246.307 156.303V195.782C246.307 217.222 245.333 228 239.501 228H145.568C139.735 228 140.123 216.064 140.123 194.624L140.122 153.376Z" fill="url(#paint1_radial_2014_536)"/>
<path d="M140.122 153.376C140.122 131.936 138.828 120 144.66 120H240.284C246.117 120 246.307 134.862 246.307 156.303V195.782C246.307 217.222 245.333 228 239.501 228H145.568C139.735 228 140.123 216.064 140.123 194.624L140.122 153.376Z" fill="url(#paint2_radial_2014_536)"/>
<path d="M140.122 153.376C140.122 131.936 138.828 120 144.66 120H240.284C246.117 120 246.307 134.862 246.307 156.303V195.782C246.307 217.222 245.333 228 239.501 228H145.568C139.735 228 140.123 216.064 140.123 194.624L140.122 153.376Z" fill="url(#paint3_radial_2014_536)" fill-opacity="0.5"/>
<path d="M140.122 153.376C140.122 131.936 138.828 120 144.66 120H240.284C246.117 120 246.307 134.862 246.307 156.303V195.782C246.307 217.222 245.333 228 239.501 228H145.568C139.735 228 140.123 216.064 140.123 194.624L140.122 153.376Z" fill="#030303"/>
<path d="M140.122 153.376C140.122 131.936 138.828 120 144.66 120H240.284C246.117 120 246.307 134.862 246.307 156.303V195.782C246.307 217.222 245.333 228 239.501 228H145.568C139.735 228 140.123 216.064 140.123 194.624L140.122 153.376Z" fill="url(#paint4_radial_2014_536)"/>
<path d="M140.122 153.376C140.122 131.936 138.828 120 144.66 120H240.284C246.117 120 246.307 134.862 246.307 156.303V195.782C246.307 217.222 245.333 228 239.501 228H145.568C139.735 228 140.123 216.064 140.123 194.624L140.122 153.376Z" fill="url(#paint5_radial_2014_536)"/>
<path d="M140.122 153.376C140.122 131.936 138.828 120 144.66 120H240.284C246.117 120 246.307 134.862 246.307 156.303V195.782C246.307 217.222 245.333 228 239.501 228H145.568C139.735 228 140.123 216.064 140.123 194.624L140.122 153.376Z" fill="url(#paint6_radial_2014_536)"/>
<path d="M140.122 153.376C140.122 131.936 138.828 120 144.66 120H240.284C246.117 120 246.307 134.862 246.307 156.303V195.782C246.307 217.222 245.333 228 239.501 228H145.568C139.735 228 140.123 216.064 140.123 194.624L140.122 153.376Z" fill="url(#paint7_radial_2014_536)" fill-opacity="0.5"/>
<path d="M143.052 143.253C143.086 146.308 143.122 149.678 143.122 153.376L143.123 194.624C143.123 195.914 143.121 197.166 143.12 198.379C143.111 207.358 143.104 214.219 143.64 219.019C143.947 221.771 144.399 223.452 144.897 224.376C145.125 224.799 145.292 224.928 145.333 224.956L143.052 143.253ZM143.052 143.253C142.987 137.282 142.935 132.516 143.196 128.862M143.052 143.253L143.196 128.862M143.196 128.862C143.395 126.082 143.758 124.408 144.195 123.5M143.196 128.862L144.195 123.5M144.195 123.5C144.291 123.298 144.375 123.173 144.433 123.098M144.195 123.5L144.433 123.098M144.433 123.098C144.462 123.062 144.483 123.039 144.497 123.026M144.433 123.098L144.497 123.026M144.497 123.026C144.503 123.02 144.508 123.015 144.512 123.013M144.497 123.026L144.512 123.013M144.512 123.013C144.528 123.009 144.574 123 144.66 123M144.512 123.013L144.66 123M144.66 123H240.284C240.297 123 240.302 122.998 240.307 122.999M144.66 123L240.307 122.999M240.307 122.999C240.315 123 240.321 123.005 240.35 123.028M240.307 122.999L240.35 123.028M240.35 123.028C240.45 123.108 240.69 123.354 240.987 123.966M240.35 123.028L240.987 123.966M240.987 123.966C241.601 125.233 242.126 127.355 242.505 130.473M240.987 123.966L242.505 130.473M242.505 130.473C243.255 136.648 243.307 145.518 243.307 156.303M242.505 130.473L243.307 156.303M243.307 156.303V195.782C243.307 206.544 243.056 214.33 242.139 219.397M243.307 156.303L242.139 219.397M242.139 219.397C241.677 221.95 241.1 223.474 240.541 224.298M242.139 219.397L240.541 224.298M240.541 224.298C240.097 224.954 239.812 225 239.501 225M240.541 224.298L239.501 225M239.501 225H145.568C145.395 225 145.35 224.968 145.336 224.958L239.501 225Z" stroke="white" stroke-width="6"/>
</g>
<g filter="url(#filter1_dddi_2014_536)">
<path d="M163.077 162.979C163.077 151.734 161.914 142.617 165.515 142.617H221.398C225 142.617 224.208 154.975 224.208 166.22L224.208 185.744C224.208 196.99 224.708 204.976 221.106 204.976H165.515C161.914 204.976 163.076 196.99 163.076 185.744L163.077 162.979Z" fill="white" fill-opacity="0.46" shape-rendering="crispEdges"/>
<path d="M163.077 162.979C163.077 151.734 161.914 142.617 165.515 142.617H221.398C225 142.617 224.208 154.975 224.208 166.22L224.208 185.744C224.208 196.99 224.708 204.976 221.106 204.976H165.515C161.914 204.976 163.076 196.99 163.076 185.744L163.077 162.979Z" fill="white" fill-opacity="0.46" shape-rendering="crispEdges"/>
<path d="M165.154 162.979C165.154 160.491 165.1 158.186 165.052 156.078C164.987 153.245 164.93 150.766 165.02 148.671C165.099 146.857 165.286 145.657 165.553 144.965C165.601 144.839 165.644 144.752 165.677 144.694H221.1C221.172 144.818 221.272 145.029 221.381 145.364C221.726 146.43 221.956 148.101 222.08 150.318C222.25 153.352 222.211 157.009 222.17 160.861C222.151 162.62 222.131 164.421 222.131 166.22L222.131 185.744C222.131 187.061 222.138 188.319 222.144 189.517C222.164 193.533 222.181 196.86 221.94 199.38C221.783 201.029 221.533 202.06 221.251 202.628C221.176 202.778 221.117 202.859 221.083 202.899H165.605C165.583 202.861 165.555 202.807 165.523 202.732C165.284 202.176 165.098 201.151 165.02 199.48C164.931 197.573 164.985 195.295 165.049 192.617C165.099 190.565 165.153 188.279 165.153 185.744L165.154 162.979Z" stroke="white" stroke-width="4.15393" shape-rendering="crispEdges"/>
</g>
<path d="M186.167 167.333C186.167 171.856 189.917 175.556 194.5 175.556C199.083 175.556 202.833 171.856 202.833 167.333C202.833 162.811 199.083 159.111 194.5 159.111C189.917 159.111 186.167 162.811 186.167 167.333ZM202.833 179.667V176.542C200.583 178.516 197.667 179.667 194.5 179.667C187.583 179.667 182 174.158 182 167.333C182 160.509 187.583 155 194.5 155C201.417 155 207 160.509 207 167.333V179.667C207 186.491 201.417 192 194.5 192H186.167V187.889H194.5C199.083 187.889 202.833 184.189 202.833 179.667Z" fill="black"/>
<defs>
<filter id="filter0_dddi_2014_536" x="0" y="0" width="426.307" height="428" filterUnits="userSpaceOnUse" color-interpolation-filters="sRGB">
<feFlood flood-opacity="0" result="BackgroundImageFix"/>
<feColorMatrix in="SourceAlpha" type="matrix" values="0 0 0 0 0 0 0 0 0 0 0 0 0 0 0 0 0 0 127 0" result="hardAlpha"/>
<feOffset dx="20" dy="40"/>
<feGaussianBlur stdDeviation="80"/>
<feComposite in2="hardAlpha" operator="out"/>
<feColorMatrix type="matrix" values="0 0 0 0 0.384314 0 0 0 0 0.368627 0 0 0 0 0.615686 0 0 0 0.3 0"/>
<feBlend mode="normal" in2="BackgroundImageFix" result="effect1_dropShadow_2014_536"/>
<feColorMatrix in="SourceAlpha" type="matrix" values="0 0 0 0 0 0 0 0 0 0 0 0 0 0 0 0 0 0 127 0" result="hardAlpha"/>
<feOffset dx="-20" dy="-20"/>
<feGaussianBlur stdDeviation="50"/>
<feComposite in2="hardAlpha" operator="out"/>
<feColorMatrix type="matrix" values="0 0 0 0 0.64707 0 0 0 0 0.450537 0 0 0 0 0.632829 0 0 0 0.5 0"/>
<feBlend mode="normal" in2="effect1_dropShadow_2014_536" result="effect2_dropShadow_2014_536"/>
<feColorMatrix in="SourceAlpha" type="matrix" values="0 0 0 0 0 0 0 0 0 0 0 0 0 0 0 0 0 0 127 0" result="hardAlpha"/>
<feOffset dy="40"/>
<feGaussianBlur stdDeviation="30"/>
<feComposite in2="hardAlpha" operator="out"/>
<feColorMatrix type="matrix" values="0 0 0 0 0.0313726 0 0 0 0 0.0196078 0 0 0 0 0.207843 0 0 0 0.3 0"/>
<feBlend mode="normal" in2="effect2_dropShadow_2014_536" result="effect3_dropShadow_2014_536"/>
<feBlend mode="normal" in="SourceGraphic" in2="effect3_dropShadow_2014_536" result="shape"/>
<feColorMatrix in="SourceAlpha" type="matrix" values="0 0 0 0 0 0 0 0 0 0 0 0 0 0 0 0 0 0 127 0" result="hardAlpha"/>
<feOffset/>
<feGaussianBlur stdDeviation="30"/>
<feComposite in2="hardAlpha" operator="arithmetic" k2="-1" k3="1"/>
<feColorMatrix type="matrix" values="0 0 0 0 1 0 0 0 0 1 0 0 0 0 1 0 0 0 0.72 0"/>
<feBlend mode="normal" in2="shape" result="effect4_innerShadow_2014_536"/>
</filter>
<filter id="filter1_dddi_2014_536" x="65.9725" y="59.5386" width="282.928" height="283.902" filterUnits="userSpaceOnUse" color-interpolation-filters="sRGB">
<feFlood flood-opacity="0" result="BackgroundImageFix"/>
<feColorMatrix in="SourceAlpha" type="matrix" values="0 0 0 0 0 0 0 0 0 0 0 0 0 0 0 0 0 0 127 0" result="hardAlpha"/>
<feOffset dx="13.8464" dy="27.6929"/>
<feGaussianBlur stdDeviation="55.3857"/>
<feComposite in2="hardAlpha" operator="out"/>
<feColorMatrix type="matrix" values="0 0 0 0 0.384314 0 0 0 0 0.368627 0 0 0 0 0.615686 0 0 0 0.3 0"/>
<feBlend mode="normal" in2="BackgroundImageFix" result="effect1_dropShadow_2014_536"/>
<feColorMatrix in="SourceAlpha" type="matrix" values="0 0 0 0 0 0 0 0 0 0 0 0 0 0 0 0 0 0 127 0" result="hardAlpha"/>
<feOffset dx="-13.8464" dy="-13.8464"/>
<feGaussianBlur stdDeviation="34.6161"/>
<feComposite in2="hardAlpha" operator="out"/>
<feColorMatrix type="matrix" values="0 0 0 0 0.64707 0 0 0 0 0.450537 0 0 0 0 0.632829 0 0 0 0.5 0"/>
<feBlend mode="normal" in2="effect1_dropShadow_2014_536" result="effect2_dropShadow_2014_536"/>
<feColorMatrix in="SourceAlpha" type="matrix" values="0 0 0 0 0 0 0 0 0 0 0 0 0 0 0 0 0 0 127 0" result="hardAlpha"/>
<feOffset dy="27.6929"/>
<feGaussianBlur stdDeviation="20.7696"/>
<feComposite in2="hardAlpha" operator="out"/>
<feColorMatrix type="matrix" values="0 0 0 0 0.0313726 0 0 0 0 0.0196078 0 0 0 0 0.207843 0 0 0 0.3 0"/>
<feBlend mode="normal" in2="effect2_dropShadow_2014_536" result="effect3_dropShadow_2014_536"/>
<feBlend mode="normal" in="SourceGraphic" in2="effect3_dropShadow_2014_536" result="shape"/>
<feColorMatrix in="SourceAlpha" type="matrix" values="0 0 0 0 0 0 0 0 0 0 0 0 0 0 0 0 0 0 127 0" result="hardAlpha"/>
<feOffset/>
<feGaussianBlur stdDeviation="20.7696"/>
<feComposite in2="hardAlpha" operator="arithmetic" k2="-1" k3="1"/>
<feColorMatrix type="matrix" values="0 0 0 0 1 0 0 0 0 1 0 0 0 0 1 0 0 0 0.72 0"/>
<feBlend mode="normal" in2="shape" result="effect4_innerShadow_2014_536"/>
</filter>
<radialGradient id="paint0_radial_2014_536" cx="0" cy="0" r="1" gradientUnits="userSpaceOnUse" gradientTransform="translate(186.509 86.25) rotate(75.581) scale(123.709 16.3616)">
<stop offset="0.212469" stop-color="#181118" stop-opacity="0.53"/>
<stop offset="1"/>
</radialGradient>
<radialGradient id="paint1_radial_2014_536" cx="0" cy="0" r="1" gradientUnits="userSpaceOnUse" gradientTransform="translate(160.537 163.875) rotate(32.1939) scale(101.354 49.2137)">
<stop stop-color="#625E9D"/>
<stop offset="1" stop-color="#080535" stop-opacity="0.56"/>
</radialGradient>
<radialGradient id="paint2_radial_2014_536" cx="0" cy="0" r="1" gradientUnits="userSpaceOnUse" gradientTransform="translate(207.65 106.5) rotate(91.4822) scale(140.109 139.049)">
<stop stop-color="#625E9D"/>
<stop offset="1" stop-color="#56544A" stop-opacity="0.12"/>
</radialGradient>
<radialGradient id="paint3_radial_2014_536" cx="0" cy="0" r="1" gradientUnits="userSpaceOnUse" gradientTransform="translate(156.309 162.187) rotate(60.7577) scale(75.4245 136.973)">
<stop stop-color="#080535"/>
<stop offset="1" stop-color="white"/>
</radialGradient>
<radialGradient id="paint4_radial_2014_536" cx="0" cy="0" r="1" gradientUnits="userSpaceOnUse" gradientTransform="translate(185.502 77.4013) rotate(75.6825) scale(136.122 17.8873)">
<stop offset="0.212469" stop-color="#181118" stop-opacity="0.53"/>
<stop offset="1"/>
</radialGradient>
<radialGradient id="paint5_radial_2014_536" cx="0" cy="0" r="1" gradientUnits="userSpaceOnUse" gradientTransform="translate(157.12 162.854) rotate(32.3846) scale(110.988 54.0626)">
<stop stop-color="#080535"/>
<stop offset="1" stop-color="#625E9D" stop-opacity="0.88"/>
</radialGradient>
<radialGradient id="paint6_radial_2014_536" cx="0" cy="0" r="1" gradientUnits="userSpaceOnUse" gradientTransform="translate(208.604 99.6932) rotate(91.4713) scale(154.237 151.947)">
<stop stop-color="#EFAAEA"/>
<stop offset="1" stop-color="#56544A" stop-opacity="0.12"/>
</radialGradient>
<radialGradient id="paint7_radial_2014_536" cx="0" cy="0" r="1" gradientUnits="userSpaceOnUse" gradientTransform="translate(152.5 160.996) rotate(60.9373) scale(82.8852 149.94)">
<stop stop-color="#EFAAEA"/>
<stop offset="1" stop-color="#625E9D"/>
</radialGradient>
</defs>
</svg>
