<svg width="259" height="388" viewBox="0 0 259 388" fill="none" xmlns="http://www.w3.org/2000/svg">
<path d="M222.243 190.099L222.243 195.602L204.692 205.92L207.79 181.845M222.243 190.099L244.955 171.871L257 145.388L257 134.038L244.955 134.038L244.955 145.388L222.243 165.336L216.393 173.246L226.528 186.66L238.099 177.374L222.243 190.099ZM206.02 195.602L207.79 181.845M207.79 181.845L220.522 169.119M170.968 202.825L185.077 202.825L197.466 218.645L197.466 236.186L181.98 260.949L170.968 260.949L160.988 268.859L147.223 268.859L147.223 247.536L138.276 232.403M170.968 202.825L147.223 218.645L138.276 232.403M170.968 202.825L178.539 190.099L170.968 177.374L160.988 177.374M138.276 232.403L126.919 228.619L126.919 218.645L138.276 205.92L143.782 190.099M143.782 190.099L156.514 177.374L160.988 177.374M143.782 190.099L116.251 195.602L120.037 181.845L100.421 190.099L100.421 202.825L90.7858 210.391L100.421 222.429L120.037 236.186L132.081 268.859L126.919 280.897L111.778 274.018L107.304 287.432L90.7857 298.094L62.5672 280.897L62.5672 260.949L52.2433 245.472L49.1462 232.403L34.6927 222.429L30.9073 214.174L34.6928 205.92L40.1988 181.845L49.1462 177.374L62.5672 160.521L78.053 157.082L68.7615 145.388L90.7858 140.229L120.037 134.038L138.276 140.229L147.223 134.038L164.773 145.388L164.773 151.579L170.968 160.521L160.988 177.374M103.863 12.2862L116.251 2.99999L120.037 8.15897L126.919 17.7891L132.081 39.1129L126.919 53.558L138.276 69.3789L139.652 87.2634L143.782 97.2374L138.276 108.587L138.276 114.778L120.037 114.778L107.992 108.587L111.778 101.708L111.778 87.2634L116.251 82.1044L107.992 72.4743L107.304 57.3413L105.239 44.9597L105.239 33.9539L100.421 22.6041L105.239 10.9104M170.968 134.038L170.968 114.778L181.98 101.709L185.077 69.3789L193.336 49.4308L188.862 22.6041L185.077 17.7891L170.968 27.0752L170.968 39.1129L164.773 53.558L164.773 69.3789L164.773 90.3587L151.008 108.587L156.514 123.72L170.968 134.038ZM90.7858 127.503L94.5712 123.72L90.7858 108.587L71.8587 98.6131L62.5672 108.587L68.7615 123.72L71.8587 134.038L90.7858 127.503ZM71.8587 90.3587L78.053 87.2633L71.8587 69.3789L62.5672 65.5956L73.9235 60.0927L68.7615 44.9597L73.9235 39.1129L71.8587 27.0752L62.5672 22.6041L57.4053 27.0752L52.2433 27.0752L49.1462 39.1129L49.1462 44.9597L57.4053 65.5956L57.4053 76.9454L62.5672 87.2633L61.1907 94.142L68.7615 94.142L71.8587 90.3587ZM38.134 157.082L40.1988 148.483L38.134 140.229L30.9073 137.821L32.628 129.567L24.3689 118.217L24.3689 105.836L27.1219 98.6131L24.3689 94.142L18.5187 87.2633L14.3892 83.824L9.22722 83.824L5.09769 85.5437L2.00053 94.142L2.00053 101.708L2.00052 114.778L5.09769 121.313L9.22721 134.038L18.5187 140.229L25.0572 144.012L25.0572 157.082L30.9073 160.521L38.134 157.082Z" stroke="white" stroke-width="3.5"/>
</svg>
