<svg width="994" height="590" viewBox="0 0 994 590" fill="none" xmlns="http://www.w3.org/2000/svg">
<path d="M744.601 298.89L742.945 303.52L754.605 317.484L759.246 296.296M744.601 298.89L730.979 276.716L728.818 250.809L732.234 241.26L742.368 244.886L738.951 254.435L752.056 278.055L754.596 286.472L742.031 294.706L735.092 283.41L744.601 298.89ZM756.594 308.403L759.246 296.296M759.246 296.296L752.364 281.756M783.911 325.031L772.04 320.784L756.855 330.366L751.575 345.123L757.149 370.619L766.414 373.934L772.429 383.594L784.011 387.737L790.43 369.797L802.513 359.758M783.911 325.031L799.126 345.49L802.513 359.758M783.911 325.031L781.372 312.046L791.572 303.618L799.969 306.622M802.513 359.758L813.206 359.993L816.209 351.602L810.485 337.477L810.615 322.508M810.615 322.508L803.733 307.969L799.969 306.622M810.615 322.508L832.121 335.425L833.077 322.711L847.096 335.561L843.265 346.267L849.094 355.534L837.364 362.761L816.719 368.431L796.75 392.295L797.47 403.977L812.28 402.748L812.006 415.38L822.694 429.322L851.612 423.348L857.617 406.565L870.962 396.651L877.502 386.588L892.664 382.547L898.334 376.742L897.634 368.657L900.249 346.744L894.067 340.289L887.848 322.07L875.854 314.515L887.192 307.473L870.215 296.503L847.468 282.489L830.259 282.208L824.595 274.306L806.412 278.572L804.549 283.78L796.645 289.439L799.969 306.622M897.726 184.922L890.098 173.38L885.36 176.581L876.671 182.612L865.909 198.999L865.904 212.706L851.587 222.598L845.045 237.231L838.568 244.379L839.784 255.586L837.921 260.795L853.266 266.285L865.263 264.702L864.149 257.775L868.497 245.622L866.286 239.935L876.134 234.318L881.268 221.793L886.732 211.998L890.045 202.738L897.515 194.639L896.982 183.351M804.617 267.158L810.415 250.953L805.084 236.643L812.21 208.51L811.266 189.24L823.106 168.017L827.74 165.105L836.815 177.165L833.192 187.293L834.055 201.311L829.293 214.622L822.977 232.273L829.071 251.753L819.884 262.828L804.617 267.158ZM874.045 285.797L871.999 281.474L879.74 269.881L898.666 267.187L903.481 278.376L893.714 289.243L888.002 296.992L874.045 285.797ZM901.151 260.242L896.871 255.774L907.466 242.591L916.423 242.205L908.525 234.157L917.423 222.978L914.84 216.505L920.201 206.999L929.364 206.034L932.361 211.35L936.704 212.904L935.686 223.964L933.926 228.883L920.766 243.759L917.349 253.308L909.9 260.435L908.988 266.637L902.618 264.358L901.151 260.242ZM909.44 326.531L910.291 318.676L914.513 312.352L921.318 312.502L922.355 305.04L932.72 297.977L936.447 287.559L936.305 280.654L939.968 277.721L946.96 273.695L951.47 272.044L955.813 273.598L958.77 276.288L958.787 284.454L956.509 290.82L952.575 301.816L948.002 306.382L940.697 315.845L931.016 318.257L924.376 319.472L920.442 330.468L914.485 331.601L909.44 326.531Z" stroke="url(#paint0_linear_2092_257)" stroke-opacity="0.2" stroke-width="3.5"/>
<path d="M100.442 318.573L98.7857 323.203L110.446 337.167L115.087 315.979M100.442 318.573L86.8203 296.4L84.6586 270.493L88.0751 260.944L98.2087 264.57L94.7922 274.119L107.896 297.739L110.437 306.155L97.872 314.39L90.9326 303.094L100.442 318.573ZM112.435 328.087L115.087 315.979M115.087 315.979L108.205 301.44M139.752 344.715L127.881 340.468L112.695 350.049L107.415 364.807L112.99 390.303L122.255 393.618L128.27 403.277L139.852 407.421L146.27 389.48L158.354 379.441M139.752 344.715L154.967 365.173L158.354 379.441M139.752 344.715L137.213 331.729L147.413 323.302L155.81 326.306M158.354 379.441L169.047 379.677L172.049 371.285L166.326 357.16L166.456 342.192M166.456 342.192L159.573 327.653L155.81 326.306M166.456 342.192L187.962 355.109L188.918 342.395L202.937 355.244L199.106 365.951L204.935 375.217L193.205 382.445L172.56 388.115L152.591 411.979L153.31 423.661L168.12 422.431L167.847 435.063L178.535 449.006L207.453 443.032L213.458 426.249L226.802 416.335L233.342 406.271L248.505 402.231L254.175 396.425L253.475 388.341L256.089 366.428L249.907 359.973L243.689 341.754L231.695 334.199L243.033 327.157L226.055 316.187L203.309 302.173L186.1 301.891L180.436 293.989L162.253 298.255L160.39 303.464L152.486 309.123L155.81 326.306M253.567 204.606L245.939 193.064L241.201 196.265L232.512 202.295L221.75 218.682L221.744 232.389L207.428 242.282L200.886 256.914L194.409 264.063L195.625 275.27L193.761 280.478L209.107 285.968L221.104 284.385L219.99 277.459L224.338 265.305L222.127 259.618L231.975 254.002L237.109 241.477L242.573 231.681L245.886 222.422L253.356 214.323L252.823 203.034M160.458 286.842L166.256 270.637L160.925 256.326L168.051 228.193L167.107 208.924L178.947 187.7L183.581 184.788L192.656 196.849L189.033 206.976L189.896 220.994L185.134 234.305L178.818 251.957L184.912 271.437L175.724 282.511L160.458 286.842ZM229.886 305.48L227.84 301.158L235.58 289.565L254.507 286.871L259.322 298.059L249.555 308.927L243.843 316.676L229.886 305.48ZM256.992 279.926L252.712 275.457L263.307 262.275L272.263 261.889L264.365 253.84L273.264 242.662L270.681 236.189L276.042 226.683L285.205 225.718L288.202 231.033L292.545 232.587L291.527 243.647L289.767 248.567L276.606 263.442L273.19 272.992L265.741 280.119L264.828 286.32L258.459 284.041L256.992 279.926ZM265.281 346.215L266.132 338.359L270.354 332.036L277.159 332.186L278.196 324.723L288.561 317.66L292.288 307.243L292.146 300.338L295.808 297.405L302.801 293.378L307.311 291.728L311.654 293.282L314.61 295.971L314.628 304.138L312.35 310.504L308.416 321.5L303.843 326.066L296.538 335.529L286.857 337.941L280.217 339.156L276.283 350.151L270.326 351.284L265.281 346.215Z" stroke="url(#paint1_linear_2092_257)" stroke-opacity="0.2" stroke-width="3.5"/>
<path d="M326.995 293.401L324.961 299.087L339.28 316.234L344.979 290.216M326.995 293.401L310.267 266.172L307.613 234.359L311.808 222.633L324.252 227.085L320.057 238.811L336.149 267.817L339.269 278.152L323.839 288.264L315.317 274.392L326.995 293.401ZM341.722 305.083L344.979 290.216M344.979 290.216L336.528 272.361M375.267 325.503L360.69 320.287L342.042 332.053L335.558 350.176L342.404 381.485L353.781 385.555L361.168 397.417L375.389 402.505L383.272 380.474L398.11 368.147M375.267 325.503L393.951 350.626L398.11 368.147M375.267 325.503L372.149 309.557L384.675 299.208L394.986 302.897M398.11 368.147L411.241 368.436L414.928 358.131L407.899 340.786L408.059 322.405M408.059 322.405L399.608 304.55L394.986 302.897M408.059 322.405L434.468 338.267L435.643 322.654L452.857 338.433L448.153 351.58L455.312 362.96L440.907 371.835L415.555 378.798L391.033 408.103L391.917 422.448L410.103 420.938L409.767 436.45L422.892 453.571L458.403 446.236L465.777 425.626L482.165 413.452L490.196 401.094L508.815 396.132L515.778 389.003L514.918 379.075L518.129 352.166L510.537 344.239L502.901 321.867L488.173 312.589L502.095 303.942L481.247 290.47L453.315 273.262L432.182 272.916L425.227 263.212L402.899 268.451L400.61 274.847L390.905 281.796L394.986 302.897M515.031 153.45L505.664 139.276L499.846 143.207L489.176 150.612L475.96 170.735L475.954 187.568L458.372 199.716L450.339 217.684L442.386 226.463L443.879 240.224L441.59 246.62L460.434 253.363L475.167 251.419L473.798 242.913L479.138 227.988L476.423 221.005L488.516 214.108L494.821 198.727L501.531 186.698L505.599 175.328L514.773 165.382L514.118 151.52M400.694 254.435L407.814 234.536L401.268 216.962L410.018 182.415L408.859 158.753L423.398 132.69L429.089 129.114L440.233 143.924L435.784 156.361L436.844 173.575L430.995 189.921L423.24 211.596L430.724 235.518L419.441 249.117L400.694 254.435ZM485.951 277.323L483.439 272.015L492.944 257.779L516.186 254.471L522.098 268.21L510.105 281.555L503.091 291.071L485.951 277.323ZM519.237 245.943L513.981 240.455L526.992 224.267L537.99 223.793L528.292 213.909L539.219 200.183L536.047 192.234L542.63 180.56L553.882 179.375L557.563 185.903L562.896 187.811L561.646 201.393L559.485 207.433L543.324 225.701L539.128 237.427L529.981 246.179L528.86 253.795L521.038 250.996L519.237 245.943ZM529.416 327.345L530.461 317.698L535.645 309.933L544.002 310.117L545.275 300.953L558.004 292.28L562.581 279.488L562.406 271.008L566.903 267.406L575.49 262.462L581.028 260.435L586.361 262.343L589.992 265.646L590.014 275.675L587.217 283.492L582.386 296.995L576.77 302.602L567.8 314.223L555.911 317.184L547.758 318.676L542.926 332.179L535.611 333.57L529.416 327.345Z" stroke="url(#paint2_linear_2092_257)" stroke-opacity="0.2" stroke-width="3.5"/>
<path d="M201.252 238.305L202.202 242.465L190.716 253.296L188.901 234.561M201.252 238.305L215.274 220.604L219.806 198.505L217.846 189.925L208.741 192.005L210.701 200.585L196.976 219.586L193.919 226.576L203.897 234.966L211.041 225.948L201.252 238.305ZM189.938 245.267L188.901 234.561M188.901 234.561L196.329 222.743M164.688 256.779L175.354 254.343L187.45 264.163L190.479 277.423L183.048 298.816L174.724 300.718L168.545 308.421L158.14 310.798L154.458 294.678L145.081 284.783M164.688 256.779L149.47 272.838L145.081 284.783M164.688 256.779L168.214 245.852L160.293 237.539L152.749 239.262M145.081 284.783L135.843 283.884L134.121 276.344L140.509 264.763L141.939 251.853M141.939 251.853L149.367 240.035L152.749 239.262M141.939 251.853L122.078 260.766L122.564 249.713L109.161 259.34L111.358 268.96L105.381 276.343L114.743 283.779L131.947 290.792L146.693 313.412L144.87 323.403L132.236 320.818L131.17 331.73L120.524 342.642L96.223 334.514L92.7787 319.435L82.3021 309.518L77.7041 300.173L65.056 295.128L60.7691 289.542L62.2055 282.649L62.2108 263.498L68.2025 258.573L75.4382 243.516L86.5508 238.243L77.5079 231.007L93.2662 223.304L114.309 213.574L129.166 215.105L134.861 208.88L150.088 214.429L151.157 219.109L157.383 224.799L152.749 239.262M81.0604 124.329L88.8222 115.17L92.5745 118.416L99.4402 124.507L107.024 139.736L105.616 151.547L116.933 161.546L121.061 174.828L125.905 181.655L123.703 191.185L124.771 195.865L110.984 199.014L100.81 196.414L102.484 190.56L99.9897 179.641L102.481 174.968L94.5745 169.115L91.4413 157.794L87.7426 148.79L85.8423 140.471L80.2405 132.723L81.8634 123.051M152.811 204.78L149.485 190.22L155.553 178.439L152.312 153.465L155.111 136.959L147.097 117.452L143.404 114.466L134.342 123.922L136.42 133.021L134.232 145.011L136.964 156.97L140.586 172.83L133.328 188.987L140.103 199.476L152.811 204.78ZM91.069 213.685L93.2773 210.171L87.8028 199.385L71.7728 195.113L66.4711 204.257L73.7666 214.627L77.8894 221.893L91.069 213.685ZM70.3475 188.873L74.4956 185.464L66.725 173.014L59.0479 171.758L66.6825 165.637L60.1674 155.089L63.06 149.778L59.4207 141.034L51.6248 139.259L48.4947 143.53L44.5925 144.421L44.3297 154.056L45.3392 158.476L55.1458 172.649L57.1055 181.229L62.7892 188.138L62.9363 193.575L68.6595 192.268L70.3475 188.873ZM56.3742 245.135L56.4504 238.279L53.4643 232.395L47.5856 231.823L47.4611 225.286L39.258 218.133L37.1201 208.773L37.9542 202.838L35.101 199.933L29.4909 195.743L25.7753 193.856L21.8732 194.748L19.0484 196.761L18.1917 203.795L19.4982 209.515L21.7548 219.395L25.2244 223.8L30.5434 232.707L38.6362 235.782L44.2321 237.513L46.4888 247.393L51.5051 248.983L56.3742 245.135Z" stroke="url(#paint3_linear_2092_257)" stroke-opacity="0.2" stroke-width="3.5"/>
<path d="M701.178 364.745L701.913 367.961L693.033 376.334L691.63 361.851M701.178 364.745L712.018 351.061L715.522 333.976L714.007 327.343L706.968 328.951L708.483 335.584L697.873 350.274L695.51 355.677L703.223 362.163L708.746 355.192L701.178 364.745ZM692.432 370.127L691.63 361.851M691.63 361.851L697.372 352.714M672.911 379.027L681.157 377.143L690.509 384.736L692.85 394.986L687.105 411.525L680.67 412.995L675.894 418.95L667.849 420.788L665.003 408.326L657.754 400.676M672.911 379.027L661.146 391.442L657.754 400.676M672.911 379.027L675.637 370.579L669.514 364.153L663.682 365.485M657.754 400.676L650.612 399.981L649.281 394.152L654.219 385.2L655.325 375.219M655.325 375.219L661.067 366.082L663.682 365.485M655.325 375.219L639.97 382.11L640.346 373.564L629.985 381.007L631.683 388.444L627.062 394.152L634.3 399.9L647.6 405.322L659 422.809L657.59 430.533L647.823 428.534L646.999 436.97L638.769 445.406L619.982 439.123L617.32 427.465L609.22 419.798L605.666 412.574L595.888 408.674L592.574 404.355L593.684 399.026L593.688 384.222L598.32 380.414L603.914 368.774L612.505 364.697L605.514 359.103L617.697 353.148L633.965 345.626L645.45 346.809L649.853 341.997L661.624 346.287L662.451 349.905L667.264 354.304L663.682 365.485M608.26 276.632L614.261 269.551L617.162 272.061L622.47 276.77L628.333 288.543L627.244 297.674L635.993 305.404L639.184 315.672L642.929 320.95L641.226 328.318L642.053 331.935L631.394 334.37L623.528 332.36L624.823 327.835L622.894 319.393L624.82 315.781L618.708 311.255L616.286 302.503L613.426 295.543L611.957 289.111L607.627 283.121L608.881 275.644M663.729 338.827L661.158 327.572L665.849 318.464L663.344 299.157L665.508 286.396L659.312 271.316L656.457 269.007L649.451 276.317L651.058 283.352L649.366 292.621L651.478 301.867L654.279 314.128L648.667 326.618L653.905 334.727L663.729 338.827ZM615.998 345.711L617.705 342.995L613.473 334.657L601.08 331.354L596.982 338.423L602.622 346.44L605.809 352.057L615.998 345.711ZM599.979 326.53L603.185 323.894L597.178 314.269L591.243 313.299L597.145 308.567L592.108 300.412L594.345 296.306L591.531 289.547L585.504 288.174L583.084 291.476L580.068 292.165L579.865 299.614L580.645 303.03L588.226 313.988L589.741 320.621L594.135 325.962L594.249 330.165L598.674 329.155L599.979 326.53ZM589.176 370.025L589.235 364.725L586.926 360.177L582.382 359.734L582.285 354.681L575.944 349.15L574.291 341.914L574.936 337.326L572.73 335.08L568.393 331.841L565.521 330.383L562.504 331.072L560.32 332.628L559.658 338.066L560.668 342.488L562.412 350.126L565.095 353.532L569.207 360.417L575.463 362.795L579.789 364.133L581.534 371.771L585.412 373L589.176 370.025Z" stroke="url(#paint4_linear_2092_257)" stroke-opacity="0.2" stroke-width="3.5"/>
<path d="M385.086 222.382L382.98 226.018L367.435 226.119L378.694 211.397M385.086 222.382L407.069 219.029L425.161 206.139L429.505 198.64L421.546 194.031L417.203 201.53L394.562 206.019L387.669 209.008L389.233 221.749L400.432 220.041L385.086 222.382ZM372.26 219.81L378.694 211.397M378.694 211.397L391.977 207.861M346.336 211.168L355.659 216.568L357.79 231.762L351.078 243.352L331.369 253.788L324.093 249.574L314.472 250.982L305.377 245.714L313.537 231.625L313.416 218.202M346.336 211.168L324.592 212.535L313.416 218.202M346.336 211.168L356.208 205.657L356.075 194.352L349.481 190.533M313.416 218.202L307.36 211.356L311.177 204.766L323.55 200.703L333.242 192.357M333.242 192.357L346.525 188.821L349.481 190.533M333.242 192.357L312.946 185.457L320.712 177.816L304.592 175.764L299.722 184.172L290.46 185.484L292.22 197.126L299.917 213.722L295.372 239.92L287.355 245.899L279.982 235.559L271.893 242.71L256.899 243.434L244.834 221.273L252.468 208.092L251.569 193.915L254.524 184.094L248.79 171.973L249.448 165.07L255.108 161.065L267.959 147.264L275.582 147.734L290.899 141.734L302.447 145.388L300.783 134.105L317.309 139.125L339.006 146.228L348.688 157.298L356.969 156.631L364.223 170.847L361.854 174.937L362.524 183.216L349.481 190.533M374.91 59.5908L386.65 58.1958L387.177 63.0531L388.039 72.05L383.29 88.115L374.351 95.6843L375.801 110.484L369.866 122.828L368.778 130.998L360.797 136.391L358.428 140.481L346.376 133.502L340.787 124.802L345.921 121.705L351.448 112.161L356.379 110.464L354.607 100.94L359.943 90.6778L363.317 81.7066L367.528 74.4345L368.688 65.0915L376.346 59.2085M372.659 165.718L380.029 152.992L392.307 148.57L406.725 128.393L419.816 118.373L427.126 98.9356L426.467 94.3055L413.591 95.0421L408.984 102.996L399.364 110.17L393.309 120.624L385.281 134.486L369.21 141.263L367.057 153.369L372.659 165.718ZM322.179 130.716L326.128 129.665L329.418 118.217L320.729 104.384L310.773 107.419L309.074 119.788L307.172 127.791L322.179 130.716ZM323.887 98.9301L329.165 99.2553L331.916 85.0677L327.224 79.0123L336.834 79.722L339.214 67.7475L344.862 65.8596L348.104 57.1156L343.676 50.6057L338.554 51.5846L335.144 49.6093L328.491 56.3779L326.253 60.2412L323.814 77.037L319.47 84.5363L318.933 93.3292L315.391 97.3475L320.393 100.245L323.887 98.9301ZM276.071 130.112L280.725 125.22L282.52 118.976L278.666 114.62L282.962 109.824L281.848 99.1645L286.586 90.9834L291.169 87.2646L291.061 83.2568L289.828 76.473L288.415 72.6202L285.004 70.6449L281.618 70.2009L276.281 74.697L273.385 79.6966L268.384 88.3322L267.93 93.8352L265.789 103.824L269.559 111.47L272.432 116.472L267.43 125.107L269.98 129.619L276.071 130.112Z" stroke="url(#paint5_linear_2092_257)" stroke-opacity="0.2" stroke-width="3.5"/>
<path d="M795.286 271.816L792.917 275.907L775.429 276.021L788.096 259.458M795.286 271.816L820.017 268.044L840.371 253.544L845.257 245.107L836.304 239.922L831.418 248.358L805.947 253.409L798.193 256.77L799.953 271.104L812.551 269.183L795.286 271.816ZM780.858 268.923L788.096 259.458M788.096 259.458L803.039 255.48M751.693 259.201L762.181 265.275L764.579 282.369L757.028 295.408L734.856 307.148L726.67 302.408L715.846 303.991L705.614 298.065L714.794 282.215L714.658 267.114M751.693 259.201L727.232 260.739L714.658 267.114M751.693 259.201L762.799 253.001L762.65 240.283L755.232 235.986M714.658 267.114L707.845 259.412L712.139 251.998L726.059 247.428L736.963 238.038M736.963 238.038L751.906 234.06L755.232 235.986M736.963 238.038L714.13 230.277L722.866 221.68L704.732 219.371L699.253 228.831L688.833 230.307L690.814 243.403L699.472 262.074L694.359 291.547L685.339 298.273L677.045 286.641L667.945 294.686L651.077 295.5L637.504 270.569L646.092 255.74L645.081 239.791L648.405 228.743L641.955 215.107L642.695 207.341L649.062 202.835L663.519 187.309L672.095 187.838L689.327 181.088L702.319 185.198L700.446 172.506L719.038 178.153L743.447 186.143L754.339 198.597L763.656 197.847L771.815 213.84L769.15 218.441L769.905 227.755L755.232 235.986M783.839 88.6774L797.046 87.108L797.639 92.5725L798.609 102.694L793.266 120.767L783.21 129.282L784.841 145.932L778.165 159.818L776.94 169.01L767.961 175.077L765.296 179.679L751.739 171.827L745.451 162.04L751.226 158.556L757.445 147.818L762.991 145.909L760.997 135.195L767.001 123.65L770.796 113.558L775.534 105.376L776.839 94.8657L785.455 88.2474M781.306 208.07L789.598 193.753L803.41 188.779L819.63 166.08L834.357 154.807L842.581 132.94L841.84 127.731L827.354 128.56L822.172 137.508L811.349 145.579L804.538 157.339L795.506 172.934L777.426 180.558L775.004 194.178L781.306 208.07ZM724.517 168.693L728.959 167.511L732.66 154.632L722.885 139.07L711.684 142.484L709.774 156.399L707.634 165.403L724.517 168.693ZM726.439 132.934L732.376 133.3L735.471 117.339L730.193 110.526L741.003 111.325L743.681 97.8537L750.035 95.7297L753.683 85.8928L748.701 78.5692L742.939 79.6705L739.102 77.4483L731.617 85.063L729.1 89.4092L726.356 108.304L721.469 116.741L720.864 126.633L716.88 131.154L722.508 134.413L726.439 132.934ZM672.645 168.013L677.882 162.51L679.9 155.486L675.565 150.585L680.398 145.19L679.144 133.198L684.475 123.994L689.63 119.81L689.509 115.302L688.122 107.67L686.533 103.335L682.695 101.113L678.885 100.614L672.882 105.672L669.624 111.296L663.998 121.011L663.487 127.202L661.078 138.439L665.32 147.041L668.551 152.668L662.925 162.383L665.793 167.458L672.645 168.013Z" stroke="url(#paint6_linear_2092_257)" stroke-opacity="0.2" stroke-width="3.5"/>
<path d="M641.002 153.658L641.601 156.281L634.359 163.11L633.214 151.297M641.002 153.658L649.844 142.496L652.702 128.561L651.466 123.151L645.725 124.462L646.961 129.872L638.306 141.854L636.379 146.261L642.671 151.552L647.175 145.865L641.002 153.658ZM633.868 158.047L633.214 151.297M633.214 151.297L637.898 143.845M617.946 165.307L624.672 163.77L632.3 169.963L634.209 178.324L629.524 191.814L624.274 193.013L620.379 197.871L613.817 199.369L611.495 189.205L605.583 182.965M617.946 165.307L608.35 175.433L605.583 182.965M617.946 165.307L620.169 158.416L615.175 153.175L610.418 154.261M605.583 182.965L599.758 182.398L598.672 177.644L602.699 170.341L603.601 162.201M603.601 162.201L608.285 154.748L610.418 154.261M603.601 162.201L591.077 167.821L591.384 160.851L582.933 166.921L584.318 172.987L580.549 177.643L586.453 182.332L597.301 186.754L606.599 201.018L605.449 207.318L597.483 205.688L596.811 212.569L590.098 219.449L574.774 214.324L572.602 204.816L565.996 198.562L563.097 192.669L555.121 189.489L552.418 185.966L553.324 181.619L553.327 169.544L557.105 166.438L561.668 156.944L568.675 153.618L562.973 149.056L572.91 144.199L586.179 138.063L595.547 139.028L599.138 135.103L608.74 138.602L609.414 141.553L613.34 145.141L610.418 154.261M565.213 81.7873L570.107 76.0119L572.474 78.0589L576.803 81.9L581.585 91.5026L580.697 98.9503L587.833 105.255L590.436 113.631L593.491 117.935L592.102 123.945L592.776 126.896L584.082 128.882L577.667 127.242L578.722 123.551L577.149 116.665L578.72 113.719L573.735 110.028L571.759 102.889L569.427 97.2122L568.228 91.9659L564.696 87.0803L565.719 80.9816M610.457 132.518L608.36 123.337L612.186 115.908L610.142 100.16L611.907 89.7516L606.854 77.451L604.525 75.5679L598.811 81.5306L600.121 87.2687L598.741 94.8288L600.464 102.37L602.748 112.371L598.171 122.559L602.444 129.173L610.457 132.518ZM571.524 138.133L572.917 135.917L569.465 129.116L559.357 126.422L556.013 132.188L560.614 138.727L563.214 143.308L571.524 138.133ZM558.458 122.487L561.073 120.337L556.174 112.487L551.333 111.695L556.147 107.835L552.039 101.184L553.863 97.8347L551.568 92.3214L546.652 91.2018L544.678 93.8951L542.217 94.4571L542.052 100.532L542.688 103.319L548.872 112.257L550.108 117.667L553.692 122.023L553.785 125.452L557.393 124.628L558.458 122.487ZM549.647 157.964L549.695 153.641L547.812 149.931L544.105 149.57L544.026 145.448L538.854 140.937L537.506 135.035L538.032 131.293L536.232 129.461L532.695 126.819L530.352 125.629L527.891 126.191L526.11 127.461L525.57 131.897L526.394 135.503L527.817 141.733L530.004 144.511L533.358 150.127L538.462 152.067L541.99 153.158L543.413 159.388L546.576 160.391L549.647 157.964Z" stroke="url(#paint7_linear_2092_257)" stroke-opacity="0.2" stroke-width="3.5"/>
<path d="M744.601 298.89L742.945 303.52L754.605 317.484L759.247 296.296M744.601 298.89L730.979 276.716L728.818 250.809L732.234 241.26L742.368 244.886L738.951 254.435L752.056 278.055L754.596 286.472L742.031 294.706L735.092 283.41L744.601 298.89ZM756.594 308.403L759.247 296.296M759.247 296.296L752.364 281.756M783.911 325.031L772.04 320.784L756.855 330.366L751.575 345.123L757.149 370.619L766.414 373.934L772.429 383.594L784.011 387.737L790.43 369.797L802.513 359.758M783.911 325.031L799.126 345.49L802.513 359.758M783.911 325.031L781.372 312.046L791.572 303.618L799.969 306.622M802.513 359.758L813.206 359.993L816.209 351.602L810.485 337.477L810.615 322.508M810.615 322.508L803.733 307.969L799.969 306.622M810.615 322.508L832.121 335.425L833.077 322.711L847.096 335.561L843.265 346.267L849.094 355.534L837.364 362.761L816.719 368.431L796.75 392.295L797.47 403.977L812.28 402.748L812.006 415.38L822.694 429.322L851.612 423.348L857.617 406.565L870.962 396.651L877.502 386.588L892.664 382.547L898.334 376.742L897.634 368.657L900.249 346.744L894.067 340.289L887.848 322.07L875.854 314.515L887.192 307.473L870.215 296.503L847.468 282.489L830.259 282.208L824.595 274.306L806.412 278.572L804.549 283.78L796.645 289.439L799.969 306.622M897.726 184.922L890.098 173.38L885.36 176.581L876.671 182.612L865.909 198.999L865.904 212.706L851.587 222.598L845.045 237.231L838.568 244.379L839.784 255.586L837.921 260.795L853.266 266.285L865.263 264.702L864.149 257.775L868.497 245.622L866.286 239.935L876.134 234.318L881.268 221.793L886.732 211.998L890.045 202.738L897.515 194.639L896.982 183.351M804.617 267.158L810.415 250.953L805.084 236.643L812.21 208.51L811.266 189.24L823.106 168.017L827.74 165.105L836.815 177.165L833.192 187.293L834.055 201.311L829.293 214.622L822.977 232.273L829.071 251.753L819.884 262.828L804.617 267.158ZM874.045 285.797L871.999 281.474L879.74 269.881L898.666 267.187L903.481 278.376L893.714 289.243L888.002 296.992L874.045 285.797ZM901.151 260.242L896.871 255.774L907.466 242.591L916.423 242.205L908.525 234.157L917.423 222.978L914.84 216.505L920.201 206.999L929.364 206.034L932.361 211.35L936.704 212.904L935.686 223.964L933.926 228.883L920.766 243.759L917.349 253.308L909.9 260.435L908.988 266.637L902.618 264.358L901.151 260.242ZM909.44 326.531L910.291 318.676L914.513 312.352L921.318 312.502L922.355 305.04L932.72 297.977L936.447 287.559L936.305 280.654L939.968 277.721L946.96 273.695L951.47 272.044L955.813 273.598L958.77 276.288L958.787 284.454L956.509 290.82L952.575 301.816L948.002 306.382L940.697 315.845L931.016 318.257L924.376 319.472L920.442 330.468L914.485 331.601L909.44 326.531Z" stroke="url(#paint8_linear_2092_257)" stroke-opacity="0.2" stroke-width="3.5"/>
<path d="M100.442 318.573L98.7857 323.203L110.446 337.167L115.087 315.979M100.442 318.573L86.8203 296.4L84.6586 270.493L88.0751 260.944L98.2087 264.57L94.7922 274.119L107.896 297.739L110.437 306.155L97.8721 314.39L90.9326 303.094L100.442 318.573ZM112.435 328.087L115.087 315.979M115.087 315.979L108.205 301.44M139.752 344.715L127.881 340.468L112.695 350.049L107.415 364.807L112.99 390.303L122.255 393.618L128.27 403.277L139.852 407.421L146.27 389.48L158.354 379.441M139.752 344.715L154.967 365.173L158.354 379.441M139.752 344.715L137.213 331.729L147.413 323.302L155.81 326.306M158.354 379.441L169.047 379.677L172.049 371.285L166.326 357.16L166.456 342.192M166.456 342.192L159.573 327.653L155.81 326.306M166.456 342.192L187.962 355.109L188.918 342.395L202.937 355.244L199.106 365.951L204.935 375.217L193.205 382.445L172.56 388.115L152.591 411.979L153.31 423.661L168.12 422.431L167.847 435.063L178.535 449.006L207.453 443.032L213.458 426.249L226.802 416.335L233.342 406.271L248.505 402.231L254.175 396.425L253.475 388.341L256.089 366.428L249.907 359.973L243.689 341.754L231.695 334.199L243.033 327.157L226.055 316.187L203.309 302.173L186.1 301.891L180.436 293.989L162.253 298.255L160.39 303.464L152.486 309.123L155.81 326.306M253.567 204.606L245.939 193.064L241.201 196.265L232.512 202.295L221.75 218.682L221.744 232.389L207.428 242.282L200.886 256.914L194.409 264.063L195.625 275.27L193.761 280.478L209.107 285.968L221.104 284.385L219.99 277.459L224.338 265.305L222.127 259.618L231.975 254.002L237.109 241.477L242.573 231.681L245.886 222.422L253.356 214.323L252.823 203.034M160.458 286.842L166.256 270.637L160.925 256.326L168.051 228.193L167.107 208.924L178.947 187.7L183.581 184.788L192.656 196.849L189.033 206.976L189.896 220.994L185.134 234.305L178.818 251.957L184.912 271.437L175.724 282.511L160.458 286.842ZM229.886 305.48L227.84 301.158L235.58 289.565L254.507 286.871L259.322 298.059L249.555 308.927L243.843 316.676L229.886 305.48ZM256.992 279.926L252.712 275.457L263.307 262.275L272.263 261.889L264.365 253.84L273.264 242.662L270.681 236.189L276.042 226.683L285.205 225.718L288.202 231.033L292.545 232.587L291.527 243.647L289.767 248.567L276.606 263.442L273.19 272.992L265.741 280.119L264.828 286.32L258.459 284.041L256.992 279.926ZM265.281 346.215L266.132 338.359L270.354 332.036L277.159 332.186L278.196 324.723L288.561 317.66L292.288 307.243L292.146 300.338L295.808 297.405L302.801 293.378L307.311 291.728L311.654 293.282L314.61 295.971L314.628 304.138L312.35 310.504L308.416 321.5L303.843 326.066L296.538 335.529L286.857 337.941L280.217 339.156L276.283 350.151L270.326 351.284L265.281 346.215Z" stroke="url(#paint9_linear_2092_257)" stroke-opacity="0.2" stroke-width="3.5"/>
<path d="M326.994 293.401L324.96 299.087L339.279 316.234L344.978 290.216M326.994 293.401L310.266 266.172L307.612 234.359L311.807 222.633L324.251 227.085L320.056 238.811L336.148 267.817L339.268 278.152L323.838 288.264L315.316 274.392L326.994 293.401ZM341.721 305.083L344.978 290.216M344.978 290.216L336.527 272.361M375.266 325.503L360.689 320.287L342.041 332.053L335.557 350.176L342.403 381.485L353.78 385.555L361.167 397.417L375.389 402.505L383.271 380.474L398.109 368.147M375.266 325.503L393.95 350.626L398.109 368.147M375.266 325.503L372.148 309.557L384.674 299.208L394.985 302.897M398.109 368.147L411.24 368.436L414.927 358.131L407.898 340.786L408.058 322.405M408.058 322.405L399.607 304.55L394.985 302.897M408.058 322.405L434.467 338.267L435.642 322.654L452.856 338.433L448.152 351.58L455.311 362.96L440.906 371.835L415.554 378.798L391.032 408.103L391.916 422.448L410.102 420.938L409.766 436.45L422.891 453.571L458.402 446.236L465.776 425.626L482.164 413.452L490.195 401.094L508.814 396.132L515.777 389.003L514.917 379.075L518.128 352.166L510.536 344.239L502.9 321.867L488.172 312.589L502.094 303.942L481.246 290.47L453.314 273.262L432.181 272.916L425.226 263.212L402.898 268.451L400.609 274.847L390.904 281.796L394.985 302.897M515.03 153.45L505.663 139.276L499.845 143.207L489.175 150.612L475.959 170.735L475.953 187.568L458.371 199.716L450.338 217.684L442.385 226.463L443.878 240.224L441.589 246.62L460.433 253.363L475.166 251.419L473.797 242.913L479.137 227.988L476.422 221.005L488.515 214.108L494.82 198.727L501.53 186.698L505.598 175.328L514.772 165.382L514.117 151.52M400.693 254.435L407.813 234.536L401.267 216.962L410.017 182.415L408.858 158.753L423.397 132.69L429.088 129.114L440.232 143.924L435.783 156.361L436.843 173.575L430.995 189.921L423.239 211.596L430.723 235.518L419.44 249.117L400.693 254.435ZM485.95 277.323L483.438 272.015L492.943 257.779L516.185 254.471L522.097 268.21L510.104 281.555L503.09 291.071L485.95 277.323ZM519.236 245.943L513.98 240.455L526.991 224.267L537.989 223.793L528.291 213.909L539.218 200.183L536.046 192.234L542.629 180.56L553.881 179.375L557.562 185.903L562.895 187.811L561.645 201.393L559.484 207.433L543.323 225.701L539.127 237.427L529.98 246.179L528.859 253.795L521.037 250.996L519.236 245.943ZM529.415 327.345L530.46 317.698L535.645 309.933L544.001 310.117L545.274 300.953L558.003 292.28L562.58 279.488L562.405 271.008L566.902 267.406L575.489 262.462L581.027 260.435L586.36 262.343L589.991 265.646L590.013 275.675L587.216 283.492L582.385 296.995L576.769 302.602L567.799 314.223L555.91 317.184L547.757 318.676L542.926 332.179L535.61 333.57L529.415 327.345Z" stroke="url(#paint10_linear_2092_257)" stroke-opacity="0.2" stroke-width="3.5"/>
<path d="M201.252 238.305L202.202 242.465L190.716 253.296L188.901 234.561M201.252 238.305L215.274 220.604L219.806 198.505L217.846 189.925L208.741 192.005L210.701 200.585L196.976 219.586L193.919 226.576L203.897 234.966L211.041 225.948L201.252 238.305ZM189.938 245.267L188.901 234.561M188.901 234.561L196.329 222.743M164.688 256.779L175.354 254.343L187.45 264.163L190.479 277.423L183.048 298.816L174.724 300.718L168.545 308.421L158.14 310.798L154.458 294.678L145.081 284.783M164.688 256.779L149.47 272.838L145.081 284.783M164.688 256.779L168.214 245.852L160.293 237.539L152.749 239.262M145.081 284.783L135.843 283.884L134.121 276.344L140.509 264.763L141.939 251.853M141.939 251.853L149.367 240.035L152.749 239.262M141.939 251.853L122.078 260.766L122.564 249.713L109.161 259.34L111.358 268.96L105.381 276.343L114.743 283.779L131.947 290.792L146.693 313.412L144.87 323.403L132.236 320.818L131.17 331.73L120.524 342.642L96.223 334.514L92.7787 319.435L82.3021 309.518L77.7041 300.173L65.056 295.128L60.7691 289.542L62.2055 282.649L62.2108 263.498L68.2025 258.573L75.4382 243.516L86.5508 238.243L77.5079 231.007L93.2662 223.304L114.309 213.574L129.166 215.105L134.861 208.88L150.088 214.429L151.157 219.109L157.383 224.799L152.749 239.262M81.0604 124.329L88.8222 115.17L92.5745 118.416L99.4402 124.507L107.024 139.736L105.616 151.547L116.933 161.546L121.061 174.828L125.905 181.655L123.703 191.185L124.771 195.865L110.984 199.014L100.81 196.414L102.484 190.56L99.9897 179.641L102.481 174.968L94.5745 169.115L91.4413 157.794L87.7426 148.79L85.8423 140.471L80.2405 132.723L81.8634 123.051M152.811 204.78L149.485 190.22L155.553 178.439L152.312 153.465L155.111 136.959L147.097 117.452L143.404 114.466L134.342 123.922L136.42 133.021L134.232 145.011L136.964 156.97L140.586 172.83L133.328 188.987L140.103 199.476L152.811 204.78ZM91.069 213.685L93.2773 210.171L87.8028 199.385L71.7728 195.113L66.4711 204.257L73.7666 214.627L77.8894 221.893L91.069 213.685ZM70.3475 188.873L74.4956 185.464L66.725 173.014L59.0479 171.758L66.6825 165.637L60.1674 155.089L63.06 149.778L59.4207 141.034L51.6248 139.259L48.4947 143.53L44.5925 144.421L44.3297 154.056L45.3392 158.476L55.1458 172.649L57.1055 181.229L62.7892 188.138L62.9363 193.575L68.6595 192.268L70.3475 188.873ZM56.3742 245.135L56.4504 238.279L53.4643 232.395L47.5856 231.823L47.4611 225.286L39.258 218.133L37.1201 208.773L37.9542 202.838L35.101 199.933L29.4909 195.743L25.7753 193.856L21.8732 194.748L19.0484 196.761L18.1917 203.795L19.4982 209.515L21.7548 219.395L25.2244 223.8L30.5434 232.707L38.6362 235.782L44.2321 237.513L46.4888 247.393L51.5051 248.983L56.3742 245.135Z" stroke="url(#paint11_linear_2092_257)" stroke-opacity="0.2" stroke-width="3.5"/>
<path d="M701.178 364.745L701.913 367.961L693.033 376.334L691.63 361.851M701.178 364.745L712.018 351.061L715.522 333.976L714.007 327.343L706.968 328.951L708.483 335.584L697.873 350.274L695.51 355.677L703.223 362.163L708.746 355.192L701.178 364.745ZM692.432 370.127L691.63 361.851M691.63 361.851L697.372 352.714M672.911 379.027L681.157 377.143L690.509 384.736L692.85 394.986L687.105 411.525L680.67 412.995L675.894 418.95L667.849 420.788L665.003 408.326L657.754 400.676M672.911 379.027L661.146 391.442L657.754 400.676M672.911 379.027L675.637 370.579L669.514 364.153L663.682 365.485M657.754 400.676L650.612 399.981L649.281 394.152L654.219 385.2L655.325 375.219M655.325 375.219L661.067 366.082L663.682 365.485M655.325 375.219L639.97 382.11L640.346 373.564L629.985 381.007L631.683 388.444L627.062 394.152L634.3 399.9L647.6 405.322L659 422.809L657.59 430.533L647.823 428.534L646.999 436.97L638.769 445.406L619.982 439.123L617.32 427.465L609.22 419.798L605.666 412.574L595.888 408.674L592.574 404.355L593.684 399.026L593.688 384.222L598.32 380.414L603.914 368.774L612.505 364.697L605.514 359.103L617.697 353.148L633.965 345.626L645.45 346.809L649.853 341.997L661.624 346.287L662.451 349.905L667.264 354.304L663.682 365.485M608.26 276.632L614.261 269.551L617.162 272.061L622.47 276.77L628.333 288.543L627.244 297.674L635.993 305.404L639.184 315.672L642.929 320.95L641.226 328.318L642.053 331.935L631.394 334.37L623.528 332.36L624.823 327.835L622.894 319.393L624.82 315.781L618.708 311.255L616.286 302.503L613.426 295.543L611.957 289.111L607.627 283.121L608.881 275.644M663.729 338.827L661.158 327.572L665.849 318.464L663.344 299.157L665.508 286.396L659.312 271.316L656.457 269.007L649.451 276.317L651.058 283.352L649.366 292.621L651.478 301.867L654.279 314.128L648.667 326.618L653.905 334.727L663.729 338.827ZM615.998 345.711L617.705 342.995L613.473 334.657L601.08 331.354L596.982 338.423L602.622 346.44L605.809 352.057L615.998 345.711ZM599.979 326.53L603.185 323.894L597.178 314.269L591.243 313.299L597.145 308.567L592.108 300.412L594.345 296.306L591.531 289.547L585.504 288.174L583.084 291.476L580.068 292.165L579.865 299.614L580.645 303.03L588.226 313.988L589.741 320.621L594.135 325.962L594.249 330.165L598.674 329.155L599.979 326.53ZM589.176 370.025L589.235 364.725L586.926 360.177L582.382 359.734L582.285 354.681L575.944 349.15L574.291 341.914L574.936 337.326L572.73 335.08L568.393 331.841L565.521 330.383L562.504 331.072L560.32 332.628L559.658 338.066L560.668 342.488L562.412 350.126L565.095 353.532L569.207 360.417L575.463 362.795L579.789 364.133L581.534 371.771L585.412 373L589.176 370.025Z" stroke="url(#paint12_linear_2092_257)" stroke-opacity="0.2" stroke-width="3.5"/>
<path d="M385.088 222.384L382.982 226.02L367.437 226.121L378.696 211.399M385.088 222.384L407.071 219.031L425.163 206.141L429.506 198.642L421.548 194.033L417.205 201.532L394.564 206.021L387.671 209.01L389.235 221.751L400.434 220.043L385.088 222.384ZM372.262 219.812L378.696 211.399M378.696 211.399L391.979 207.863M346.338 211.17L355.661 216.57L357.792 231.764L351.08 243.354L331.371 253.79L324.095 249.576L314.474 250.984L305.379 245.716L313.539 231.627L313.418 218.204M346.338 211.17L324.594 212.537L313.418 218.204M346.338 211.17L356.21 205.659L356.077 194.354L349.483 190.535M313.418 218.204L307.362 211.358L311.179 204.768L323.552 200.705L333.244 192.359M333.244 192.359L346.527 188.823L349.483 190.535M333.244 192.359L312.948 185.459L320.714 177.818L304.594 175.766L299.724 184.174L290.462 185.486L292.222 197.127L299.919 213.724L295.374 239.922L287.357 245.901L279.984 235.561L271.895 242.712L256.901 243.436L244.836 221.275L252.469 208.094L251.571 193.917L254.526 184.096L248.792 171.975L249.45 165.072L255.11 161.067L267.961 147.266L275.584 147.736L290.901 141.736L302.449 145.39L300.785 134.107L317.311 139.127L339.008 146.23L348.69 157.3L356.971 156.633L364.225 170.849L361.855 174.939L362.526 183.218L349.483 190.535M374.912 59.5927L386.652 58.1977L387.179 63.0551L388.041 72.052L383.292 88.117L374.353 95.6863L375.803 110.486L369.868 122.83L368.78 131L360.799 136.393L358.43 140.483L346.378 133.504L340.789 124.804L345.923 121.707L351.45 112.163L356.38 110.466L354.608 100.942L359.945 90.6798L363.319 81.7085L367.53 74.4364L368.69 65.0934L376.348 59.2105M372.661 165.72L380.031 152.994L392.309 148.572L406.727 128.395L419.818 118.375L427.128 98.9376L426.469 94.3074L413.593 95.044L408.986 102.998L399.365 110.172L393.311 120.626L385.283 134.488L369.212 141.265L367.059 153.371L372.661 165.72ZM322.181 130.718L326.13 129.667L329.42 118.219L320.731 104.386L310.774 107.421L309.076 119.79L307.174 127.793L322.181 130.718ZM323.889 98.9321L329.167 99.2572L331.918 85.0696L327.226 79.0143L336.836 79.7239L339.216 67.7495L344.864 65.8615L348.106 57.1175L343.678 50.6076L338.556 51.5866L335.145 49.6112L328.493 56.3799L326.255 60.2432L323.815 77.0389L319.472 84.5383L318.935 93.3312L315.393 97.3495L320.395 100.247L323.889 98.9321ZM276.073 130.114L280.727 125.222L282.522 118.978L278.668 114.622L282.964 109.826L281.85 99.1665L286.588 90.9854L291.171 87.2666L291.063 83.2588L289.83 76.475L288.417 72.6222L285.006 70.6468L281.62 70.2028L276.283 74.699L273.387 79.6985L268.386 88.3341L267.932 93.8372L265.791 103.826L269.561 111.472L272.433 116.474L267.432 125.109L269.982 129.621L276.073 130.114Z" stroke="url(#paint13_linear_2092_257)" stroke-opacity="0.2" stroke-width="3.5"/>
<path d="M795.286 271.816L792.917 275.907L775.429 276.021L788.096 259.458M795.286 271.816L820.017 268.044L840.371 253.544L845.257 245.107L836.304 239.922L831.418 248.358L805.947 253.409L798.193 256.77L799.953 271.104L812.551 269.183L795.286 271.816ZM780.858 268.923L788.096 259.458M788.096 259.458L803.039 255.48M751.693 259.201L762.181 265.275L764.579 282.369L757.028 295.408L734.856 307.148L726.67 302.408L715.846 303.991L705.614 298.065L714.794 282.215L714.658 267.114M751.693 259.201L727.232 260.739L714.658 267.114M751.693 259.201L762.799 253.001L762.65 240.283L755.232 235.986M714.658 267.114L707.845 259.412L712.139 251.998L726.059 247.428L736.963 238.038M736.963 238.038L751.906 234.06L755.232 235.986M736.963 238.038L714.13 230.277L722.866 221.68L704.732 219.371L699.253 228.831L688.833 230.307L690.814 243.403L699.472 262.074L694.359 291.547L685.339 298.273L677.045 286.641L667.945 294.686L651.077 295.5L637.504 270.569L646.092 255.74L645.081 239.791L648.405 228.743L641.955 215.107L642.695 207.341L649.062 202.835L663.519 187.309L672.095 187.838L689.327 181.088L702.319 185.198L700.446 172.506L719.038 178.153L743.447 186.143L754.339 198.597L763.656 197.847L771.815 213.84L769.15 218.441L769.905 227.755L755.232 235.986M783.839 88.6774L797.046 87.108L797.639 92.5725L798.609 102.694L793.266 120.767L783.21 129.282L784.841 145.932L778.165 159.818L776.94 169.01L767.961 175.077L765.296 179.679L751.739 171.827L745.451 162.04L751.226 158.556L757.445 147.818L762.991 145.909L760.997 135.195L767.001 123.65L770.796 113.558L775.534 105.376L776.839 94.8657L785.455 88.2474M781.306 208.07L789.598 193.753L803.41 188.779L819.63 166.08L834.357 154.807L842.581 132.94L841.84 127.731L827.354 128.56L822.172 137.508L811.349 145.579L804.538 157.339L795.506 172.934L777.426 180.558L775.004 194.178L781.306 208.07ZM724.517 168.693L728.959 167.511L732.66 154.632L722.885 139.07L711.684 142.484L709.774 156.399L707.634 165.403L724.517 168.693ZM726.439 132.934L732.376 133.3L735.471 117.339L730.193 110.526L741.003 111.325L743.681 97.8537L750.035 95.7297L753.683 85.8928L748.701 78.5692L742.939 79.6705L739.102 77.4483L731.617 85.063L729.1 89.4092L726.356 108.304L721.469 116.741L720.864 126.633L716.88 131.154L722.508 134.413L726.439 132.934ZM672.645 168.013L677.882 162.51L679.9 155.486L675.565 150.585L680.398 145.19L679.144 133.198L684.475 123.994L689.63 119.81L689.509 115.302L688.122 107.67L686.533 103.335L682.695 101.113L678.885 100.614L672.882 105.672L669.624 111.296L663.998 121.011L663.487 127.202L661.078 138.439L665.32 147.041L668.551 152.668L662.925 162.383L665.793 167.458L672.645 168.013Z" stroke="url(#paint14_linear_2092_257)" stroke-opacity="0.2" stroke-width="3.5"/>
<path d="M641.003 153.658L641.602 156.281L634.36 163.11L633.215 151.297M641.003 153.658L649.845 142.496L652.703 128.561L651.467 123.151L645.726 124.462L646.962 129.872L638.307 141.854L636.38 146.261L642.671 151.552L647.176 145.865L641.003 153.658ZM633.869 158.047L633.215 151.297M633.215 151.297L637.899 143.845M617.947 165.306L624.673 163.77L632.3 169.963L634.21 178.324L629.525 191.814L624.275 193.013L620.38 197.871L613.818 199.369L611.496 189.205L605.584 182.965M617.947 165.306L608.351 175.433L605.584 182.965M617.947 165.306L620.17 158.416L615.176 153.175L610.419 154.261M605.584 182.965L599.758 182.398L598.673 177.644L602.7 170.341L603.602 162.201M603.602 162.201L608.286 154.748L610.419 154.261M603.602 162.201L591.078 167.821L591.385 160.851L582.934 166.921L584.319 172.987L580.55 177.643L586.453 182.332L597.302 186.754L606.6 201.018L605.45 207.318L597.484 205.688L596.812 212.569L590.099 219.449L574.775 214.324L572.603 204.816L565.997 198.562L563.098 192.669L555.122 189.489L552.419 185.966L553.325 181.619L553.328 169.544L557.106 166.438L561.669 156.944L568.676 153.618L562.974 149.056L572.911 144.199L586.18 138.063L595.548 139.028L599.139 135.103L608.741 138.602L609.415 141.553L613.341 145.141L610.419 154.261M565.214 81.7873L570.108 76.0119L572.474 78.0589L576.804 81.9L581.586 91.5026L580.698 98.9503L587.834 105.255L590.437 113.631L593.492 117.935L592.103 123.945L592.777 126.896L584.083 128.882L577.668 127.242L578.723 123.551L577.15 116.665L578.721 113.719L573.736 110.028L571.76 102.889L569.428 97.2122L568.229 91.9659L564.697 87.0803L565.72 80.9816M610.458 132.518L608.361 123.337L612.187 115.908L610.143 100.16L611.908 89.7516L606.855 77.451L604.526 75.5679L598.812 81.5306L600.122 87.2687L598.742 94.8288L600.465 102.37L602.749 112.371L598.172 122.559L602.445 129.173L610.458 132.518ZM571.525 138.133L572.918 135.917L569.466 129.116L559.358 126.422L556.014 132.188L560.615 138.727L563.215 143.308L571.525 138.133ZM558.459 122.487L561.074 120.337L556.175 112.487L551.334 111.695L556.148 107.835L552.04 101.184L553.863 97.8347L551.569 92.3214L546.653 91.2018L544.679 93.8951L542.218 94.4571L542.053 100.532L542.689 103.319L548.873 112.257L550.109 117.667L553.693 122.023L553.786 125.452L557.394 124.628L558.459 122.487ZM549.648 157.964L549.696 153.641L547.813 149.931L544.106 149.57L544.027 145.448L538.855 140.937L537.507 135.035L538.032 131.293L536.233 129.461L532.696 126.819L530.353 125.629L527.892 126.191L526.111 127.461L525.571 131.897L526.395 135.503L527.818 141.733L530.005 144.511L533.359 150.127L538.463 152.067L541.991 153.158L543.414 159.388L546.577 160.391L549.648 157.964Z" stroke="url(#paint15_linear_2092_257)" stroke-opacity="0.2" stroke-width="3.5"/>
<defs>
<linearGradient id="paint0_linear_2092_257" x1="878.951" y1="169.392" x2="790.121" y2="417.668" gradientUnits="userSpaceOnUse">
<stop stop-color="white"/>
<stop offset="0.385" stop-color="#EFAAEA"/>
<stop offset="1" stop-color="#080535"/>
</linearGradient>
<linearGradient id="paint1_linear_2092_257" x1="234.792" y1="189.076" x2="145.962" y2="437.352" gradientUnits="userSpaceOnUse">
<stop stop-color="white"/>
<stop offset="0.385" stop-color="#EFAAEA"/>
<stop offset="1" stop-color="#080535"/>
</linearGradient>
<linearGradient id="paint2_linear_2092_257" x1="491.976" y1="134.379" x2="382.893" y2="439.261" gradientUnits="userSpaceOnUse">
<stop stop-color="white"/>
<stop offset="0.385" stop-color="#EFAAEA"/>
<stop offset="1" stop-color="#080535"/>
</linearGradient>
<linearGradient id="paint3_linear_2092_257" x1="98.8377" y1="112.882" x2="149.79" y2="335.957" gradientUnits="userSpaceOnUse">
<stop stop-color="white"/>
<stop offset="0.385" stop-color="#EFAAEA"/>
<stop offset="1" stop-color="#080535"/>
</linearGradient>
<linearGradient id="paint4_linear_2092_257" x1="622.004" y1="267.783" x2="661.394" y2="440.238" gradientUnits="userSpaceOnUse">
<stop stop-color="white"/>
<stop offset="0.385" stop-color="#EFAAEA"/>
<stop offset="1" stop-color="#080535"/>
</linearGradient>
<linearGradient id="paint5_linear_2092_257" x1="395.404" y1="63.2658" x2="282.479" y2="258.249" gradientUnits="userSpaceOnUse">
<stop stop-color="white"/>
<stop offset="0.385" stop-color="#EFAAEA"/>
<stop offset="1" stop-color="#080535"/>
</linearGradient>
<linearGradient id="paint6_linear_2092_257" x1="806.894" y1="92.8118" x2="679.855" y2="312.167" gradientUnits="userSpaceOnUse">
<stop stop-color="white"/>
<stop offset="0.385" stop-color="#EFAAEA"/>
<stop offset="1" stop-color="#080535"/>
</linearGradient>
<linearGradient id="paint7_linear_2092_257" x1="576.423" y1="74.5694" x2="608.552" y2="215.234" gradientUnits="userSpaceOnUse">
<stop stop-color="white"/>
<stop offset="0.385" stop-color="#EFAAEA"/>
<stop offset="1" stop-color="#080535"/>
</linearGradient>
<linearGradient id="paint8_linear_2092_257" x1="878.951" y1="169.392" x2="790.121" y2="417.668" gradientUnits="userSpaceOnUse">
<stop stop-color="white"/>
<stop offset="0.385" stop-color="#EFAAEA"/>
<stop offset="1" stop-color="#080535"/>
</linearGradient>
<linearGradient id="paint9_linear_2092_257" x1="234.792" y1="189.076" x2="145.962" y2="437.352" gradientUnits="userSpaceOnUse">
<stop stop-color="white"/>
<stop offset="0.385" stop-color="#EFAAEA"/>
<stop offset="1" stop-color="#080535"/>
</linearGradient>
<linearGradient id="paint10_linear_2092_257" x1="491.975" y1="134.379" x2="382.892" y2="439.261" gradientUnits="userSpaceOnUse">
<stop stop-color="white"/>
<stop offset="0.385" stop-color="#EFAAEA"/>
<stop offset="1" stop-color="#080535"/>
</linearGradient>
<linearGradient id="paint11_linear_2092_257" x1="98.8377" y1="112.882" x2="149.79" y2="335.957" gradientUnits="userSpaceOnUse">
<stop stop-color="white"/>
<stop offset="0.385" stop-color="#EFAAEA"/>
<stop offset="1" stop-color="#080535"/>
</linearGradient>
<linearGradient id="paint12_linear_2092_257" x1="622.004" y1="267.783" x2="661.394" y2="440.238" gradientUnits="userSpaceOnUse">
<stop stop-color="white"/>
<stop offset="0.385" stop-color="#EFAAEA"/>
<stop offset="1" stop-color="#080535"/>
</linearGradient>
<linearGradient id="paint13_linear_2092_257" x1="395.406" y1="63.2677" x2="282.481" y2="258.251" gradientUnits="userSpaceOnUse">
<stop stop-color="white"/>
<stop offset="0.385" stop-color="#EFAAEA"/>
<stop offset="1" stop-color="#080535"/>
</linearGradient>
<linearGradient id="paint14_linear_2092_257" x1="806.894" y1="92.8118" x2="679.855" y2="312.167" gradientUnits="userSpaceOnUse">
<stop stop-color="white"/>
<stop offset="0.385" stop-color="#EFAAEA"/>
<stop offset="1" stop-color="#080535"/>
</linearGradient>
<linearGradient id="paint15_linear_2092_257" x1="576.424" y1="74.5694" x2="608.553" y2="215.234" gradientUnits="userSpaceOnUse">
<stop stop-color="white"/>
<stop offset="0.385" stop-color="#EFAAEA"/>
<stop offset="1" stop-color="#080535"/>
</linearGradient>
</defs>
</svg>
