<svg width="342" height="388" viewBox="0 0 342 388" fill="none" xmlns="http://www.w3.org/2000/svg">
<path d="M33.0084 209.61L31.3719 216.559L50.4668 234.808L53.7153 203.484M33.0084 209.61L9.74744 179.836L2.41304 142.811L5.78835 128.478L20.9985 132.06L17.6232 146.393L40.3727 178.338L45.408 190.068L28.6196 203.992L16.7696 188.824L33.0084 209.61ZM51.859 221.384L53.7153 203.484M53.7153 203.484L41.4205 183.628M93.9756 240.929L76.1581 236.733L55.8084 253.028L50.592 275.178L62.7836 311.055L76.69 314.33L86.9402 327.287L104.323 331.381L110.665 304.453L126.464 288.003M93.9756 240.929L119.256 267.969L126.464 288.003M93.9756 240.929L88.1994 222.607L101.545 208.789L114.147 211.757M126.464 288.003L141.93 286.603L144.896 274.007L134.34 254.56L132.092 232.944M132.092 232.944L119.797 213.087L114.147 211.757M132.092 232.944L165.221 248.08L164.532 229.581L186.848 245.839L183.063 261.909L192.981 274.329L177.233 286.665L148.371 298.205L123.444 335.884L126.383 352.62L147.55 348.437L149.211 366.706L166.899 385.083L207.649 371.758L213.581 346.567L231.221 330.093L239.019 314.509L260.237 306.212L267.472 296.914L265.147 285.365L265.353 253.324L255.384 245.017L243.447 219.744L224.914 210.795L240.125 198.791L213.847 185.727L178.749 169.21L153.876 171.604L144.418 161.125L118.879 170.238L117.038 178.056L106.556 187.507L114.147 211.757M235.382 20.2684L222.499 4.85729L216.184 10.2464L204.629 20.3608L191.769 45.7539L193.992 65.5307L174.946 82.1325L167.889 104.308L159.708 115.675L163.286 131.646L161.444 139.464L184.477 144.888L201.528 140.652L198.793 130.839L203.089 112.598L198.974 104.752L212.268 95.0474L217.637 76.1417L223.927 61.12L227.2 47.2216L236.659 34.3216L234.053 18.1217M114.432 154.064L120.16 129.741L110.14 109.962L115.844 68.2142L111.346 40.5671L124.974 8.02004L131.186 3.06521L146.242 18.988L142.662 34.1894L146.188 54.2733L141.483 74.2523L135.244 100.746L147.206 127.859L135.753 145.332L114.432 154.064ZM217.631 169.657L213.976 163.753L223.257 145.769L250.125 138.802L258.892 154.161L246.569 171.429L239.59 183.538L217.631 169.657ZM252.579 128.378L245.678 122.627L258.819 101.884L271.677 99.8698L258.973 89.5434L269.992 71.9681L265.212 63.0495L271.399 48.4621L284.463 45.579L289.651 52.7604L296.17 54.2955L296.501 70.418L294.763 77.8015L278.196 101.405L274.821 115.738L265.233 127.232L264.926 136.328L255.366 134.077L252.579 128.378ZM275.325 222.667L275.275 211.195L280.337 201.385L290.179 200.494L290.461 189.558L304.266 177.682L307.948 162.046L306.619 152.106L311.426 147.279L320.859 140.332L327.097 137.217L333.615 138.752L338.319 142.152L339.673 153.931L337.423 163.486L333.536 179.99L327.682 187.322L318.682 202.164L305.108 207.218L295.726 210.051L291.839 226.556L283.428 229.159L275.325 222.667Z" stroke="white" stroke-width="3.5"/>
</svg>
