<svg width="224" height="224" viewBox="0 0 224 224" fill="none" xmlns="http://www.w3.org/2000/svg">
<mask id="mask0_2062_7" style="mask-type:alpha" maskUnits="userSpaceOnUse" x="0" y="0" width="224" height="224">
<ellipse cx="112" cy="111.957" rx="112" ry="111.957" fill="#D9D9D9"/>
</mask>
<g mask="url(#mask0_2062_7)">
<g filter="url(#filter0_dddi_2062_7)">
<path d="M-67.7211 70.5826C-67.7211 27.5688 -53.1973 -7.30078 -35.2813 -7.30078H256.676C274.592 -7.30078 289.116 27.5688 289.116 70.5826V153.334C289.116 196.347 274.592 231.217 256.676 231.217H-35.2813C-53.1973 231.217 -67.7211 196.347 -67.7211 153.334V70.5826Z" fill="#030303"/>
<path d="M-67.7211 70.5826C-67.7211 27.5688 -53.1973 -7.30078 -35.2813 -7.30078H256.676C274.592 -7.30078 289.116 27.5688 289.116 70.5826V153.334C289.116 196.347 274.592 231.217 256.676 231.217H-35.2813C-53.1973 231.217 -67.7211 196.347 -67.7211 153.334V70.5826Z" fill="url(#paint0_radial_2062_7)"/>
<path d="M-67.7211 70.5826C-67.7211 27.5688 -53.1973 -7.30078 -35.2813 -7.30078H256.676C274.592 -7.30078 289.116 27.5688 289.116 70.5826V153.334C289.116 196.347 274.592 231.217 256.676 231.217H-35.2813C-53.1973 231.217 -67.7211 196.347 -67.7211 153.334V70.5826Z" fill="url(#paint1_radial_2062_7)"/>
<path d="M-67.7211 70.5826C-67.7211 27.5688 -53.1973 -7.30078 -35.2813 -7.30078H256.676C274.592 -7.30078 289.116 27.5688 289.116 70.5826V153.334C289.116 196.347 274.592 231.217 256.676 231.217H-35.2813C-53.1973 231.217 -67.7211 196.347 -67.7211 153.334V70.5826Z" fill="url(#paint2_radial_2062_7)"/>
<path d="M-67.7211 70.5826C-67.7211 27.5688 -53.1973 -7.30078 -35.2813 -7.30078H256.676C274.592 -7.30078 289.116 27.5688 289.116 70.5826V153.334C289.116 196.347 274.592 231.217 256.676 231.217H-35.2813C-53.1973 231.217 -67.7211 196.347 -67.7211 153.334V70.5826Z" fill="url(#paint3_radial_2062_7)" fill-opacity="0.5"/>
<path d="M-67.7211 70.5826C-67.7211 27.5688 -53.1973 -7.30078 -35.2813 -7.30078H256.676C274.592 -7.30078 289.116 27.5688 289.116 70.5826V153.334C289.116 196.347 274.592 231.217 256.676 231.217H-35.2813C-53.1973 231.217 -67.7211 196.347 -67.7211 153.334V70.5826Z" fill="#030303"/>
<path d="M-67.7211 70.5826C-67.7211 27.5688 -53.1973 -7.30078 -35.2813 -7.30078H256.676C274.592 -7.30078 289.116 27.5688 289.116 70.5826V153.334C289.116 196.347 274.592 231.217 256.676 231.217H-35.2813C-53.1973 231.217 -67.7211 196.347 -67.7211 153.334V70.5826Z" fill="url(#paint4_radial_2062_7)"/>
<path d="M-67.7211 70.5826C-67.7211 27.5688 -53.1973 -7.30078 -35.2813 -7.30078H256.676C274.592 -7.30078 289.116 27.5688 289.116 70.5826V153.334C289.116 196.347 274.592 231.217 256.676 231.217H-35.2813C-53.1973 231.217 -67.7211 196.347 -67.7211 153.334V70.5826Z" fill="url(#paint5_radial_2062_7)"/>
<path d="M-67.7211 70.5826C-67.7211 27.5688 -53.1973 -7.30078 -35.2813 -7.30078H256.676C274.592 -7.30078 289.116 27.5688 289.116 70.5826V153.334C289.116 196.347 274.592 231.217 256.676 231.217H-35.2813C-53.1973 231.217 -67.7211 196.347 -67.7211 153.334V70.5826Z" fill="url(#paint6_radial_2062_7)"/>
<path d="M-67.7211 70.5826C-67.7211 27.5688 -53.1973 -7.30078 -35.2813 -7.30078H256.676C274.592 -7.30078 289.116 27.5688 289.116 70.5826V153.334C289.116 196.347 274.592 231.217 256.676 231.217H-35.2813C-53.1973 231.217 -67.7211 196.347 -67.7211 153.334V70.5826Z" fill="url(#paint7_radial_2062_7)" fill-opacity="0.5"/>
<path d="M-66.2211 70.5826C-66.2211 49.2242 -62.6124 29.9581 -56.835 16.0875C-53.945 9.14887 -50.5418 3.63172 -46.8396 -0.127837C-43.1425 -3.88213 -39.2376 -5.80078 -35.2813 -5.80078H256.676C260.633 -5.80078 264.538 -3.88213 268.235 -0.127839C271.937 3.63172 275.34 9.14887 278.23 16.0875C284.007 29.9581 287.616 49.2242 287.616 70.5826V153.334C287.616 174.692 284.007 193.958 278.23 207.829C275.34 214.767 271.937 220.284 268.235 224.044C264.538 227.798 260.633 229.717 256.676 229.717H-35.2813C-39.2376 229.717 -43.1425 227.798 -46.8396 224.044C-50.5418 220.284 -53.945 214.767 -56.835 207.829C-62.6124 193.958 -66.2211 174.692 -66.2211 153.334V70.5826Z" stroke="white" stroke-width="3"/>
</g>
</g>
<g filter="url(#filter1_d_2062_7)">
<mask id="mask1_2062_7" style="mask-type:alpha" maskUnits="userSpaceOnUse" x="53" y="53" width="118" height="118">
<path d="M167.555 111.505C167.555 142.435 142.472 167.511 111.528 167.511C80.5835 167.511 55.5 142.435 55.5 111.505C55.5 80.5754 80.5835 55.5 111.528 55.5C142.472 55.5 167.555 80.5754 167.555 111.505Z" fill="#D9D9D9" stroke="white" stroke-width="5"/>
</mask>
<g mask="url(#mask1_2062_7)">
<g filter="url(#filter2_dddi_2062_7)">
<path d="M23.8959 66.2109C29.3493 42.7566 44.7692 26.3006 58.3371 29.4553L279.44 80.8644C293.008 84.0191 299.586 105.59 294.133 129.044L283.642 174.166C278.188 197.62 262.768 214.077 249.2 210.922L28.0972 159.513C14.5293 156.358 7.9511 134.787 13.4045 111.333L23.8959 66.2109Z" fill="#030303"/>
<path d="M23.8959 66.2109C29.3493 42.7566 44.7692 26.3006 58.3371 29.4553L279.44 80.8644C293.008 84.0191 299.586 105.59 294.133 129.044L283.642 174.166C278.188 197.62 262.768 214.077 249.2 210.922L28.0972 159.513C14.5293 156.358 7.9511 134.787 13.4045 111.333L23.8959 66.2109Z" fill="url(#paint8_radial_2062_7)"/>
<path d="M23.8959 66.2109C29.3493 42.7566 44.7692 26.3006 58.3371 29.4553L279.44 80.8644C293.008 84.0191 299.586 105.59 294.133 129.044L283.642 174.166C278.188 197.62 262.768 214.077 249.2 210.922L28.0972 159.513C14.5293 156.358 7.9511 134.787 13.4045 111.333L23.8959 66.2109Z" fill="url(#paint9_radial_2062_7)"/>
<path d="M23.8959 66.2109C29.3493 42.7566 44.7692 26.3006 58.3371 29.4553L279.44 80.8644C293.008 84.0191 299.586 105.59 294.133 129.044L283.642 174.166C278.188 197.62 262.768 214.077 249.2 210.922L28.0972 159.513C14.5293 156.358 7.9511 134.787 13.4045 111.333L23.8959 66.2109Z" fill="url(#paint10_radial_2062_7)"/>
<path d="M23.8959 66.2109C29.3493 42.7566 44.7692 26.3006 58.3371 29.4553L279.44 80.8644C293.008 84.0191 299.586 105.59 294.133 129.044L283.642 174.166C278.188 197.62 262.768 214.077 249.2 210.922L28.0972 159.513C14.5293 156.358 7.9511 134.787 13.4045 111.333L23.8959 66.2109Z" fill="url(#paint11_radial_2062_7)" fill-opacity="0.5"/>
<path d="M23.8959 66.2109C29.3493 42.7566 44.7692 26.3006 58.3371 29.4553L279.44 80.8644C293.008 84.0191 299.586 105.59 294.133 129.044L283.642 174.166C278.188 197.62 262.768 214.077 249.2 210.922L28.0972 159.513C14.5293 156.358 7.9511 134.787 13.4045 111.333L23.8959 66.2109Z" fill="#030303"/>
<path d="M23.8959 66.2109C29.3493 42.7566 44.7692 26.3006 58.3371 29.4553L279.44 80.8644C293.008 84.0191 299.586 105.59 294.133 129.044L283.642 174.166C278.188 197.62 262.768 214.077 249.2 210.922L28.0972 159.513C14.5293 156.358 7.9511 134.787 13.4045 111.333L23.8959 66.2109Z" fill="url(#paint12_radial_2062_7)"/>
<path d="M23.8959 66.2109C29.3493 42.7566 44.7692 26.3006 58.3371 29.4553L279.44 80.8644C293.008 84.0191 299.586 105.59 294.133 129.044L283.642 174.166C278.188 197.62 262.768 214.077 249.2 210.922L28.0972 159.513C14.5293 156.358 7.9511 134.787 13.4045 111.333L23.8959 66.2109Z" fill="url(#paint13_radial_2062_7)"/>
<path d="M23.8959 66.2109C29.3493 42.7566 44.7692 26.3006 58.3371 29.4553L279.44 80.8644C293.008 84.0191 299.586 105.59 294.133 129.044L283.642 174.166C278.188 197.62 262.768 214.077 249.2 210.922L28.0972 159.513C14.5293 156.358 7.9511 134.787 13.4045 111.333L23.8959 66.2109Z" fill="url(#paint14_radial_2062_7)"/>
<path d="M23.8959 66.2109C29.3493 42.7566 44.7692 26.3006 58.3371 29.4553L279.44 80.8644C293.008 84.0191 299.586 105.59 294.133 129.044L283.642 174.166C278.188 197.62 262.768 214.077 249.2 210.922L28.0972 159.513C14.5293 156.358 7.9511 134.787 13.4045 111.333L23.8959 66.2109Z" fill="url(#paint15_radial_2062_7)" fill-opacity="0.5"/>
<path d="M26.3309 66.7771C28.9762 55.4002 34.0161 45.8411 39.8978 39.5641C45.831 33.2323 52.2228 30.6003 57.771 31.8903L278.874 83.2994C284.422 84.5894 288.997 89.7713 291.528 98.0712C294.037 106.299 294.343 117.101 291.698 128.478L281.206 173.6C278.561 184.977 273.521 194.536 267.64 200.813C261.706 207.145 255.315 209.777 249.766 208.487L28.6634 157.078C23.1153 155.788 18.5402 150.606 16.0091 142.306C13.5 134.078 13.1943 123.276 15.8395 111.899L26.3309 66.7771Z" stroke="white" stroke-width="5"/>
</g>
</g>
</g>
<circle cx="112" cy="112" r="22" fill="white"/>
<circle cx="111.5" cy="111.5" r="34" stroke="white" stroke-width="3"/>
<defs>
<filter id="filter0_dddi_2062_7" x="-137.721" y="-67.3008" width="516.837" height="398.518" filterUnits="userSpaceOnUse" color-interpolation-filters="sRGB">
<feFlood flood-opacity="0" result="BackgroundImageFix"/>
<feColorMatrix in="SourceAlpha" type="matrix" values="0 0 0 0 0 0 0 0 0 0 0 0 0 0 0 0 0 0 127 0" result="hardAlpha"/>
<feOffset dx="10" dy="20"/>
<feGaussianBlur stdDeviation="40"/>
<feComposite in2="hardAlpha" operator="out"/>
<feColorMatrix type="matrix" values="0 0 0 0 0.384314 0 0 0 0 0.368627 0 0 0 0 0.615686 0 0 0 0.3 0"/>
<feBlend mode="normal" in2="BackgroundImageFix" result="effect1_dropShadow_2062_7"/>
<feColorMatrix in="SourceAlpha" type="matrix" values="0 0 0 0 0 0 0 0 0 0 0 0 0 0 0 0 0 0 127 0" result="hardAlpha"/>
<feOffset dx="-10" dy="-10"/>
<feGaussianBlur stdDeviation="25"/>
<feComposite in2="hardAlpha" operator="out"/>
<feColorMatrix type="matrix" values="0 0 0 0 0.64707 0 0 0 0 0.450537 0 0 0 0 0.632829 0 0 0 0.5 0"/>
<feBlend mode="normal" in2="effect1_dropShadow_2062_7" result="effect2_dropShadow_2062_7"/>
<feColorMatrix in="SourceAlpha" type="matrix" values="0 0 0 0 0 0 0 0 0 0 0 0 0 0 0 0 0 0 127 0" result="hardAlpha"/>
<feOffset dy="20"/>
<feGaussianBlur stdDeviation="15"/>
<feComposite in2="hardAlpha" operator="out"/>
<feColorMatrix type="matrix" values="0 0 0 0 0.0313726 0 0 0 0 0.0196078 0 0 0 0 0.207843 0 0 0 0.3 0"/>
<feBlend mode="normal" in2="effect2_dropShadow_2062_7" result="effect3_dropShadow_2062_7"/>
<feBlend mode="normal" in="SourceGraphic" in2="effect3_dropShadow_2062_7" result="shape"/>
<feColorMatrix in="SourceAlpha" type="matrix" values="0 0 0 0 0 0 0 0 0 0 0 0 0 0 0 0 0 0 127 0" result="hardAlpha"/>
<feOffset/>
<feGaussianBlur stdDeviation="15"/>
<feComposite in2="hardAlpha" operator="arithmetic" k2="-1" k3="1"/>
<feColorMatrix type="matrix" values="0 0 0 0 1 0 0 0 0 1 0 0 0 0 1 0 0 0 0.72 0"/>
<feBlend mode="normal" in2="shape" result="effect4_innerShadow_2062_7"/>
</filter>
<filter id="filter1_d_2062_7" x="20" y="20" width="183.055" height="183.011" filterUnits="userSpaceOnUse" color-interpolation-filters="sRGB">
<feFlood flood-opacity="0" result="BackgroundImageFix"/>
<feColorMatrix in="SourceAlpha" type="matrix" values="0 0 0 0 0 0 0 0 0 0 0 0 0 0 0 0 0 0 127 0" result="hardAlpha"/>
<feOffset/>
<feGaussianBlur stdDeviation="16.5"/>
<feComposite in2="hardAlpha" operator="out"/>
<feColorMatrix type="matrix" values="0 0 0 0 1 0 0 0 0 1 0 0 0 0 1 0 0 0 0.85 0"/>
<feBlend mode="normal" in2="BackgroundImageFix" result="effect1_dropShadow_2062_7"/>
<feBlend mode="normal" in="SourceGraphic" in2="effect1_dropShadow_2062_7" result="shape"/>
</filter>
<filter id="filter2_dddi_2062_7" x="-41.0127" y="-15.9326" width="404.563" height="302.242" filterUnits="userSpaceOnUse" color-interpolation-filters="sRGB">
<feFlood flood-opacity="0" result="BackgroundImageFix"/>
<feColorMatrix in="SourceAlpha" type="matrix" values="0 0 0 0 0 0 0 0 0 0 0 0 0 0 0 0 0 0 127 0" result="hardAlpha"/>
<feOffset dx="7.5" dy="15"/>
<feGaussianBlur stdDeviation="30"/>
<feComposite in2="hardAlpha" operator="out"/>
<feColorMatrix type="matrix" values="0 0 0 0 0.384314 0 0 0 0 0.368627 0 0 0 0 0.615686 0 0 0 0.3 0"/>
<feBlend mode="normal" in2="BackgroundImageFix" result="effect1_dropShadow_2062_7"/>
<feColorMatrix in="SourceAlpha" type="matrix" values="0 0 0 0 0 0 0 0 0 0 0 0 0 0 0 0 0 0 127 0" result="hardAlpha"/>
<feOffset dx="-7.5" dy="-7.5"/>
<feGaussianBlur stdDeviation="18.75"/>
<feComposite in2="hardAlpha" operator="out"/>
<feColorMatrix type="matrix" values="0 0 0 0 0.64707 0 0 0 0 0.450537 0 0 0 0 0.632829 0 0 0 0.5 0"/>
<feBlend mode="normal" in2="effect1_dropShadow_2062_7" result="effect2_dropShadow_2062_7"/>
<feColorMatrix in="SourceAlpha" type="matrix" values="0 0 0 0 0 0 0 0 0 0 0 0 0 0 0 0 0 0 127 0" result="hardAlpha"/>
<feOffset dy="15"/>
<feGaussianBlur stdDeviation="11.25"/>
<feComposite in2="hardAlpha" operator="out"/>
<feColorMatrix type="matrix" values="0 0 0 0 0.0313726 0 0 0 0 0.0196078 0 0 0 0 0.207843 0 0 0 0.3 0"/>
<feBlend mode="normal" in2="effect2_dropShadow_2062_7" result="effect3_dropShadow_2062_7"/>
<feBlend mode="normal" in="SourceGraphic" in2="effect3_dropShadow_2062_7" result="shape"/>
<feColorMatrix in="SourceAlpha" type="matrix" values="0 0 0 0 0 0 0 0 0 0 0 0 0 0 0 0 0 0 127 0" result="hardAlpha"/>
<feOffset/>
<feGaussianBlur stdDeviation="11.25"/>
<feComposite in2="hardAlpha" operator="arithmetic" k2="-1" k3="1"/>
<feColorMatrix type="matrix" values="0 0 0 0 1 0 0 0 0 1 0 0 0 0 1 0 0 0 0.72 0"/>
<feBlend mode="normal" in2="shape" result="effect4_innerShadow_2062_7"/>
</filter>
<radialGradient id="paint0_radial_2062_7" cx="0" cy="0" r="1" gradientUnits="userSpaceOnUse" gradientTransform="translate(88.3952 -81.8376) rotate(68.6556) scale(284.092 52.8168)">
<stop offset="0.212469" stop-color="#181118" stop-opacity="0.53"/>
<stop offset="1"/>
</radialGradient>
<radialGradient id="paint1_radial_2062_7" cx="0" cy="0" r="1" gradientUnits="userSpaceOnUse" gradientTransform="translate(1.21339 89.597) rotate(22.501) scale(311.626 118.658)">
<stop stop-color="#625E9D"/>
<stop offset="1" stop-color="#080535" stop-opacity="0.56"/>
</radialGradient>
<radialGradient id="paint2_radial_2062_7" cx="0" cy="0" r="1" gradientUnits="userSpaceOnUse" gradientTransform="translate(159.357 -37.1155) rotate(92.2521) scale(309.567 466.534)">
<stop stop-color="#625E9D"/>
<stop offset="1" stop-color="#56544A" stop-opacity="0.12"/>
</radialGradient>
<radialGradient id="paint3_radial_2062_7" cx="0" cy="0" r="1" gradientUnits="userSpaceOnUse" gradientTransform="translate(-12.979 85.8702) rotate(49.6053) scale(190.844 401.301)">
<stop stop-color="#080535"/>
<stop offset="1" stop-color="white"/>
</radialGradient>
<radialGradient id="paint4_radial_2062_7" cx="0" cy="0" r="1" gradientUnits="userSpaceOnUse" gradientTransform="translate(88.3952 -81.8376) rotate(68.6556) scale(284.092 52.8168)">
<stop offset="0.212469" stop-color="#181118" stop-opacity="0.53"/>
<stop offset="1"/>
</radialGradient>
<radialGradient id="paint5_radial_2062_7" cx="0" cy="0" r="1" gradientUnits="userSpaceOnUse" gradientTransform="translate(1.21339 89.597) rotate(22.501) scale(311.626 118.658)">
<stop stop-color="#080535"/>
<stop offset="1" stop-color="#625E9D" stop-opacity="0.88"/>
</radialGradient>
<radialGradient id="paint6_radial_2062_7" cx="0" cy="0" r="1" gradientUnits="userSpaceOnUse" gradientTransform="translate(159.357 -37.1155) rotate(92.2521) scale(309.567 466.534)">
<stop stop-color="#EFAAEA"/>
<stop offset="1" stop-color="#56544A" stop-opacity="0.12"/>
</radialGradient>
<radialGradient id="paint7_radial_2062_7" cx="0" cy="0" r="1" gradientUnits="userSpaceOnUse" gradientTransform="translate(-12.979 85.8702) rotate(49.6053) scale(190.844 401.301)">
<stop stop-color="#EFAAEA"/>
<stop offset="1" stop-color="#625E9D"/>
</radialGradient>
<radialGradient id="paint8_radial_2062_7" cx="0" cy="0" r="1" gradientUnits="userSpaceOnUse" gradientTransform="translate(161.449 10.5898) rotate(74.5991) scale(168.542 38.7505)">
<stop offset="0.212469" stop-color="#181118" stop-opacity="0.53"/>
<stop offset="1"/>
</radialGradient>
<radialGradient id="paint9_radial_2062_7" cx="0" cy="0" r="1" gradientUnits="userSpaceOnUse" gradientTransform="translate(73.6901 88.7173) rotate(29.6967) scale(233.592 68.9013)">
<stop stop-color="#625E9D"/>
<stop offset="1" stop-color="#080535" stop-opacity="0.56"/>
</radialGradient>
<radialGradient id="paint10_radial_2062_7" cx="0" cy="0" r="1" gradientUnits="userSpaceOnUse" gradientTransform="translate(209.519 47.4708) rotate(106.216) scale(173.426 362.476)">
<stop stop-color="#625E9D"/>
<stop offset="1" stop-color="#56544A" stop-opacity="0.12"/>
</radialGradient>
<radialGradient id="paint11_radial_2062_7" cx="0" cy="0" r="1" gradientUnits="userSpaceOnUse" gradientTransform="translate(63.4145 84.1861) rotate(53.3263) scale(125.966 264.637)">
<stop stop-color="#080535"/>
<stop offset="1" stop-color="white"/>
</radialGradient>
<radialGradient id="paint12_radial_2062_7" cx="0" cy="0" r="1" gradientUnits="userSpaceOnUse" gradientTransform="translate(161.449 10.5898) rotate(74.5991) scale(168.542 38.7505)">
<stop offset="0.212469" stop-color="#181118" stop-opacity="0.53"/>
<stop offset="1"/>
</radialGradient>
<radialGradient id="paint13_radial_2062_7" cx="0" cy="0" r="1" gradientUnits="userSpaceOnUse" gradientTransform="translate(73.6901 88.7173) rotate(29.6967) scale(233.592 68.9013)">
<stop stop-color="#080535"/>
<stop offset="1" stop-color="#625E9D" stop-opacity="0.88"/>
</radialGradient>
<radialGradient id="paint14_radial_2062_7" cx="0" cy="0" r="1" gradientUnits="userSpaceOnUse" gradientTransform="translate(209.519 47.4708) rotate(106.216) scale(173.426 362.476)">
<stop stop-color="#EFAAEA"/>
<stop offset="1" stop-color="#56544A" stop-opacity="0.12"/>
</radialGradient>
<radialGradient id="paint15_radial_2062_7" cx="0" cy="0" r="1" gradientUnits="userSpaceOnUse" gradientTransform="translate(63.4145 84.1861) rotate(53.3263) scale(125.966 264.637)">
<stop stop-color="#EFAAEA"/>
<stop offset="0.0001" stop-color="#06041E"/>
<stop offset="0.41" stop-color="#06041E"/>
<stop offset="0.9999" stop-color="#EFAAEA"/>
<stop offset="1" stop-color="white"/>
</radialGradient>
</defs>
</svg>
