<svg width="234" height="235" viewBox="0 0 234 235" fill="none" xmlns="http://www.w3.org/2000/svg">
<mask id="mask0_2062_6" style="mask-type:alpha" maskUnits="userSpaceOnUse" x="5" y="6" width="224" height="224">
<ellipse cx="117" cy="117.957" rx="112" ry="111.957" fill="#D9D9D9"/>
</mask>
<g mask="url(#mask0_2062_6)">
<g filter="url(#filter0_dddi_2062_6)">
<path d="M-62.7209 76.5826C-62.7209 33.5688 -48.1972 -1.30078 -30.2812 -1.30078H261.677C279.593 -1.30078 294.116 33.5688 294.116 76.5826V159.334C294.116 202.347 279.593 237.217 261.677 237.217H-30.2812C-48.1972 237.217 -62.7209 202.347 -62.7209 159.334V76.5826Z" fill="#030303"/>
<path d="M-62.7209 76.5826C-62.7209 33.5688 -48.1972 -1.30078 -30.2812 -1.30078H261.677C279.593 -1.30078 294.116 33.5688 294.116 76.5826V159.334C294.116 202.347 279.593 237.217 261.677 237.217H-30.2812C-48.1972 237.217 -62.7209 202.347 -62.7209 159.334V76.5826Z" fill="url(#paint0_radial_2062_6)"/>
<path d="M-62.7209 76.5826C-62.7209 33.5688 -48.1972 -1.30078 -30.2812 -1.30078H261.677C279.593 -1.30078 294.116 33.5688 294.116 76.5826V159.334C294.116 202.347 279.593 237.217 261.677 237.217H-30.2812C-48.1972 237.217 -62.7209 202.347 -62.7209 159.334V76.5826Z" fill="url(#paint1_radial_2062_6)"/>
<path d="M-62.7209 76.5826C-62.7209 33.5688 -48.1972 -1.30078 -30.2812 -1.30078H261.677C279.593 -1.30078 294.116 33.5688 294.116 76.5826V159.334C294.116 202.347 279.593 237.217 261.677 237.217H-30.2812C-48.1972 237.217 -62.7209 202.347 -62.7209 159.334V76.5826Z" fill="url(#paint2_radial_2062_6)"/>
<path d="M-62.7209 76.5826C-62.7209 33.5688 -48.1972 -1.30078 -30.2812 -1.30078H261.677C279.593 -1.30078 294.116 33.5688 294.116 76.5826V159.334C294.116 202.347 279.593 237.217 261.677 237.217H-30.2812C-48.1972 237.217 -62.7209 202.347 -62.7209 159.334V76.5826Z" fill="url(#paint3_radial_2062_6)" fill-opacity="0.5"/>
<path d="M-62.7209 76.5826C-62.7209 33.5688 -48.1972 -1.30078 -30.2812 -1.30078H261.677C279.593 -1.30078 294.116 33.5688 294.116 76.5826V159.334C294.116 202.347 279.593 237.217 261.677 237.217H-30.2812C-48.1972 237.217 -62.7209 202.347 -62.7209 159.334V76.5826Z" fill="#030303"/>
<path d="M-62.7209 76.5826C-62.7209 33.5688 -48.1972 -1.30078 -30.2812 -1.30078H261.677C279.593 -1.30078 294.116 33.5688 294.116 76.5826V159.334C294.116 202.347 279.593 237.217 261.677 237.217H-30.2812C-48.1972 237.217 -62.7209 202.347 -62.7209 159.334V76.5826Z" fill="url(#paint4_radial_2062_6)"/>
<path d="M-62.7209 76.5826C-62.7209 33.5688 -48.1972 -1.30078 -30.2812 -1.30078H261.677C279.593 -1.30078 294.116 33.5688 294.116 76.5826V159.334C294.116 202.347 279.593 237.217 261.677 237.217H-30.2812C-48.1972 237.217 -62.7209 202.347 -62.7209 159.334V76.5826Z" fill="url(#paint5_radial_2062_6)"/>
<path d="M-62.7209 76.5826C-62.7209 33.5688 -48.1972 -1.30078 -30.2812 -1.30078H261.677C279.593 -1.30078 294.116 33.5688 294.116 76.5826V159.334C294.116 202.347 279.593 237.217 261.677 237.217H-30.2812C-48.1972 237.217 -62.7209 202.347 -62.7209 159.334V76.5826Z" fill="url(#paint6_radial_2062_6)"/>
<path d="M-62.7209 76.5826C-62.7209 33.5688 -48.1972 -1.30078 -30.2812 -1.30078H261.677C279.593 -1.30078 294.116 33.5688 294.116 76.5826V159.334C294.116 202.347 279.593 237.217 261.677 237.217H-30.2812C-48.1972 237.217 -62.7209 202.347 -62.7209 159.334V76.5826Z" fill="url(#paint7_radial_2062_6)" fill-opacity="0.5"/>
<path d="M-61.2209 76.5826C-61.2209 55.2242 -57.6122 35.9581 -51.8349 22.0875C-48.9448 15.1489 -45.5417 9.63172 -41.8394 5.87216C-38.1424 2.11787 -34.2375 0.199219 -30.2812 0.199219H261.677C265.633 0.199219 269.538 2.11787 273.235 5.87216C276.937 9.63172 280.34 15.1489 283.23 22.0875C289.008 35.9581 292.616 55.2242 292.616 76.5826V159.334C292.616 180.692 289.008 199.958 283.23 213.829C280.34 220.767 276.937 226.284 273.235 230.044C269.538 233.798 265.633 235.717 261.677 235.717H-30.2812C-34.2375 235.717 -38.1424 233.798 -41.8394 230.044C-45.5417 226.284 -48.9448 220.767 -51.8349 213.829C-57.6122 199.958 -61.2209 180.692 -61.2209 159.334V76.5826Z" stroke="white" stroke-width="3"/>
</g>
</g>
<g filter="url(#filter1_d_2062_6)">
<mask id="mask1_2062_6" style="mask-type:alpha" maskUnits="userSpaceOnUse" x="33" y="33" width="168" height="169">
<path d="M198.5 117.957C198.5 162.95 162.012 199.425 117 199.425C71.9879 199.425 35.5 162.95 35.5 117.957C35.5 72.9646 71.9879 36.4893 117 36.4893C162.012 36.4893 198.5 72.9646 198.5 117.957Z" fill="#D9D9D9" stroke="white" stroke-width="5"/>
</mask>
<g mask="url(#mask1_2062_6)">
<g filter="url(#filter2_dddi_2062_6)">
<path d="M-8.77083 52.9505C-0.944013 19.2885 21.1869 -4.32957 40.6599 0.198136L357.991 73.9814C377.464 78.5091 386.905 109.468 379.078 143.13L364.021 207.89C356.194 241.552 334.063 265.17 314.59 260.642L-2.74096 186.859C-22.214 182.331 -31.6551 151.372 -23.8283 117.71L-8.77083 52.9505Z" fill="#030303"/>
<path d="M-8.77083 52.9505C-0.944013 19.2885 21.1869 -4.32957 40.6599 0.198136L357.991 73.9814C377.464 78.5091 386.905 109.468 379.078 143.13L364.021 207.89C356.194 241.552 334.063 265.17 314.59 260.642L-2.74096 186.859C-22.214 182.331 -31.6551 151.372 -23.8283 117.71L-8.77083 52.9505Z" fill="url(#paint8_radial_2062_6)"/>
<path d="M-8.77083 52.9505C-0.944013 19.2885 21.1869 -4.32957 40.6599 0.198136L357.991 73.9814C377.464 78.5091 386.905 109.468 379.078 143.13L364.021 207.89C356.194 241.552 334.063 265.17 314.59 260.642L-2.74096 186.859C-22.214 182.331 -31.6551 151.372 -23.8283 117.71L-8.77083 52.9505Z" fill="url(#paint9_radial_2062_6)"/>
<path d="M-8.77083 52.9505C-0.944013 19.2885 21.1869 -4.32957 40.6599 0.198136L357.991 73.9814C377.464 78.5091 386.905 109.468 379.078 143.13L364.021 207.89C356.194 241.552 334.063 265.17 314.59 260.642L-2.74096 186.859C-22.214 182.331 -31.6551 151.372 -23.8283 117.71L-8.77083 52.9505Z" fill="url(#paint10_radial_2062_6)"/>
<path d="M-8.77083 52.9505C-0.944013 19.2885 21.1869 -4.32957 40.6599 0.198136L357.991 73.9814C377.464 78.5091 386.905 109.468 379.078 143.13L364.021 207.89C356.194 241.552 334.063 265.17 314.59 260.642L-2.74096 186.859C-22.214 182.331 -31.6551 151.372 -23.8283 117.71L-8.77083 52.9505Z" fill="url(#paint11_radial_2062_6)" fill-opacity="0.5"/>
<path d="M-8.77083 52.9505C-0.944013 19.2885 21.1869 -4.32957 40.6599 0.198136L357.991 73.9814C377.464 78.5091 386.905 109.468 379.078 143.13L364.021 207.89C356.194 241.552 334.063 265.17 314.59 260.642L-2.74096 186.859C-22.214 182.331 -31.6551 151.372 -23.8283 117.71L-8.77083 52.9505Z" fill="#030303"/>
<path d="M-8.77083 52.9505C-0.944013 19.2885 21.1869 -4.32957 40.6599 0.198136L357.991 73.9814C377.464 78.5091 386.905 109.468 379.078 143.13L364.021 207.89C356.194 241.552 334.063 265.17 314.59 260.642L-2.74096 186.859C-22.214 182.331 -31.6551 151.372 -23.8283 117.71L-8.77083 52.9505Z" fill="url(#paint12_radial_2062_6)"/>
<path d="M-8.77083 52.9505C-0.944013 19.2885 21.1869 -4.32957 40.6599 0.198136L357.991 73.9814C377.464 78.5091 386.905 109.468 379.078 143.13L364.021 207.89C356.194 241.552 334.063 265.17 314.59 260.642L-2.74096 186.859C-22.214 182.331 -31.6551 151.372 -23.8283 117.71L-8.77083 52.9505Z" fill="url(#paint13_radial_2062_6)"/>
<path d="M-8.77083 52.9505C-0.944013 19.2885 21.1869 -4.32957 40.6599 0.198136L357.991 73.9814C377.464 78.5091 386.905 109.468 379.078 143.13L364.021 207.89C356.194 241.552 334.063 265.17 314.59 260.642L-2.74096 186.859C-22.214 182.331 -31.6551 151.372 -23.8283 117.71L-8.77083 52.9505Z" fill="url(#paint14_radial_2062_6)"/>
<path d="M-8.77083 52.9505C-0.944013 19.2885 21.1869 -4.32957 40.6599 0.198136L357.991 73.9814C377.464 78.5091 386.905 109.468 379.078 143.13L364.021 207.89C356.194 241.552 334.063 265.17 314.59 260.642L-2.74096 186.859C-22.214 182.331 -31.6551 151.372 -23.8283 117.71L-8.77083 52.9505Z" fill="url(#paint15_radial_2062_6)" fill-opacity="0.5"/>
<path d="M-6.33578 53.5167C-2.5038 37.0359 4.80718 23.1344 13.4015 13.9626C22.0472 4.7359 31.5931 0.656676 40.0937 2.63318L357.425 76.4164C365.926 78.3929 372.693 86.2651 376.381 98.3595C380.047 110.382 380.475 126.083 376.643 142.564L361.586 207.324C357.754 223.804 350.443 237.706 341.849 246.878C333.203 256.104 323.657 260.184 315.156 258.207L-2.17479 184.424C-10.6755 182.447 -17.4425 174.575 -21.1308 162.481C-24.7971 150.458 -25.2252 134.757 -21.3932 118.277L-6.33578 53.5167Z" stroke="white" stroke-width="5"/>
</g>
</g>
</g>
<circle cx="117" cy="118" r="16" fill="white"/>
<circle cx="116.5" cy="117.5" r="25" stroke="white" stroke-width="3"/>
<defs>
<filter id="filter0_dddi_2062_6" x="-132.721" y="-61.3008" width="516.837" height="398.518" filterUnits="userSpaceOnUse" color-interpolation-filters="sRGB">
<feFlood flood-opacity="0" result="BackgroundImageFix"/>
<feColorMatrix in="SourceAlpha" type="matrix" values="0 0 0 0 0 0 0 0 0 0 0 0 0 0 0 0 0 0 127 0" result="hardAlpha"/>
<feOffset dx="10" dy="20"/>
<feGaussianBlur stdDeviation="40"/>
<feComposite in2="hardAlpha" operator="out"/>
<feColorMatrix type="matrix" values="0 0 0 0 0.384314 0 0 0 0 0.368627 0 0 0 0 0.615686 0 0 0 0.3 0"/>
<feBlend mode="normal" in2="BackgroundImageFix" result="effect1_dropShadow_2062_6"/>
<feColorMatrix in="SourceAlpha" type="matrix" values="0 0 0 0 0 0 0 0 0 0 0 0 0 0 0 0 0 0 127 0" result="hardAlpha"/>
<feOffset dx="-10" dy="-10"/>
<feGaussianBlur stdDeviation="25"/>
<feComposite in2="hardAlpha" operator="out"/>
<feColorMatrix type="matrix" values="0 0 0 0 0.64707 0 0 0 0 0.450537 0 0 0 0 0.632829 0 0 0 0.5 0"/>
<feBlend mode="normal" in2="effect1_dropShadow_2062_6" result="effect2_dropShadow_2062_6"/>
<feColorMatrix in="SourceAlpha" type="matrix" values="0 0 0 0 0 0 0 0 0 0 0 0 0 0 0 0 0 0 127 0" result="hardAlpha"/>
<feOffset dy="20"/>
<feGaussianBlur stdDeviation="15"/>
<feComposite in2="hardAlpha" operator="out"/>
<feColorMatrix type="matrix" values="0 0 0 0 0.0313726 0 0 0 0 0.0196078 0 0 0 0 0.207843 0 0 0 0.3 0"/>
<feBlend mode="normal" in2="effect2_dropShadow_2062_6" result="effect3_dropShadow_2062_6"/>
<feBlend mode="normal" in="SourceGraphic" in2="effect3_dropShadow_2062_6" result="shape"/>
<feColorMatrix in="SourceAlpha" type="matrix" values="0 0 0 0 0 0 0 0 0 0 0 0 0 0 0 0 0 0 127 0" result="hardAlpha"/>
<feOffset/>
<feGaussianBlur stdDeviation="15"/>
<feComposite in2="hardAlpha" operator="arithmetic" k2="-1" k3="1"/>
<feColorMatrix type="matrix" values="0 0 0 0 1 0 0 0 0 1 0 0 0 0 1 0 0 0 0.72 0"/>
<feBlend mode="normal" in2="shape" result="effect4_innerShadow_2062_6"/>
</filter>
<filter id="filter1_d_2062_6" x="0" y="0.989258" width="234" height="233.936" filterUnits="userSpaceOnUse" color-interpolation-filters="sRGB">
<feFlood flood-opacity="0" result="BackgroundImageFix"/>
<feColorMatrix in="SourceAlpha" type="matrix" values="0 0 0 0 0 0 0 0 0 0 0 0 0 0 0 0 0 0 127 0" result="hardAlpha"/>
<feOffset/>
<feGaussianBlur stdDeviation="16.5"/>
<feComposite in2="hardAlpha" operator="out"/>
<feColorMatrix type="matrix" values="0 0 0 0 1 0 0 0 0 1 0 0 0 0 1 0 0 0 0.85 0"/>
<feBlend mode="normal" in2="BackgroundImageFix" result="effect1_dropShadow_2062_6"/>
<feBlend mode="normal" in="SourceGraphic" in2="effect1_dropShadow_2062_6" result="shape"/>
</filter>
<filter id="filter2_dddi_2062_6" x="-79.0798" y="-45.3584" width="528.41" height="381.557" filterUnits="userSpaceOnUse" color-interpolation-filters="sRGB">
<feFlood flood-opacity="0" result="BackgroundImageFix"/>
<feColorMatrix in="SourceAlpha" type="matrix" values="0 0 0 0 0 0 0 0 0 0 0 0 0 0 0 0 0 0 127 0" result="hardAlpha"/>
<feOffset dx="7.5" dy="15"/>
<feGaussianBlur stdDeviation="30"/>
<feComposite in2="hardAlpha" operator="out"/>
<feColorMatrix type="matrix" values="0 0 0 0 0.384314 0 0 0 0 0.368627 0 0 0 0 0.615686 0 0 0 0.3 0"/>
<feBlend mode="normal" in2="BackgroundImageFix" result="effect1_dropShadow_2062_6"/>
<feColorMatrix in="SourceAlpha" type="matrix" values="0 0 0 0 0 0 0 0 0 0 0 0 0 0 0 0 0 0 127 0" result="hardAlpha"/>
<feOffset dx="-7.5" dy="-7.5"/>
<feGaussianBlur stdDeviation="18.75"/>
<feComposite in2="hardAlpha" operator="out"/>
<feColorMatrix type="matrix" values="0 0 0 0 0.64707 0 0 0 0 0.450537 0 0 0 0 0.632829 0 0 0 0.5 0"/>
<feBlend mode="normal" in2="effect1_dropShadow_2062_6" result="effect2_dropShadow_2062_6"/>
<feColorMatrix in="SourceAlpha" type="matrix" values="0 0 0 0 0 0 0 0 0 0 0 0 0 0 0 0 0 0 127 0" result="hardAlpha"/>
<feOffset dy="15"/>
<feGaussianBlur stdDeviation="11.25"/>
<feComposite in2="hardAlpha" operator="out"/>
<feColorMatrix type="matrix" values="0 0 0 0 0.0313726 0 0 0 0 0.0196078 0 0 0 0 0.207843 0 0 0 0.3 0"/>
<feBlend mode="normal" in2="effect2_dropShadow_2062_6" result="effect3_dropShadow_2062_6"/>
<feBlend mode="normal" in="SourceGraphic" in2="effect3_dropShadow_2062_6" result="shape"/>
<feColorMatrix in="SourceAlpha" type="matrix" values="0 0 0 0 0 0 0 0 0 0 0 0 0 0 0 0 0 0 127 0" result="hardAlpha"/>
<feOffset/>
<feGaussianBlur stdDeviation="11.25"/>
<feComposite in2="hardAlpha" operator="arithmetic" k2="-1" k3="1"/>
<feColorMatrix type="matrix" values="0 0 0 0 1 0 0 0 0 1 0 0 0 0 1 0 0 0 0.72 0"/>
<feBlend mode="normal" in2="shape" result="effect4_innerShadow_2062_6"/>
</filter>
<radialGradient id="paint0_radial_2062_6" cx="0" cy="0" r="1" gradientUnits="userSpaceOnUse" gradientTransform="translate(93.3953 -75.8376) rotate(68.6556) scale(284.092 52.8168)">
<stop offset="0.212469" stop-color="#181118" stop-opacity="0.53"/>
<stop offset="1"/>
</radialGradient>
<radialGradient id="paint1_radial_2062_6" cx="0" cy="0" r="1" gradientUnits="userSpaceOnUse" gradientTransform="translate(6.21351 95.597) rotate(22.501) scale(311.626 118.658)">
<stop stop-color="#625E9D"/>
<stop offset="1" stop-color="#080535" stop-opacity="0.56"/>
</radialGradient>
<radialGradient id="paint2_radial_2062_6" cx="0" cy="0" r="1" gradientUnits="userSpaceOnUse" gradientTransform="translate(164.357 -31.1155) rotate(92.2521) scale(309.567 466.534)">
<stop stop-color="#625E9D"/>
<stop offset="1" stop-color="#56544A" stop-opacity="0.12"/>
</radialGradient>
<radialGradient id="paint3_radial_2062_6" cx="0" cy="0" r="1" gradientUnits="userSpaceOnUse" gradientTransform="translate(-7.97887 91.8702) rotate(49.6053) scale(190.844 401.301)">
<stop stop-color="#080535"/>
<stop offset="1" stop-color="white"/>
</radialGradient>
<radialGradient id="paint4_radial_2062_6" cx="0" cy="0" r="1" gradientUnits="userSpaceOnUse" gradientTransform="translate(93.3953 -75.8376) rotate(68.6556) scale(284.092 52.8168)">
<stop offset="0.212469" stop-color="#181118" stop-opacity="0.53"/>
<stop offset="1"/>
</radialGradient>
<radialGradient id="paint5_radial_2062_6" cx="0" cy="0" r="1" gradientUnits="userSpaceOnUse" gradientTransform="translate(6.21351 95.597) rotate(22.501) scale(311.626 118.658)">
<stop stop-color="#080535"/>
<stop offset="1" stop-color="#625E9D" stop-opacity="0.88"/>
</radialGradient>
<radialGradient id="paint6_radial_2062_6" cx="0" cy="0" r="1" gradientUnits="userSpaceOnUse" gradientTransform="translate(164.357 -31.1155) rotate(92.2521) scale(309.567 466.534)">
<stop stop-color="#EFAAEA"/>
<stop offset="1" stop-color="#56544A" stop-opacity="0.12"/>
</radialGradient>
<radialGradient id="paint7_radial_2062_6" cx="0" cy="0" r="1" gradientUnits="userSpaceOnUse" gradientTransform="translate(-7.97887 91.8702) rotate(49.6053) scale(190.844 401.301)">
<stop stop-color="#EFAAEA"/>
<stop offset="1" stop-color="#625E9D"/>
</radialGradient>
<radialGradient id="paint8_radial_2062_6" cx="0" cy="0" r="1" gradientUnits="userSpaceOnUse" gradientTransform="translate(188.648 -26.878) rotate(74.5991) scale(241.895 55.6155)">
<stop offset="0.212469" stop-color="#181118" stop-opacity="0.53"/>
<stop offset="1"/>
</radialGradient>
<radialGradient id="paint9_radial_2062_6" cx="0" cy="0" r="1" gradientUnits="userSpaceOnUse" gradientTransform="translate(62.6947 85.252) rotate(29.6967) scale(335.256 98.8884)">
<stop stop-color="#625E9D"/>
<stop offset="1" stop-color="#080535" stop-opacity="0.56"/>
</radialGradient>
<radialGradient id="paint10_radial_2062_6" cx="0" cy="0" r="1" gradientUnits="userSpaceOnUse" gradientTransform="translate(257.639 26.0543) rotate(106.216) scale(248.904 520.232)">
<stop stop-color="#625E9D"/>
<stop offset="1" stop-color="#56544A" stop-opacity="0.12"/>
</radialGradient>
<radialGradient id="paint11_radial_2062_6" cx="0" cy="0" r="1" gradientUnits="userSpaceOnUse" gradientTransform="translate(47.947 78.7487) rotate(53.3263) scale(180.789 379.812)">
<stop stop-color="#080535"/>
<stop offset="1" stop-color="white"/>
</radialGradient>
<radialGradient id="paint12_radial_2062_6" cx="0" cy="0" r="1" gradientUnits="userSpaceOnUse" gradientTransform="translate(188.648 -26.878) rotate(74.5991) scale(241.895 55.6155)">
<stop offset="0.212469" stop-color="#181118" stop-opacity="0.53"/>
<stop offset="1"/>
</radialGradient>
<radialGradient id="paint13_radial_2062_6" cx="0" cy="0" r="1" gradientUnits="userSpaceOnUse" gradientTransform="translate(62.6947 85.252) rotate(29.6967) scale(335.256 98.8884)">
<stop stop-color="#080535"/>
<stop offset="1" stop-color="#625E9D" stop-opacity="0.88"/>
</radialGradient>
<radialGradient id="paint14_radial_2062_6" cx="0" cy="0" r="1" gradientUnits="userSpaceOnUse" gradientTransform="translate(257.639 26.0543) rotate(106.216) scale(248.904 520.232)">
<stop stop-color="#EFAAEA"/>
<stop offset="1" stop-color="#56544A" stop-opacity="0.12"/>
</radialGradient>
<radialGradient id="paint15_radial_2062_6" cx="0" cy="0" r="1" gradientUnits="userSpaceOnUse" gradientTransform="translate(47.947 78.7487) rotate(53.3263) scale(180.789 379.812)">
<stop stop-color="#EFAAEA"/>
<stop offset="0.0001" stop-color="#06041E"/>
<stop offset="0.41" stop-color="#06041E"/>
<stop offset="0.9999" stop-color="#EFAAEA"/>
<stop offset="1" stop-color="white"/>
</radialGradient>
</defs>
</svg>
