<svg width="264" height="297" viewBox="0 0 264 297" fill="none" xmlns="http://www.w3.org/2000/svg">
<rect width="264" height="297" fill="white"/>
<path d="M159.72 208.953C159.72 215.407 158.333 220.447 155.56 224.073C152.787 227.647 148.92 229.433 143.96 229.433C140.493 229.433 137.56 228.527 135.16 226.713C132.707 224.847 131.027 222.42 130.12 219.433C129 222.1 127.293 224.207 125 225.753C122.653 227.3 119.96 228.073 116.92 228.073C112.227 228.073 108.547 226.34 105.88 222.873C103.213 219.407 101.88 214.767 101.88 208.953C101.88 203.087 103.213 198.42 105.88 194.953C108.547 191.487 112.227 189.753 116.92 189.753C119.96 189.753 122.653 190.553 125 192.153C127.347 193.7 129.053 195.807 130.12 198.473C131.027 195.433 132.707 193.007 135.16 191.193C137.56 189.38 140.493 188.473 143.96 188.473C148.92 188.473 152.787 190.287 155.56 193.913C158.333 197.487 159.72 202.5 159.72 208.953ZM127.16 208.953C127.16 205.38 126.333 202.607 124.68 200.633C122.973 198.607 120.653 197.593 117.72 197.593C114.84 197.593 112.573 198.607 110.92 200.633C109.267 202.607 108.44 205.38 108.44 208.953C108.44 212.527 109.267 215.3 110.92 217.273C112.573 219.247 114.84 220.233 117.72 220.233C120.653 220.233 122.973 219.247 124.68 217.273C126.333 215.3 127.16 212.527 127.16 208.953ZM153.16 208.953C153.16 200.473 149.907 196.233 143.4 196.233C136.947 196.233 133.72 200.473 133.72 208.953C133.72 213.113 134.52 216.287 136.12 218.473C137.72 220.607 140.147 221.673 143.4 221.673C149.907 221.673 153.16 217.433 153.16 208.953Z" fill="black"/>
<path d="M159.72 149.865C159.72 152.851 159.32 155.918 158.52 159.065C157.72 162.158 156.467 164.825 154.76 167.065C154.067 168.131 153.24 168.771 152.28 168.985C151.32 169.198 150.467 169.091 149.72 168.665C148.92 168.238 148.387 167.571 148.12 166.665C147.853 165.758 148.067 164.745 148.76 163.625C150.147 161.331 151.16 159.091 151.8 156.905C152.387 154.718 152.68 152.451 152.68 150.105C152.68 146.265 151.853 143.358 150.2 141.385C148.547 139.358 146.173 138.345 143.08 138.345C139.987 138.345 137.693 139.358 136.2 141.385C134.707 143.358 133.96 146.238 133.96 150.025V155.465C133.96 157.971 132.787 159.225 130.44 159.225C128.147 159.225 127 157.971 127 155.465V150.825C127 147.465 126.147 144.825 124.44 142.905C122.733 140.931 120.387 139.945 117.4 139.945C114.68 139.945 112.6 140.851 111.16 142.665C109.667 144.478 108.92 147.065 108.92 150.425C108.92 152.665 109.213 154.745 109.8 156.665C110.387 158.585 111.427 160.585 112.92 162.665C113.56 163.678 113.773 164.611 113.56 165.465C113.293 166.318 112.787 166.985 112.04 167.465C111.24 167.891 110.387 168.025 109.48 167.865C108.52 167.705 107.693 167.118 107 166.105C105.347 163.865 104.093 161.358 103.24 158.585C102.333 155.758 101.88 152.825 101.88 149.785C101.88 144.131 103.187 139.731 105.8 136.585C108.36 133.438 111.933 131.865 116.52 131.865C119.613 131.865 122.333 132.665 124.68 134.265C127.027 135.811 128.733 137.971 129.8 140.745C130.653 137.385 132.307 134.798 134.76 132.985C137.16 131.171 140.12 130.265 143.64 130.265C148.6 130.265 152.52 132.025 155.4 135.545C158.28 139.011 159.72 143.785 159.72 149.865Z" fill="black"/>
<path d="M159.72 89.8959C159.72 92.8826 159.32 95.9492 158.52 99.0959C157.72 102.189 156.467 104.856 154.76 107.096C154.067 108.163 153.24 108.803 152.28 109.016C151.32 109.229 150.467 109.123 149.72 108.696C148.92 108.269 148.387 107.603 148.12 106.696C147.853 105.789 148.067 104.776 148.76 103.656C150.147 101.363 151.16 99.1226 151.8 96.9359C152.387 94.7492 152.68 92.4826 152.68 90.1359C152.68 86.2959 151.853 83.3892 150.2 81.4159C148.547 79.3892 146.173 78.3759 143.08 78.3759C139.987 78.3759 137.693 79.3892 136.2 81.4159C134.707 83.3892 133.96 86.2692 133.96 90.0559V95.4959C133.96 98.0026 132.787 99.2559 130.44 99.2559C128.147 99.2559 127 98.0026 127 95.4959V90.8559C127 87.4959 126.147 84.8559 124.44 82.9359C122.733 80.9626 120.387 79.9759 117.4 79.9759C114.68 79.9759 112.6 80.8826 111.16 82.6959C109.667 84.5092 108.92 87.0959 108.92 90.4559C108.92 92.6959 109.213 94.7759 109.8 96.6959C110.387 98.6159 111.427 100.616 112.92 102.696C113.56 103.709 113.773 104.643 113.56 105.496C113.293 106.349 112.787 107.016 112.04 107.496C111.24 107.923 110.387 108.056 109.48 107.896C108.52 107.736 107.693 107.149 107 106.136C105.347 103.896 104.093 101.389 103.24 98.6159C102.333 95.7892 101.88 92.8559 101.88 89.8159C101.88 84.1626 103.187 79.7626 105.8 76.6159C108.36 73.4692 111.933 71.8959 116.52 71.8959C119.613 71.8959 122.333 72.6959 124.68 74.2959C127.027 75.8426 128.733 78.0026 129.8 80.7759C130.653 77.4159 132.307 74.8292 134.76 73.0159C137.16 71.2026 140.12 70.2959 143.64 70.2959C148.6 70.2959 152.52 72.0559 155.4 75.5759C158.28 79.0426 159.72 83.8159 159.72 89.8959Z" fill="black"/>
</svg>
