<svg width="264" height="156" viewBox="0 0 264 156" fill="none" xmlns="http://www.w3.org/2000/svg">
<mask id="mask0_2006_59" style="mask-type:alpha" maskUnits="userSpaceOnUse" x="0" y="0" width="264" height="156">
<rect width="264" height="156" fill="#D9D9D9"/>
</mask>
<g mask="url(#mask0_2006_59)">
<rect y="-141" width="264" height="297" fill="white"/>
<path d="M159.72 67.9534C159.72 74.4067 158.333 79.4467 155.56 83.0734C152.787 86.6467 148.92 88.4334 143.96 88.4334C140.493 88.4334 137.56 87.5267 135.16 85.7134C132.707 83.8467 131.027 81.4201 130.12 78.4334C129 81.1001 127.293 83.2067 125 84.7534C122.653 86.3001 119.96 87.0734 116.92 87.0734C112.227 87.0734 108.547 85.3401 105.88 81.8734C103.213 78.4067 101.88 73.7667 101.88 67.9534C101.88 62.0867 103.213 57.4201 105.88 53.9534C108.547 50.4867 112.227 48.7534 116.92 48.7534C119.96 48.7534 122.653 49.5534 125 51.1534C127.347 52.7001 129.053 54.8067 130.12 57.4734C131.027 54.4334 132.707 52.0067 135.16 50.1934C137.56 48.3801 140.493 47.4734 143.96 47.4734C148.92 47.4734 152.787 49.2867 155.56 52.9134C158.333 56.4867 159.72 61.5001 159.72 67.9534ZM127.16 67.9534C127.16 64.3801 126.333 61.6067 124.68 59.6334C122.973 57.6067 120.653 56.5934 117.72 56.5934C114.84 56.5934 112.573 57.6067 110.92 59.6334C109.267 61.6067 108.44 64.3801 108.44 67.9534C108.44 71.5267 109.267 74.3001 110.92 76.2734C112.573 78.2467 114.84 79.2334 117.72 79.2334C120.653 79.2334 122.973 78.2467 124.68 76.2734C126.333 74.3001 127.16 71.5267 127.16 67.9534ZM153.16 67.9534C153.16 59.4734 149.907 55.2334 143.4 55.2334C136.947 55.2334 133.72 59.4734 133.72 67.9534C133.72 72.1134 134.52 75.2867 136.12 77.4734C137.72 79.6067 140.147 80.6734 143.4 80.6734C149.907 80.6734 153.16 76.4334 153.16 67.9534Z" fill="black"/>
<path d="M159.72 8.86465C159.72 11.8513 159.32 14.918 158.52 18.0647C157.72 21.158 156.467 23.8247 154.76 26.0647C154.067 27.1313 153.24 27.7713 152.28 27.9846C151.32 28.198 150.467 28.0913 149.72 27.6646C148.92 27.238 148.387 26.5713 148.12 25.6646C147.853 24.758 148.067 23.7447 148.76 22.6246C150.147 20.3313 151.16 18.0913 151.8 15.9046C152.387 13.718 152.68 11.4513 152.68 9.10465C152.68 5.26466 151.853 2.35799 150.2 0.384651C148.547 -1.64201 146.173 -2.65535 143.08 -2.65535C139.987 -2.65535 137.693 -1.64201 136.2 0.384651C134.707 2.35799 133.96 5.23798 133.96 9.02465V14.4647C133.96 16.9713 132.787 18.2246 130.44 18.2246C128.147 18.2246 127 16.9713 127 14.4647V9.82465C127 6.46465 126.147 3.82465 124.44 1.90465C122.733 -0.0686874 120.387 -1.05535 117.4 -1.05535C114.68 -1.05535 112.6 -0.148682 111.16 1.66465C109.667 3.47798 108.92 6.06465 108.92 9.42465C108.92 11.6646 109.213 13.7447 109.8 15.6646C110.387 17.5846 111.427 19.5846 112.92 21.6646C113.56 22.678 113.773 23.6113 113.56 24.4647C113.293 25.318 112.787 25.9846 112.04 26.4647C111.24 26.8913 110.387 27.0247 109.48 26.8647C108.52 26.7047 107.693 26.118 107 25.1047C105.347 22.8647 104.093 20.358 103.24 17.5846C102.333 14.758 101.88 11.8247 101.88 8.78465C101.88 3.13132 103.187 -1.26868 105.8 -4.41535C108.36 -7.56202 111.933 -9.13535 116.52 -9.13535C119.613 -9.13535 122.333 -8.33535 124.68 -6.73535C127.027 -5.18868 128.733 -3.02868 129.8 -0.255348C130.653 -3.61535 132.307 -6.20202 134.76 -8.01535C137.16 -9.82869 140.12 -10.7354 143.64 -10.7354C148.6 -10.7354 152.52 -8.97535 155.4 -5.45535C158.28 -1.98869 159.72 2.78465 159.72 8.86465Z" fill="black"/>
<path d="M159.72 -51.1041C159.72 -48.1174 159.32 -45.0508 158.52 -41.9041C157.72 -38.8108 156.467 -36.1441 154.76 -33.9041C154.067 -32.8374 153.24 -32.1974 152.28 -31.9841C151.32 -31.7708 150.467 -31.8774 149.72 -32.3041C148.92 -32.7308 148.387 -33.3974 148.12 -34.3041C147.853 -35.2108 148.067 -36.2241 148.76 -37.3441C150.147 -39.6374 151.16 -41.8774 151.8 -44.0641C152.387 -46.2508 152.68 -48.5174 152.68 -50.8641C152.68 -54.7041 151.853 -57.6108 150.2 -59.5841C148.547 -61.6108 146.173 -62.6241 143.08 -62.6241C139.987 -62.6241 137.693 -61.6108 136.2 -59.5841C134.707 -57.6108 133.96 -54.7308 133.96 -50.9441V-45.5041C133.96 -42.9974 132.787 -41.7441 130.44 -41.7441C128.147 -41.7441 127 -42.9974 127 -45.5041V-50.1441C127 -53.5041 126.147 -56.1441 124.44 -58.0641C122.733 -60.0374 120.387 -61.0241 117.4 -61.0241C114.68 -61.0241 112.6 -60.1174 111.16 -58.3041C109.667 -56.4908 108.92 -53.9041 108.92 -50.5441C108.92 -48.3041 109.213 -46.2241 109.8 -44.3041C110.387 -42.3841 111.427 -40.3841 112.92 -38.3041C113.56 -37.2908 113.773 -36.3574 113.56 -35.5041C113.293 -34.6508 112.787 -33.9841 112.04 -33.5041C111.24 -33.0774 110.387 -32.9441 109.48 -33.1041C108.52 -33.2641 107.693 -33.8508 107 -34.8641C105.347 -37.1041 104.093 -39.6108 103.24 -42.3841C102.333 -45.2108 101.88 -48.1441 101.88 -51.1841C101.88 -56.8374 103.187 -61.2374 105.8 -64.3841C108.36 -67.5308 111.933 -69.1041 116.52 -69.1041C119.613 -69.1041 122.333 -68.3041 124.68 -66.7041C127.027 -65.1574 128.733 -62.9974 129.8 -60.2241C130.653 -63.5841 132.307 -66.1708 134.76 -67.9841C137.16 -69.7974 140.12 -70.7041 143.64 -70.7041C148.6 -70.7041 152.52 -68.9441 155.4 -65.4241C158.28 -61.9574 159.72 -57.1841 159.72 -51.1041Z" fill="black"/>
</g>
</svg>
