<svg width="264" height="92" viewBox="0 0 264 92" fill="none" xmlns="http://www.w3.org/2000/svg">
<mask id="mask0_2006_58" style="mask-type:alpha" maskUnits="userSpaceOnUse" x="0" y="0" width="264" height="92">
<rect width="264" height="92" fill="#D9D9D9"/>
</mask>
<g mask="url(#mask0_2006_58)">
<rect y="-205" width="264" height="297" fill="white"/>
<path d="M159.72 3.9534C159.72 10.4067 158.333 15.4467 155.56 19.0734C152.787 22.6467 148.92 24.4334 143.96 24.4334C140.493 24.4334 137.56 23.5267 135.16 21.7134C132.707 19.8467 131.027 17.4201 130.12 14.4334C129 17.1001 127.293 19.2067 125 20.7534C122.653 22.3001 119.96 23.0734 116.92 23.0734C112.227 23.0734 108.547 21.3401 105.88 17.8734C103.213 14.4067 101.88 9.76674 101.88 3.9534C101.88 -1.91327 103.213 -6.57994 105.88 -10.0466C108.547 -13.5133 112.227 -15.2466 116.92 -15.2466C119.96 -15.2466 122.653 -14.4466 125 -12.8466C127.347 -11.2999 129.053 -9.19326 130.12 -6.5266C131.027 -9.5666 132.707 -11.9933 135.16 -13.8066C137.56 -15.6199 140.493 -16.5266 143.96 -16.5266C148.92 -16.5266 152.787 -14.7133 155.56 -11.0866C158.333 -7.51327 159.72 -2.49994 159.72 3.9534ZM127.16 3.9534C127.16 0.380066 126.333 -2.39326 124.68 -4.36659C122.973 -6.39326 120.653 -7.4066 117.72 -7.4066C114.84 -7.4066 112.573 -6.39326 110.92 -4.36659C109.267 -2.39326 108.44 0.380066 108.44 3.9534C108.44 7.52673 109.267 10.3001 110.92 12.2734C112.573 14.2467 114.84 15.2334 117.72 15.2334C120.653 15.2334 122.973 14.2467 124.68 12.2734C126.333 10.3001 127.16 7.52673 127.16 3.9534ZM153.16 3.9534C153.16 -4.5266 149.907 -8.7666 143.4 -8.7666C136.947 -8.7666 133.72 -4.5266 133.72 3.9534C133.72 8.1134 134.52 11.2867 136.12 13.4734C137.72 15.6067 140.147 16.6734 143.4 16.6734C149.907 16.6734 153.16 12.4334 153.16 3.9534Z" fill="black"/>
<path d="M159.72 -55.1353C159.72 -52.1487 159.32 -49.082 158.52 -45.9353C157.72 -42.842 156.467 -40.1753 154.76 -37.9353C154.067 -36.8687 153.24 -36.2287 152.28 -36.0154C151.32 -35.802 150.467 -35.9087 149.72 -36.3354C148.92 -36.762 148.387 -37.4287 148.12 -38.3354C147.853 -39.242 148.067 -40.2553 148.76 -41.3754C150.147 -43.6687 151.16 -45.9087 151.8 -48.0954C152.387 -50.282 152.68 -52.5487 152.68 -54.8953C152.68 -58.7353 151.853 -61.642 150.2 -63.6153C148.547 -65.642 146.173 -66.6553 143.08 -66.6553C139.987 -66.6553 137.693 -65.642 136.2 -63.6153C134.707 -61.642 133.96 -58.762 133.96 -54.9753V-49.5353C133.96 -47.0287 132.787 -45.7754 130.44 -45.7754C128.147 -45.7754 127 -47.0287 127 -49.5353V-54.1753C127 -57.5353 126.147 -60.1754 124.44 -62.0954C122.733 -64.0687 120.387 -65.0554 117.4 -65.0554C114.68 -65.0554 112.6 -64.1487 111.16 -62.3354C109.667 -60.522 108.92 -57.9353 108.92 -54.5753C108.92 -52.3354 109.213 -50.2553 109.8 -48.3354C110.387 -46.4154 111.427 -44.4154 112.92 -42.3354C113.56 -41.322 113.773 -40.3887 113.56 -39.5353C113.293 -38.682 112.787 -38.0154 112.04 -37.5353C111.24 -37.1087 110.387 -36.9753 109.48 -37.1353C108.52 -37.2953 107.693 -37.882 107 -38.8953C105.347 -41.1353 104.093 -43.642 103.24 -46.4154C102.333 -49.242 101.88 -52.1753 101.88 -55.2153C101.88 -60.8687 103.187 -65.2687 105.8 -68.4154C108.36 -71.562 111.933 -73.1353 116.52 -73.1353C119.613 -73.1353 122.333 -72.3354 124.68 -70.7354C127.027 -69.1887 128.733 -67.0287 129.8 -64.2553C130.653 -67.6153 132.307 -70.202 134.76 -72.0154C137.16 -73.8287 140.12 -74.7354 143.64 -74.7354C148.6 -74.7354 152.52 -72.9754 155.4 -69.4554C158.28 -65.9887 159.72 -61.2153 159.72 -55.1353Z" fill="black"/>
<path d="M159.72 -115.104C159.72 -112.117 159.32 -109.051 158.52 -105.904C157.72 -102.811 156.467 -100.144 154.76 -97.9041C154.067 -96.8374 153.24 -96.1974 152.28 -95.9841C151.32 -95.7708 150.467 -95.8774 149.72 -96.3041C148.92 -96.7308 148.387 -97.3974 148.12 -98.3041C147.853 -99.2108 148.067 -100.224 148.76 -101.344C150.147 -103.637 151.16 -105.877 151.8 -108.064C152.387 -110.251 152.68 -112.517 152.68 -114.864C152.68 -118.704 151.853 -121.611 150.2 -123.584C148.547 -125.611 146.173 -126.624 143.08 -126.624C139.987 -126.624 137.693 -125.611 136.2 -123.584C134.707 -121.611 133.96 -118.731 133.96 -114.944V-109.504C133.96 -106.997 132.787 -105.744 130.44 -105.744C128.147 -105.744 127 -106.997 127 -109.504V-114.144C127 -117.504 126.147 -120.144 124.44 -122.064C122.733 -124.037 120.387 -125.024 117.4 -125.024C114.68 -125.024 112.6 -124.117 111.16 -122.304C109.667 -120.491 108.92 -117.904 108.92 -114.544C108.92 -112.304 109.213 -110.224 109.8 -108.304C110.387 -106.384 111.427 -104.384 112.92 -102.304C113.56 -101.291 113.773 -100.357 113.56 -99.5041C113.293 -98.6508 112.787 -97.9841 112.04 -97.5041C111.24 -97.0774 110.387 -96.9441 109.48 -97.1041C108.52 -97.2641 107.693 -97.8508 107 -98.8641C105.347 -101.104 104.093 -103.611 103.24 -106.384C102.333 -109.211 101.88 -112.144 101.88 -115.184C101.88 -120.837 103.187 -125.237 105.8 -128.384C108.36 -131.531 111.933 -133.104 116.52 -133.104C119.613 -133.104 122.333 -132.304 124.68 -130.704C127.027 -129.157 128.733 -126.997 129.8 -124.224C130.653 -127.584 132.307 -130.171 134.76 -131.984C137.16 -133.797 140.12 -134.704 143.64 -134.704C148.6 -134.704 152.52 -132.944 155.4 -129.424C158.28 -125.957 159.72 -121.184 159.72 -115.104Z" fill="black"/>
</g>
</svg>
