<svg width="335" height="144" viewBox="0 0 335 144" fill="none" xmlns="http://www.w3.org/2000/svg">
<path fill-rule="evenodd" clip-rule="evenodd" d="M8.50001 61.9999L1.25014e-05 71.5L8.50001 80.5L28.5 80.5L28.5 97.5L12.5 99L12.5 125.5L35 125.5L35 116L54.5 116L54.5 125.5L80 125.5L80 97.5L59.5 97.5L59.5 80.5L205 80.5L213 88L228.5 88L229.5 79L250 130.5L283.5 143.5L283.5 106.5L335 106.5L335 37.9999L283.5 38L283.5 -4.95687e-05L248 14.9999L229.5 60L228.5 51.4999L213 51.5L205 61.4999L8.50001 61.9999ZM295 50L295 93L328 93L328 50L295 50ZM257.062 125.287L251 106L272.216 106L273.318 131.349L257.062 125.287ZM251 38.3487L257.062 19.0616L273.318 13L272.216 38.3487L251 38.3487Z" fill="white"/>
<path fill-rule="evenodd" clip-rule="evenodd" d="M8.50001 61.9999L1.25014e-05 71.5L8.50001 80.5L28.5 80.5L28.5 97.5L12.5 99L12.5 125.5L35 125.5L35 116L54.5 116L54.5 125.5L80 125.5L80 97.5L59.5 97.5L59.5 80.5L205 80.5L213 88L228.5 88L229.5 79L250 130.5L283.5 143.5L283.5 106.5L335 106.5L335 37.9999L283.5 38L283.5 -4.95687e-05L248 14.9999L229.5 60L228.5 51.4999L213 51.5L205 61.4999L8.50001 61.9999ZM295 50L295 93L328 93L328 50L295 50ZM257.062 125.287L251 106L272.216 106L273.318 131.349L257.062 125.287ZM251 38.3487L257.062 19.0616L273.318 13L272.216 38.3487L251 38.3487Z" fill="url(#paint0_linear_2022_1034)"/>
<defs>
<linearGradient id="paint0_linear_2022_1034" x1="337.109" y1="97.7903" x2="-7.10918" y2="99.4596" gradientUnits="userSpaceOnUse">
<stop stop-color="#625E9D"/>
<stop offset="0.345" stop-color="#EAEAEA"/>
<stop offset="0.40444" stop-color="#6C699D"/>
<stop offset="0.555" stop-color="#FBB6F6"/>
<stop offset="0.99" stop-color="white"/>
</linearGradient>
</defs>
</svg>
