<svg width="270" height="271" viewBox="0 0 270 271" fill="none" xmlns="http://www.w3.org/2000/svg">
<g filter="url(#filter0_dddi_2014_523)">
<path d="M70.1256 94.2544C70.1256 72.2497 68.7969 60 74.7829 60H172.923C178.91 60 179.105 75.2531 179.105 97.2578V137.776C179.105 159.78 178.105 170.842 172.119 170.842H75.7144C69.7284 170.842 70.1258 158.592 70.1258 136.588L70.1256 94.2544Z" fill="#030303"/>
<path d="M70.1256 94.2544C70.1256 72.2497 68.7969 60 74.7829 60H172.923C178.91 60 179.105 75.2531 179.105 97.2578V137.776C179.105 159.78 178.105 170.842 172.119 170.842H75.7144C69.7284 170.842 70.1258 158.592 70.1258 136.588L70.1256 94.2544Z" fill="url(#paint0_radial_2014_523)"/>
<path d="M70.1256 94.2544C70.1256 72.2497 68.7969 60 74.7829 60H172.923C178.91 60 179.105 75.2531 179.105 97.2578V137.776C179.105 159.78 178.105 170.842 172.119 170.842H75.7144C69.7284 170.842 70.1258 158.592 70.1258 136.588L70.1256 94.2544Z" fill="url(#paint1_radial_2014_523)"/>
<path d="M70.1256 94.2544C70.1256 72.2497 68.7969 60 74.7829 60H172.923C178.91 60 179.105 75.2531 179.105 97.2578V137.776C179.105 159.78 178.105 170.842 172.119 170.842H75.7144C69.7284 170.842 70.1258 158.592 70.1258 136.588L70.1256 94.2544Z" fill="url(#paint2_radial_2014_523)"/>
<path d="M70.1256 94.2544C70.1256 72.2497 68.7969 60 74.7829 60H172.923C178.91 60 179.105 75.2531 179.105 97.2578V137.776C179.105 159.78 178.105 170.842 172.119 170.842H75.7144C69.7284 170.842 70.1258 158.592 70.1258 136.588L70.1256 94.2544Z" fill="url(#paint3_radial_2014_523)" fill-opacity="0.5"/>
<path d="M70.1256 94.2544C70.1256 72.2497 68.7969 60 74.7829 60H172.923C178.91 60 179.105 75.2531 179.105 97.2578V137.776C179.105 159.78 178.105 170.842 172.119 170.842H75.7144C69.7284 170.842 70.1258 158.592 70.1258 136.588L70.1256 94.2544Z" fill="#030303"/>
<path d="M70.1256 94.2544C70.1256 72.2497 68.7969 60 74.7829 60H172.923C178.91 60 179.105 75.2531 179.105 97.2578V137.776C179.105 159.78 178.105 170.842 172.119 170.842H75.7144C69.7284 170.842 70.1258 158.592 70.1258 136.588L70.1256 94.2544Z" fill="url(#paint4_radial_2014_523)"/>
<path d="M70.1256 94.2544C70.1256 72.2497 68.7969 60 74.7829 60H172.923C178.91 60 179.105 75.2531 179.105 97.2578V137.776C179.105 159.78 178.105 170.842 172.119 170.842H75.7144C69.7284 170.842 70.1258 158.592 70.1258 136.588L70.1256 94.2544Z" fill="url(#paint5_radial_2014_523)"/>
<path d="M70.1256 94.2544C70.1256 72.2497 68.7969 60 74.7829 60H172.923C178.91 60 179.105 75.2531 179.105 97.2578V137.776C179.105 159.78 178.105 170.842 172.119 170.842H75.7144C69.7284 170.842 70.1258 158.592 70.1258 136.588L70.1256 94.2544Z" fill="url(#paint6_radial_2014_523)"/>
<path d="M70.1256 94.2544C70.1256 72.2497 68.7969 60 74.7829 60H172.923C178.91 60 179.105 75.2531 179.105 97.2578V137.776C179.105 159.78 178.105 170.842 172.119 170.842H75.7144C69.7284 170.842 70.1258 158.592 70.1258 136.588L70.1256 94.2544Z" fill="url(#paint7_radial_2014_523)" fill-opacity="0.5"/>
<path d="M71.6256 94.2544C71.6256 90.527 71.5883 87.1017 71.5543 83.9783C71.487 77.7966 71.4326 72.798 71.7057 68.9825C71.9119 66.1018 72.2956 64.1272 72.8818 62.9076C73.1637 62.3211 73.4568 61.9866 73.7279 61.7957C73.9829 61.616 74.3068 61.5 74.7829 61.5H172.923C173.604 61.5 174.33 61.8653 175.065 63.3816C175.813 64.9246 176.376 67.3162 176.77 70.558C177.554 77.0118 177.605 86.2233 177.605 97.2578V137.776C177.605 148.799 177.351 156.932 176.381 162.294C175.894 164.985 175.253 166.808 174.494 167.928C173.792 168.964 173.042 169.342 172.119 169.342H75.7144C75.2385 169.342 74.8867 169.226 74.5927 169.028C74.2839 168.82 73.9563 168.466 73.6362 167.872C72.9745 166.645 72.486 164.666 72.1661 161.8C71.6055 156.778 71.6131 149.635 71.623 140.45C71.6244 139.201 71.6258 137.913 71.6258 136.588L71.6256 94.2544Z" stroke="white" stroke-width="3"/>
</g>
<g filter="url(#filter1_dddi_2014_523)">
<path d="M75.7145 98.1315C75.7145 80.1582 73.8575 65.5879 79.6096 65.5879H168.859C174.611 65.5879 173.347 85.3381 173.347 103.311L173.347 134.515C173.347 152.488 174.145 165.253 168.393 165.253H79.6096C73.8575 165.253 75.7143 152.488 75.7143 134.515L75.7145 98.1315Z" fill="white" fill-opacity="0.46" shape-rendering="crispEdges"/>
<path d="M75.7145 98.1315C75.7145 80.1582 73.8575 65.5879 79.6096 65.5879H168.859C174.611 65.5879 173.347 85.3381 173.347 103.311L173.347 134.515C173.347 152.488 174.145 165.253 168.393 165.253H79.6096C73.8575 165.253 75.7143 152.488 75.7143 134.515L75.7145 98.1315Z" fill="white" fill-opacity="0.46" shape-rendering="crispEdges"/>
<path d="M77.2145 98.1315C77.2145 94.2669 77.1314 90.6164 77.0547 87.2463C76.9499 82.6474 76.8571 78.5707 77.0036 75.1845C77.1301 72.2601 77.4331 70.0878 77.9739 68.6848C78.2392 67.9967 78.5227 67.5999 78.7737 67.3821C78.9924 67.1924 79.2407 67.0879 79.6096 67.0879H168.859C169.083 67.0879 169.306 67.1603 169.586 67.4733C169.904 67.8274 170.245 68.4462 170.56 69.4167C171.187 71.3553 171.562 74.2235 171.762 77.7937C172.038 82.7044 171.974 88.6529 171.908 94.8438C171.878 97.6413 171.847 100.488 171.847 103.311L171.847 134.515C171.847 136.578 171.857 138.562 171.867 140.461C171.9 146.905 171.928 152.354 171.534 156.481C171.278 159.163 170.856 161.09 170.25 162.31C169.956 162.902 169.654 163.253 169.376 163.455C169.117 163.643 168.813 163.753 168.393 163.753H79.6096C79.1897 163.753 78.9185 163.644 78.7049 163.48C78.4689 163.298 78.2039 162.97 77.9525 162.385C77.432 161.174 77.1296 159.251 77.0032 156.553C76.8585 153.466 76.9476 149.706 77.0508 145.347C77.1285 142.065 77.2143 138.444 77.2143 134.515L77.2145 98.1315Z" stroke="white" stroke-width="3" shape-rendering="crispEdges"/>
</g>
<path d="M132.28 124.5C132.28 119.55 128.23 115.5 123.28 115.5C118.33 115.5 114.28 119.55 114.28 124.5C114.28 129.45 118.33 133.5 123.28 133.5C128.23 133.5 132.28 129.45 132.28 124.5ZM114.28 111V114.42C116.71 112.26 119.86 111 123.28 111C130.75 111 136.78 117.03 136.78 124.5C136.78 131.97 130.75 138 123.28 138C115.81 138 109.78 131.97 109.78 124.5V111C109.78 103.53 115.81 97.5 123.28 97.5H132.28V102H123.28C118.33 102 114.28 106.05 114.28 111Z" fill="black"/>
<defs>
<filter id="filter0_dddi_2014_523" x="0" y="0" width="269.105" height="270.842" filterUnits="userSpaceOnUse" color-interpolation-filters="sRGB">
<feFlood flood-opacity="0" result="BackgroundImageFix"/>
<feColorMatrix in="SourceAlpha" type="matrix" values="0 0 0 0 0 0 0 0 0 0 0 0 0 0 0 0 0 0 127 0" result="hardAlpha"/>
<feOffset dx="10" dy="20"/>
<feGaussianBlur stdDeviation="40"/>
<feComposite in2="hardAlpha" operator="out"/>
<feColorMatrix type="matrix" values="0 0 0 0 0.384314 0 0 0 0 0.368627 0 0 0 0 0.615686 0 0 0 0.3 0"/>
<feBlend mode="normal" in2="BackgroundImageFix" result="effect1_dropShadow_2014_523"/>
<feColorMatrix in="SourceAlpha" type="matrix" values="0 0 0 0 0 0 0 0 0 0 0 0 0 0 0 0 0 0 127 0" result="hardAlpha"/>
<feOffset dx="-10" dy="-10"/>
<feGaussianBlur stdDeviation="25"/>
<feComposite in2="hardAlpha" operator="out"/>
<feColorMatrix type="matrix" values="0 0 0 0 0.64707 0 0 0 0 0.450537 0 0 0 0 0.632829 0 0 0 0.5 0"/>
<feBlend mode="normal" in2="effect1_dropShadow_2014_523" result="effect2_dropShadow_2014_523"/>
<feColorMatrix in="SourceAlpha" type="matrix" values="0 0 0 0 0 0 0 0 0 0 0 0 0 0 0 0 0 0 127 0" result="hardAlpha"/>
<feOffset dy="20"/>
<feGaussianBlur stdDeviation="15"/>
<feComposite in2="hardAlpha" operator="out"/>
<feColorMatrix type="matrix" values="0 0 0 0 0.0313726 0 0 0 0 0.0196078 0 0 0 0 0.207843 0 0 0 0.3 0"/>
<feBlend mode="normal" in2="effect2_dropShadow_2014_523" result="effect3_dropShadow_2014_523"/>
<feBlend mode="normal" in="SourceGraphic" in2="effect3_dropShadow_2014_523" result="shape"/>
<feColorMatrix in="SourceAlpha" type="matrix" values="0 0 0 0 0 0 0 0 0 0 0 0 0 0 0 0 0 0 127 0" result="hardAlpha"/>
<feOffset/>
<feGaussianBlur stdDeviation="15"/>
<feComposite in2="hardAlpha" operator="arithmetic" k2="-1" k3="1"/>
<feColorMatrix type="matrix" values="0 0 0 0 1 0 0 0 0 1 0 0 0 0 1 0 0 0 0.72 0"/>
<feBlend mode="normal" in2="shape" result="effect4_innerShadow_2014_523"/>
</filter>
<filter id="filter1_dddi_2014_523" x="5.42847" y="5.58789" width="258.036" height="259.664" filterUnits="userSpaceOnUse" color-interpolation-filters="sRGB">
<feFlood flood-opacity="0" result="BackgroundImageFix"/>
<feColorMatrix in="SourceAlpha" type="matrix" values="0 0 0 0 0 0 0 0 0 0 0 0 0 0 0 0 0 0 127 0" result="hardAlpha"/>
<feOffset dx="10" dy="20"/>
<feGaussianBlur stdDeviation="40"/>
<feComposite in2="hardAlpha" operator="out"/>
<feColorMatrix type="matrix" values="0 0 0 0 0.384314 0 0 0 0 0.368627 0 0 0 0 0.615686 0 0 0 0.3 0"/>
<feBlend mode="normal" in2="BackgroundImageFix" result="effect1_dropShadow_2014_523"/>
<feColorMatrix in="SourceAlpha" type="matrix" values="0 0 0 0 0 0 0 0 0 0 0 0 0 0 0 0 0 0 127 0" result="hardAlpha"/>
<feOffset dx="-10" dy="-10"/>
<feGaussianBlur stdDeviation="25"/>
<feComposite in2="hardAlpha" operator="out"/>
<feColorMatrix type="matrix" values="0 0 0 0 0.64707 0 0 0 0 0.450537 0 0 0 0 0.632829 0 0 0 0.5 0"/>
<feBlend mode="normal" in2="effect1_dropShadow_2014_523" result="effect2_dropShadow_2014_523"/>
<feColorMatrix in="SourceAlpha" type="matrix" values="0 0 0 0 0 0 0 0 0 0 0 0 0 0 0 0 0 0 127 0" result="hardAlpha"/>
<feOffset dy="20"/>
<feGaussianBlur stdDeviation="15"/>
<feComposite in2="hardAlpha" operator="out"/>
<feColorMatrix type="matrix" values="0 0 0 0 0.0313726 0 0 0 0 0.0196078 0 0 0 0 0.207843 0 0 0 0.3 0"/>
<feBlend mode="normal" in2="effect2_dropShadow_2014_523" result="effect3_dropShadow_2014_523"/>
<feBlend mode="normal" in="SourceGraphic" in2="effect3_dropShadow_2014_523" result="shape"/>
<feColorMatrix in="SourceAlpha" type="matrix" values="0 0 0 0 0 0 0 0 0 0 0 0 0 0 0 0 0 0 127 0" result="hardAlpha"/>
<feOffset/>
<feGaussianBlur stdDeviation="15"/>
<feComposite in2="hardAlpha" operator="arithmetic" k2="-1" k3="1"/>
<feColorMatrix type="matrix" values="0 0 0 0 1 0 0 0 0 1 0 0 0 0 1 0 0 0 0.72 0"/>
<feBlend mode="normal" in2="shape" result="effect4_innerShadow_2014_523"/>
</filter>
<radialGradient id="paint0_radial_2014_523" cx="0" cy="0" r="1" gradientUnits="userSpaceOnUse" gradientTransform="translate(117.733 25.3619) rotate(75.581) scale(126.965 16.7921)">
<stop offset="0.212469" stop-color="#181118" stop-opacity="0.53"/>
<stop offset="1"/>
</radialGradient>
<radialGradient id="paint1_radial_2014_523" cx="0" cy="0" r="1" gradientUnits="userSpaceOnUse" gradientTransform="translate(91.0771 105.03) rotate(32.1939) scale(104.021 50.5088)">
<stop stop-color="#625E9D"/>
<stop offset="1" stop-color="#080535" stop-opacity="0.56"/>
</radialGradient>
<radialGradient id="paint2_radial_2014_523" cx="0" cy="0" r="1" gradientUnits="userSpaceOnUse" gradientTransform="translate(139.43 46.1447) rotate(91.4822) scale(143.796 142.708)">
<stop stop-color="#625E9D"/>
<stop offset="1" stop-color="#56544A" stop-opacity="0.12"/>
</radialGradient>
<radialGradient id="paint3_radial_2014_523" cx="0" cy="0" r="1" gradientUnits="userSpaceOnUse" gradientTransform="translate(86.7377 103.298) rotate(60.7577) scale(77.4093 140.577)">
<stop stop-color="#080535"/>
<stop offset="1" stop-color="white"/>
</radialGradient>
<radialGradient id="paint4_radial_2014_523" cx="0" cy="0" r="1" gradientUnits="userSpaceOnUse" gradientTransform="translate(116.7 16.2803) rotate(75.6825) scale(139.704 18.358)">
<stop offset="0.212469" stop-color="#181118" stop-opacity="0.53"/>
<stop offset="1"/>
</radialGradient>
<radialGradient id="paint5_radial_2014_523" cx="0" cy="0" r="1" gradientUnits="userSpaceOnUse" gradientTransform="translate(87.5708 103.982) rotate(32.3846) scale(113.909 55.4853)">
<stop stop-color="#080535"/>
<stop offset="1" stop-color="#625E9D" stop-opacity="0.88"/>
</radialGradient>
<radialGradient id="paint6_radial_2014_523" cx="0" cy="0" r="1" gradientUnits="userSpaceOnUse" gradientTransform="translate(140.409 39.1589) rotate(91.4713) scale(158.296 155.945)">
<stop stop-color="#EFAAEA"/>
<stop offset="1" stop-color="#56544A" stop-opacity="0.12"/>
</radialGradient>
<radialGradient id="paint7_radial_2014_523" cx="0" cy="0" r="1" gradientUnits="userSpaceOnUse" gradientTransform="translate(82.8289 102.075) rotate(60.9373) scale(85.0663 153.885)">
<stop stop-color="#EFAAEA"/>
<stop offset="1" stop-color="#625E9D"/>
</radialGradient>
</defs>
</svg>
