<svg width="321" height="367" viewBox="0 0 321 367" fill="none" xmlns="http://www.w3.org/2000/svg">
<mask id="mask0_2077_135" style="mask-type:alpha" maskUnits="userSpaceOnUse" x="0" y="0" width="321" height="367">
<rect width="321" height="367" fill="#D9D9D9"/>
</mask>
<g mask="url(#mask0_2077_135)">
<path d="M187.364 539V376.57C187.364 376.57 214.856 384.215 229.786 376.57C246.069 368.232 248.351 353.628 257.058 336.769C275.966 300.158 317.702 223.978 279.279 232.426C269.944 234.479 265.012 237.588 257.058 243.183C223.601 266.718 266.566 331.595 229.786 348.602C210.972 357.301 177.264 348.602 177.264 348.602L187.364 262.546L218.676 232.426C218.676 232.426 304.338 33.7403 229.786 29.1193C225.455 28.8508 218.676 29.1193 218.676 29.1193L206.555 215.215C206.555 215.215 195.729 226.993 187.364 232.426C138.417 264.216 209.801 126.721 177.264 76.45C173.278 70.2919 173.17 61.7092 166.153 61.3903C158.886 61.0599 158.052 69.9944 154.032 76.45C135.939 105.509 154.032 165.733 154.032 165.733C154.032 165.733 143.49 159.556 139.892 152.825C134.623 142.968 149.624 128.387 139.892 123.781C135.566 121.733 132.295 122.298 127.771 123.781C113.068 128.599 117.676 153.37 127.771 165.733C134.981 174.563 154.032 176.49 154.032 176.49V290.514C154.032 290.514 136.933 274.52 127.771 262.546C83.9771 205.31 96.4592 76.45 96.4592 76.45H82.3185C31.7314 82.2969 70.6084 162.478 82.3185 215.215C90.0558 250.06 89.8453 276.013 114.64 300.195C127.666 312.899 143.936 308.426 154.032 323.86C167.335 344.197 175.329 377.332 154.032 387.327C144.647 391.731 137.124 391.808 127.771 387.327C110.229 378.921 132.94 343.081 114.64 336.769C107.886 334.439 103.219 334.455 96.4592 336.769C74.37 344.33 96.9121 381.067 114.64 397.008C127.03 408.149 140.732 401.113 154.032 410.992C192.532 439.59 154.032 539 154.032 539H187.364Z" fill="black"/>
</g>
</svg>
