<svg width="522" height="475" viewBox="0 0 522 475" fill="none" xmlns="http://www.w3.org/2000/svg">
<mask id="mask0_2077_130" style="mask-type:alpha" maskUnits="userSpaceOnUse" x="0" y="0" width="522" height="475">
<rect width="522" height="475" fill="#D9D9D9"/>
</mask>
<g mask="url(#mask0_2077_130)">
<path d="M250.445 618V430.409C250.445 430.409 222.491 439.239 207.31 430.409C190.753 420.779 188.434 403.914 179.58 384.443C160.354 342.161 117.916 254.18 156.985 263.937C166.477 266.308 171.492 269.899 179.58 276.361C213.599 303.541 169.912 378.467 207.31 398.108C226.44 408.156 260.715 398.108 260.715 398.108L250.445 298.722L218.607 263.937C218.607 263.937 131.505 34.4746 207.31 29.1378C211.714 28.8277 218.607 29.1378 218.607 29.1378L230.931 244.06C230.931 244.06 241.939 257.663 250.445 263.937C300.215 300.651 227.631 141.859 260.715 83.8001C264.768 76.688 264.878 66.7759 272.012 66.4076C279.401 66.0261 280.25 76.3445 284.337 83.8001C302.734 117.36 284.337 186.913 284.337 186.913C284.337 186.913 295.057 179.78 298.715 172.005C304.073 160.621 288.819 143.783 298.715 138.462C303.113 136.098 306.44 136.75 311.04 138.462C325.99 144.027 321.304 172.636 311.04 186.913C303.708 197.111 284.337 199.336 284.337 199.336V331.023C284.337 331.023 301.724 312.551 311.04 298.722C355.569 232.621 342.878 83.8001 342.878 83.8001H357.256C408.693 90.5527 369.163 183.155 357.256 244.06C349.389 284.303 349.603 314.276 324.391 342.204C311.146 356.875 294.603 351.71 284.337 369.535C270.81 393.022 262.683 431.289 284.337 442.832C293.879 447.919 301.53 448.008 311.04 442.832C328.876 433.125 305.784 391.733 324.391 384.443C331.259 381.752 336.004 381.771 342.878 384.443C365.338 393.176 342.417 435.602 324.391 454.013C311.793 466.88 297.861 458.753 284.337 470.163C245.19 503.191 284.337 618 284.337 618H250.445Z" fill="black"/>
</g>
</svg>
