<svg width="304" height="247" viewBox="0 0 304 247" fill="none" xmlns="http://www.w3.org/2000/svg">
<path d="M51.8482 229.693C50.3051 234.935 56.0023 240.106 51.8482 243.68C48.2533 246.773 43.2695 246.773 39.6746 243.68C35.5205 240.106 41.7949 234.732 39.6746 229.693C35.8572 220.62 23.898 226.165 16.4096 219.74C0.655708 206.224 -4.09348 184.927 7.21177 167.557C7.21177 167.557 8.43856 163.871 10.4581 163.254C13.2049 162.413 14.3695 165.545 16.4096 167.557C24.6513 175.688 11.4642 189.27 20.1969 196.877C24.1101 200.285 27.1699 202.118 32.3705 202.256C45.994 202.618 41.6555 177.477 32.3705 167.557C28.5932 163.522 24.0266 164.281 20.1969 160.295C15.4619 155.366 13.7914 151.182 12.8928 144.425C12.4911 141.405 12.0866 139.563 12.8928 136.624C14.0996 132.224 15.6208 127.789 20.1969 127.478C25.0345 127.15 26.8775 132.07 28.5706 136.59L28.5832 136.624C30.1687 140.857 26.3434 144.261 28.5832 148.19C31.0067 152.443 34.7983 153.491 39.6746 154.108C53.194 155.818 30.5881 129.508 39.6746 119.409C41.9298 116.902 43.0761 113.658 46.4377 114.029C49.4076 114.357 49.9935 117.079 51.8482 119.409C61.8156 131.928 39.2559 170.203 51.8482 160.295C54.4284 158.264 56.2539 157.124 57.5292 154.108C59.0034 150.622 57.5292 144.425 57.5292 144.425C57.5292 144.425 59.2714 140.042 61.5871 140.121C63.8318 140.197 64.2306 142.503 65.3744 144.425C68.5485 149.758 68.3401 154.843 65.3744 160.295C63.3827 163.956 61.4142 166.007 57.5292 167.557C53.5092 169.161 46.4377 167.557 46.4377 167.557C46.4377 167.557 34.236 230.883 46.4377 216.244C48.9816 213.192 51.8482 207.636 51.8482 207.636C51.8482 207.636 48.7213 194.856 51.8482 187.731C53.3956 184.206 53.7085 180.266 57.5292 179.662C61.8826 178.973 63.1563 183.943 65.3744 187.731C71.0583 197.437 66.4512 206.107 61.5871 216.244C58.7842 222.085 53.6766 223.481 51.8482 229.693Z" fill="white" stroke="black"/>
<path d="M208.853 216.054C211.705 225.799 201.175 235.41 208.853 242.054C215.497 247.804 224.708 247.804 231.353 242.054C239.031 235.41 227.434 225.421 231.353 216.054C238.408 199.19 260.512 209.497 274.353 197.554C303.47 172.43 312.248 132.841 291.353 100.554C291.353 100.554 289.085 93.7028 285.353 92.5543C280.276 90.9922 278.123 96.8132 274.353 100.554C259.12 115.668 283.493 140.914 267.353 155.054C260.12 161.391 254.465 164.798 244.853 165.054C219.673 165.727 227.692 118.993 244.853 100.554C251.834 93.0534 260.275 94.4639 267.353 87.0543C276.104 77.8932 279.192 70.1145 280.853 57.5543C281.595 51.9406 282.343 48.5174 280.853 43.0543C278.622 34.8754 275.811 26.6315 267.353 26.0543C258.412 25.4442 255.005 34.5898 251.876 42.992L251.853 43.0543C248.922 50.9226 255.992 57.2495 251.853 64.5543C247.373 72.4588 240.366 74.4075 231.353 75.5543C206.365 78.7338 248.147 29.8274 231.353 11.0543C227.185 6.39516 225.066 0.363973 218.853 1.05433C213.364 1.66423 212.281 6.72416 208.853 11.0543C190.43 34.3247 232.127 105.472 208.853 87.0543C204.084 83.2805 200.71 81.1603 198.353 75.5543C195.628 69.0744 198.353 57.5543 198.353 57.5543C198.353 57.5543 195.133 49.4074 190.853 49.5543C186.704 49.6968 185.967 53.9816 183.853 57.5543C177.986 67.4692 178.371 76.9214 183.853 87.0543C187.534 93.8594 191.172 97.6733 198.353 100.554C205.783 103.535 218.853 100.554 218.853 100.554C218.853 100.554 241.405 218.266 218.853 191.054C214.151 185.381 208.853 175.054 208.853 175.054C208.853 175.054 214.632 151.298 208.853 138.054C205.993 131.501 205.414 124.177 198.353 123.054C190.307 121.775 187.952 131.014 183.853 138.054C173.347 156.096 181.863 172.212 190.853 191.054C196.033 201.912 205.473 204.508 208.853 216.054Z" fill="white" stroke="black"/>
</svg>
