<svg width="324" height="188" viewBox="0 0 324 188" fill="none" xmlns="http://www.w3.org/2000/svg">
<path d="M240.242 138.944L221.716 122.076L210.448 100.21L181.575 94.5871L190.026 146.44L173.125 185.799L145.66 185.799L145.66 157.686L135.097 138.944L82.2804 134.57L63.2665 122.076L55.5201 185.799L23.8303 185.799L23.8303 164.558L10.4501 118.327L1.99951 138.943L10.4501 78.9686L23.8303 53.9791L63.2665 53.9791L97.7733 26.4906L145.66 12.7463L181.575 37.7359L200.589 3.99999L214.561 17.7442L232.279 26.4906L232.279 37.7359L253.406 67.7233L248.476 87.0902L240.242 104.875M240.242 138.944L248.476 146.44L298.476 164.558L240.242 138.944ZM240.242 134.57L232.279 100.21L240.242 104.875M269.603 122.076L287.912 122.076M269.603 122.076L290.729 115.203L298.476 94.5871M269.603 122.076L240.242 104.875M321.715 118.327L306.222 122.076L287.912 122.076M321.715 118.327L321.715 87.0902M321.715 118.327L287.912 122.076" stroke="white" stroke-width="4"/>
</svg>
