<svg width="364" height="159" viewBox="0 0 364 159" fill="none" xmlns="http://www.w3.org/2000/svg">
<path d="M222.12 2.70182L214.546 16.3163M214.546 16.3163L208.486 27.0945L196.663 45.2472M214.546 16.3163L214.985 23.9745M174.401 98.0035L184.248 74.1781L193.337 50.3527L196.663 45.2472M174.401 98.0035L138.801 115.022L97.899 98.0035H87.2947L77.4479 101.407M174.401 98.0035L222.12 115.022V150.76L241.814 154.163M174.401 98.0035L196.663 45.2472M214.546 27.0945L215.424 31.6327M262.265 86.6581L231.967 71.2454L222.12 66.2363L216.522 37.3054M215.424 31.6327L216.522 37.3054M215.424 31.6327L214.985 23.9745M225.908 1L231.967 12.3454L222.12 16.3163M216.522 37.3054L262.265 45.2472L275.899 27.8036M214.985 23.9745H174.401H241.814L275.899 27.8036M352.831 27.0945C349.704 23.2946 346.025 19.2079 343.312 16.3163L358.461 31.6327H309.984L275.899 27.8036M352.831 27.0945C357.269 32.4888 360.594 37.3054 358.461 37.3054L347.857 45.2472L352.831 27.0945Z" stroke="white" stroke-width="4"/>
<path d="M63.0557 89.5422L69.0858 62.3324V54.9631L63.0557 51.5618L14.8142 86.141L78.8849 48.7275L94.7141 57.6557M94.7141 57.6557L103.006 62.3324L134.664 65.1667L94.7141 57.6557ZM69.0858 48.7275L54.1611 89.5422M44.2113 134.325V116.752L48.1498 105.981M44.2113 134.325L2.00007 142.828V157M44.2113 134.325L48.1498 105.981M48.1498 105.981L54.1611 89.5422M54.1611 89.5422L63.0557 109.95L94.7141 116.752L87.9302 149.631L103.006 157M80.3924 23.2183L69.0858 44.7594L63.0557 23.2183H80.3924Z" stroke="white" stroke-width="4"/>
</svg>
