<svg width="183" height="248" viewBox="0 0 183 248" fill="none" xmlns="http://www.w3.org/2000/svg">
<path d="M145.123 160.03L152.578 172.455" stroke="black"/>
<path d="M145.123 157.546L152.578 172.455" stroke="black"/>
<path d="M35.7875 90.4545V73.0606L23.3633 50.697L43.2421 18.3939L92.939 1L147.606 18.3939L162.515 50.697L147.606 73.0606V90.4545L157.545 97.9091V112.818L132.697 122.758L115.303 147.606H68.0905L55.6663 122.758L25.8481 112.818V97.9091L35.7875 90.4545Z" fill="white" stroke="black"/>
<path d="M102.879 87.9701V75.5459H137.667V87.9701L132.697 97.9095H110.333L102.879 87.9701Z" fill="black" stroke="black"/>
<path d="M80.5156 87.9701V75.5459H45.7278V87.9701L50.6975 97.9095H73.0611L80.5156 87.9701Z" fill="black" stroke="black"/>
<path d="M78.0312 117.788L90.4555 102.879L105.365 117.788V127.727H78.0312V117.788Z" fill="black" stroke="black"/>
<path d="M38.2739 160.03L30.8193 172.455" stroke="black"/>
<path d="M38.2727 227.121L73.0606 204.757L60.6364 197.303L30.8182 212.212L23.3636 204.757H1V219.666L13.4242 227.121V247H38.2727V227.121Z" fill="white" stroke="black"/>
<path d="M145.122 157.545L110.334 179.909L122.758 187.363L152.576 172.454L160.031 179.909H182.395V165L169.97 157.545V137.666H145.122V157.545Z" fill="white" stroke="black"/>
<path d="M145.122 157.546L152.577 172.455M30.8193 212.213L38.2739 227.122" stroke="black"/>
<path d="M145.122 227.121L60.637 187.364L70.5764 179.909L152.576 212.212L160.031 204.758H182.395V219.667L169.97 227.121V247H145.122V227.121Z" fill="white" stroke="black"/>
<path d="M152.576 212.212L38.2727 157.545V137.667H13.4242V157.545L1 165V179.909H23.3636L30.8182 172.454L145.121 227.121L152.576 212.212Z" fill="white"/>
<path d="M38.2727 157.545L152.576 212.212L145.121 227.121L30.8182 172.454M38.2727 157.545V137.667H13.4242V157.545L1 165V179.909H23.3636L30.8182 172.454M38.2727 157.545L30.8182 172.454" stroke="black"/>
</svg>
